<?xml version="1.0" encoding="UTF-8" standalone="no"?>
<!DOCTYPE svg PUBLIC "-//W3C//DTD SVG 1.1//EN" "http://www.w3.org/Graphics/SVG/1.1/DTD/svg11.dtd">
<svg width="100%" height="100%" viewBox="0 0 645 144" version="1.1" xmlns="http://www.w3.org/2000/svg" xmlns:xlink="http://www.w3.org/1999/xlink" xml:space="preserve" xmlns:serif="http://www.serif.com/" style="fill-rule:evenodd;clip-rule:evenodd;stroke-linejoin:round;stroke-miterlimit:2;">
    <g transform="matrix(1,0,0,1,-106,-106.509)">
        <g id="bgt_hrz_4cp_pos">
            <path id="Fill-1" d="M192.863,212.257L263.06,212.257L263.06,108.187L192.863,212.257" style="fill:white;"/>
            <path id="Fill-2" d="M106,107L106,212.747L263.314,107L106,107" style="fill:white;"/>
            <path id="Fill-3" d="M322.294,149.957C325.482,149.957 330.639,149.767 333.669,148.312C338.253,145.799 339.714,141.862 339.714,135.885C339.714,129.456 335.84,125.651 332.585,124.126C330.099,122.87 326.887,122.338 321.875,122.338L307.203,122.338L307.203,149.957L322.294,149.957ZM325.162,196.403C329.724,196.403 333.275,195.864 336.053,194.748C341.746,192.192 345.145,187.538 345.266,180.739C345.266,174.25 341.621,169.278 336.044,166.89C332.021,165.215 328.726,165.094 323.763,165.094L307.203,165.094L307.203,196.403L325.162,196.403ZM289.542,212.256L289.542,106.51L326.238,106.51C340.518,106.51 357.77,114.033 357.77,133.913C357.77,145.788 352.209,153.41 347.207,156.25C360.662,161.417 363.294,174.202 363.294,181.737C363.294,198.637 349.358,212.256 327.194,212.256L289.542,212.256ZM443.722,173.133L443.722,132.555L426.35,132.555L426.35,173.133C426.35,187.561 418.967,196.874 407.405,196.874C395.875,196.874 388.492,187.561 388.492,173.133L388.492,132.555L371.09,132.555L371.09,173.133C371.09,197.348 387.231,212.831 407.405,212.831C427.614,212.831 443.722,197.348 443.722,173.133ZM492.005,146.863C479.505,146.863 469.729,157.903 469.729,172.028C469.729,185.734 479.689,196.855 492.005,196.855C504.215,196.855 514.537,185.498 514.537,172.028C514.537,158.153 504.42,146.863 492.005,146.863ZM492.005,212.831C469.778,212.831 452.318,195.082 452.318,171.879C452.318,148.593 469.778,130.765 492.005,130.765C500.109,130.765 508.283,133.704 514.537,139.358L514.537,106.509L531.893,106.509L531.893,211.204L514.968,211.204L514.968,203.873C508.754,209.764 500.43,212.831 492.005,212.831ZM581.191,196.831C568.693,196.831 558.916,185.695 558.916,171.581C558.916,157.866 568.881,146.743 581.191,146.743C593.4,146.743 603.722,158.1 603.722,171.581C603.722,185.444 593.604,196.831 581.191,196.831ZM604.152,132.555L604.152,139.726C597.94,133.836 589.615,130.764 581.191,130.764C558.964,130.764 541.537,148.512 541.537,171.728C541.537,195.007 558.964,212.835 581.191,212.835C589.293,212.835 597.469,209.892 603.722,204.241C603.722,204.241 607.234,234.261 580.763,234.261C569.602,234.261 561.725,226.244 558.187,220.203C558.192,220.203 544.308,229.955 544.308,229.955C551.129,242.696 565.57,250.509 580.763,250.509C590.984,250.509 601.037,247.609 608.184,241.343C616.576,233.938 621.179,223.637 621.179,209.75L621.179,132.555L604.152,132.555ZM648.698,164.463C649.327,159.757 655.033,146.628 669.218,146.628C682.977,146.628 689.006,159.351 689.545,164.463L648.698,164.463ZM696.564,141.898C689.32,134.301 679.479,130.768 669.197,130.768C647.224,130.768 630.299,149.022 630.299,171.952C630.299,195.104 646.854,212.831 669.612,212.831C681.59,212.831 693.702,206.619 701.129,197.124L687.576,187.624C683.119,193.752 675.546,196.967 669.612,196.967C660.327,196.967 650.877,190.336 648.558,178.934L706.783,178.934C706.783,178.934 712.1,158.202 696.564,141.898ZM746.518,196.949C737.692,196.949 733.588,192.645 733.588,183.373L733.588,147.909L750.551,147.909L750.551,132.555L733.588,132.555L733.588,110.586L716.23,110.586L716.23,183.373C716.23,201.796 726.786,212.831 743.787,212.831C747.331,212.831 750.84,212.32 750.84,212.32L750.84,196.734C748.66,196.92 747.426,196.949 746.518,196.949Z" style="fill:white;"/>
        </g>
    </g>
</svg>
