<?xml version="1.0" encoding="UTF-8" standalone="no"?>
<!DOCTYPE svg PUBLIC "-//W3C//DTD SVG 1.1//EN" "http://www.w3.org/Graphics/SVG/1.1/DTD/svg11.dtd">
<svg width="100%" height="100%" viewBox="0 0 2350 500" version="1.1" xmlns="http://www.w3.org/2000/svg" xmlns:xlink="http://www.w3.org/1999/xlink" xml:space="preserve" xmlns:serif="http://www.serif.com/" style="fill-rule:evenodd;clip-rule:evenodd;stroke-linejoin:round;stroke-miterlimit:2;">
    <g transform="matrix(4.16667,0,0,4.16667,0,0)">
        <path d="M72.306,88.25L130.57,88.25L130.57,1.873L72.306,88.25Z" style="fill:rgb(247,141,37);fill-rule:nonzero;"/>
        <path d="M0,0.48L0,88.251L130.57,0.48L0,0.48Z" style="fill:rgb(242,98,33);fill-rule:nonzero;"/>
        <path d="M179.734,36.541C182.38,36.541 186.66,36.384 189.175,35.177C192.98,33.091 194.193,29.823 194.193,24.862C194.193,19.525 190.977,16.368 188.276,15.102C186.212,14.06 183.546,13.618 179.386,13.618L167.209,13.618L167.209,36.541L179.734,36.541ZM182.114,75.092C185.901,75.092 188.848,74.644 191.154,73.718C195.879,71.597 198.7,67.733 198.801,62.091C198.801,56.705 195.775,52.577 191.146,50.596C187.807,49.206 185.073,49.105 180.953,49.105L167.209,49.105L167.209,75.092L182.114,75.092ZM152.55,88.25L152.55,0.48L183.007,0.48C194.86,0.48 209.179,6.725 209.179,23.226C209.179,33.081 204.563,39.408 200.412,41.765C211.579,46.054 213.764,56.665 213.764,62.919C213.764,76.945 202.197,88.25 183.801,88.25L152.55,88.25ZM280.519,55.777L280.519,22.098L266.1,22.098L266.1,55.777C266.1,67.753 259.971,75.482 250.376,75.482C240.806,75.482 234.678,67.753 234.678,55.777L234.678,22.098L220.234,22.098L220.234,55.777C220.234,75.876 233.631,88.727 250.376,88.727C267.149,88.727 280.519,75.876 280.519,55.777ZM320.595,33.974C310.22,33.974 302.104,43.137 302.104,54.86C302.104,66.236 310.372,75.467 320.595,75.467C330.728,75.467 339.296,66.041 339.296,54.86C339.296,43.345 330.897,33.974 320.595,33.974ZM320.595,88.727C302.145,88.727 287.653,73.995 287.653,54.736C287.653,35.41 302.145,20.613 320.595,20.613C327.319,20.613 334.104,23.052 339.296,27.745L339.296,0.479L353.7,0.479L353.7,87.377L339.653,87.377L339.653,81.292C334.495,86.182 327.587,88.727 320.595,88.727ZM394.618,75.446C384.243,75.446 376.13,66.204 376.13,54.489C376.13,43.105 384.399,33.873 394.618,33.873C404.751,33.873 413.317,43.301 413.317,54.489C413.317,65.995 404.921,75.446 394.618,75.446ZM413.675,22.098L413.675,28.05C408.519,23.162 401.608,20.612 394.618,20.612C376.169,20.612 361.706,35.343 361.706,54.611C361.706,73.933 376.169,88.73 394.618,88.73C401.343,88.73 408.128,86.288 413.317,81.598C413.317,81.598 416.233,106.513 394.263,106.513C384.999,106.513 378.462,99.859 375.524,94.846C375.528,94.846 364.005,102.939 364.005,102.939C369.667,113.514 381.651,120 394.263,120C402.747,120 411.091,117.592 417.022,112.391C423.987,106.245 427.808,97.695 427.808,86.17L427.808,22.098L413.675,22.098ZM450.647,48.582C451.171,44.676 455.905,33.779 467.681,33.779C479.101,33.779 484.104,44.339 484.552,48.582L450.647,48.582ZM490.378,29.852C484.364,23.548 476.196,20.615 467.663,20.615C449.425,20.615 435.378,35.766 435.378,54.798C435.378,74.014 449.118,88.727 468.007,88.727C477.948,88.727 488.001,83.57 494.167,75.689L482.917,67.805C479.218,72.892 472.933,75.56 468.007,75.56C460.3,75.56 452.458,70.056 450.532,60.593L498.858,60.593C498.858,60.593 503.272,43.385 490.378,29.852ZM531.839,75.545C524.513,75.545 521.106,71.973 521.106,64.276L521.106,34.842L535.186,34.842L535.186,22.098L521.106,22.098L521.106,3.864L506.698,3.864L506.698,64.276C506.698,79.567 515.461,88.727 529.571,88.727C532.513,88.727 535.427,88.303 535.427,88.303L535.427,75.366C533.616,75.52 532.593,75.545 531.839,75.545Z" style="fill:rgb(26,50,92);fill-rule:nonzero;"/>
    </g>
</svg>
