<?xml version="1.0" encoding="UTF-8" standalone="no"?>
<!DOCTYPE svg PUBLIC "-//W3C//DTD SVG 1.1//EN" "http://www.w3.org/Graphics/SVG/1.1/DTD/svg11.dtd">
<svg width="100%" height="100%" viewBox="0 0 512 512" version="1.1" xmlns="http://www.w3.org/2000/svg" xmlns:xlink="http://www.w3.org/1999/xlink" xml:space="preserve" xmlns:serif="http://www.serif.com/" style="fill-rule:evenodd;clip-rule:evenodd;stroke-linejoin:round;stroke-miterlimit:2;">
    <g transform="matrix(1,0,0,1,-11,0)">
        <path d="M412.203,76.099L412.203,269.017" style="fill:none;"/>
    </g>
    <path d="M502.321,441.215C502.321,468.71 480.031,491 452.535,491L114.337,491C68.39,491 29.104,457.946 21.245,412.676C15.074,377.13 7.87,335.632 2.043,302.065C-4.948,261.793 6.198,220.488 32.502,189.201C61.675,154.499 100.582,108.219 129.91,73.334C156.655,41.521 196.092,23.154 237.653,23.154C296.987,23.154 383.693,23.154 441.508,23.154C475.094,23.154 502.321,50.381 502.321,83.967L502.321,441.215ZM425.09,68.679L438.946,68.679C445.253,68.679 451.302,71.184 455.762,75.644C460.222,80.104 462.727,86.153 462.727,92.46L462.727,251.457C462.727,255.062 461.296,258.518 458.747,261.067C456.199,263.615 452.742,265.047 449.138,265.047L425.09,265.047L425.09,68.679ZM377.317,68.679L377.317,265.047L64.828,265.047C60.221,265.047 55.819,263.144 52.663,259.789C49.507,256.433 47.876,251.923 48.158,247.325C48.158,247.324 48.158,247.324 48.158,247.323C48.775,237.237 52.768,227.652 59.493,220.109C79.592,197.568 124.704,146.976 157.26,110.464C180.964,83.881 214.886,68.679 250.503,68.679L377.317,68.679Z" style="fill:rgb(0,40,95);"/>
</svg>
