<?xml version="1.0" encoding="UTF-8" standalone="no"?>
<!DOCTYPE svg PUBLIC "-//W3C//DTD SVG 1.1//EN" "http://www.w3.org/Graphics/SVG/1.1/DTD/svg11.dtd">
<svg width="100%" height="100%" viewBox="0 0 185 194" version="1.1" xmlns="http://www.w3.org/2000/svg" xmlns:xlink="http://www.w3.org/1999/xlink" xml:space="preserve" xmlns:serif="http://www.serif.com/" style="fill-rule:evenodd;clip-rule:evenodd;stroke-linejoin:round;stroke-miterlimit:2;">
    <g transform="matrix(1,0,0,1,-1.92181,-16.512)">
        <path d="M153.094,193.896L153.094,124.308C157.426,122.882 161.542,120.843 165.315,118.244C165.315,118.244 165.315,118.243 165.315,118.243C170.727,114.514 175.314,109.715 178.794,104.141C182.275,98.566 184.573,92.337 185.547,85.838C186.522,79.339 186.152,72.709 184.458,66.359C182.766,60.01 179.788,54.076 175.708,48.924C171.628,43.773 166.533,39.514 160.74,36.412C160.74,36.412 160.74,36.412 160.74,36.412C154.947,33.31 148.578,31.43 142.029,30.89C137.145,30.488 132.237,30.836 127.477,31.915C123.565,27.681 118.911,24.177 113.731,21.583C107.057,18.242 99.696,16.506 92.233,16.512C84.981,16.507 77.823,18.148 71.297,21.311C66.129,23.817 61.465,27.225 57.519,31.363C52.694,30.589 47.769,30.555 42.917,31.27C42.917,31.27 42.917,31.27 42.917,31.27C36.569,32.206 30.473,34.405 24.99,37.737C24.989,37.737 24.989,37.737 24.989,37.737C19.506,41.07 14.747,45.468 10.993,50.672C7.239,55.876 4.566,61.779 3.134,68.034C1.701,74.288 1.537,80.767 2.651,87.086C3.766,93.405 6.136,99.436 9.621,104.823C9.621,104.823 9.621,104.823 9.622,104.823C13.107,110.21 17.638,114.844 22.945,118.45C22.945,118.45 22.945,118.45 22.945,118.45C26.611,120.941 30.597,122.906 34.785,124.297L34.785,193.896C34.785,198.296 36.532,202.516 39.644,205.628C42.756,208.74 46.976,210.488 51.377,210.488C51.377,210.488 136.502,210.488 136.502,210.488C140.902,210.488 145.123,208.741 148.235,205.629C148.235,205.628 148.236,205.628 148.236,205.627C151.346,202.515 153.094,198.295 153.094,193.896ZM49.052,158.467L138.826,158.467L138.826,193.896C138.826,194.513 138.581,195.104 138.145,195.54C137.709,195.976 137.118,196.22 136.502,196.22L51.377,196.22C50.76,196.22 50.169,195.976 49.733,195.54C49.297,195.104 49.052,194.513 49.052,193.896L49.052,158.467ZM138.826,144.199L138.826,118.816C138.826,115.407 141.239,112.474 144.584,111.816C149.116,110.926 153.417,109.115 157.219,106.495C161.022,103.874 164.246,100.501 166.692,96.584C166.692,96.584 166.692,96.584 166.692,96.584C169.138,92.667 170.753,88.29 171.437,83.723C171.437,83.723 171.437,83.722 171.437,83.722C172.122,79.156 171.862,74.498 170.672,70.036C170.672,70.036 170.672,70.035 170.672,70.035C169.483,65.573 167.391,61.403 164.523,57.783C164.523,57.783 164.523,57.782 164.523,57.782C161.656,54.162 158.075,51.17 154.005,48.99C149.934,46.81 145.458,45.489 140.856,45.11C140.856,45.11 140.856,45.11 140.856,45.11C136.254,44.73 131.623,45.3 127.25,46.783C124.324,47.776 121.092,46.772 119.243,44.297C116.106,40.097 112.031,36.688 107.344,34.342C107.344,34.342 107.344,34.342 107.344,34.342C102.656,31.995 97.486,30.775 92.244,30.78C92.239,30.78 92.235,30.78 92.231,30.78C87.135,30.775 82.106,31.928 77.521,34.15C72.936,36.373 68.916,39.607 65.763,43.61C64.011,45.833 61.111,46.811 58.37,46.101C54.005,44.971 49.458,44.727 44.997,45.385C40.536,46.043 36.253,47.588 32.4,49.93C28.546,52.272 25.202,55.362 22.564,59.019C19.926,62.676 18.048,66.825 17.041,71.22C17.041,71.22 17.041,71.22 17.041,71.22C16.034,75.615 15.919,80.167 16.702,84.608C16.702,84.608 16.702,84.608 16.702,84.608C17.485,89.048 19.151,93.287 21.6,97.072C24.05,100.858 27.234,104.114 30.963,106.648C34.693,109.182 38.893,110.942 43.314,111.824C46.65,112.49 49.052,115.418 49.052,118.82L49.052,144.199L67.889,144.199L67.889,122.958C67.889,119.021 71.085,115.824 75.023,115.824C78.96,115.824 82.156,119.021 82.156,122.958L82.156,144.199L138.826,144.199Z" style="fill:white;"/>
    </g>
</svg>
