<svg width="86" height="136" viewBox="0 0 86 136" fill="none" xmlns="http://www.w3.org/2000/svg">
<path d="M27.6868 65.0232C27.1797 73.0968 21.8451 78.2847 14.6427 77.71C6.87502 77.0899 0.801338 70.469 1.09709 62.9378C1.43721 54.2119 7.00057 49.0562 15.3804 49.6992C23.0629 50.2885 28.2105 56.6965 27.6868 65.0232Z" fill="#6EA6DE"/>
<path d="M48.0774 16.0544C47.4403 23.3341 41.071 28.5815 33.7583 27.8518C27.442 27.2207 19.9775 18.9943 20.3447 13.0661C20.7386 6.71761 28.1826 0.95398 35.2461 1.52712C42.5632 2.12319 48.6915 9.06015 48.0774 16.0544Z" fill="#6EA6DE"/>
<path d="M51.0385 106.075C50.4232 114.346 47.0332 117.222 38.5811 116.643C31.1791 116.137 24.4437 109.453 24.8659 103.031C25.2727 96.8652 32.2403 91.24 38.7685 91.6438C44.5344 91.9996 53.3829 99.1418 51.0385 106.075Z" fill="#6EA6DE"/>
<path d="M72.0356 109.525C79.4446 109.966 84.5216 115.298 83.9703 122.446C83.3748 130.15 79.0754 134.443 70.7096 134.15C62.9567 133.876 57.825 127.649 58.8586 121.137C60.0627 113.554 64.474 109.074 72.0356 109.525Z" fill="#6EA6DE"/>
</svg>
