<?xml version="1.0" encoding="UTF-8" standalone="no"?>
<!DOCTYPE svg PUBLIC "-//W3C//DTD SVG 1.1//EN" "http://www.w3.org/Graphics/SVG/1.1/DTD/svg11.dtd">
<svg width="100%" height="100%" viewBox="0 0 512 512" version="1.1" xmlns="http://www.w3.org/2000/svg" xmlns:xlink="http://www.w3.org/1999/xlink" xml:space="preserve" xmlns:serif="http://www.serif.com/" style="fill-rule:evenodd;clip-rule:evenodd;stroke-linejoin:round;stroke-miterlimit:2;">
    <path d="M235.191,246.873L85.894,246.873L85.894,64.083C85.894,64.083 86.178,42.607 64.417,42.607C42.656,42.607 42.941,64.083 42.941,64.083L42.941,467.275C42.941,479.128 52.564,488.751 64.417,488.751C76.27,488.751 85.894,479.128 85.894,467.275L85.894,289.826L235.191,289.826L235.191,467.275C235.191,479.128 244.814,488.751 256.668,488.751C268.521,488.751 278.144,479.128 278.144,467.275L278.144,289.826L448.918,289.826C460.779,289.826 470.394,280.21 470.394,268.349L470.394,64.083C470.394,52.23 460.771,42.607 448.918,42.607C437.065,42.607 427.441,52.23 427.441,64.083L427.441,246.873L278.144,246.873L278.144,64.083C278.144,52.23 268.521,42.607 256.668,42.607C244.814,42.607 235.191,52.23 235.191,64.083L235.191,246.873Z" style="fill:rgb(0,40,95);"/>
</svg>
