<svg width="155" height="155" viewBox="0 0 155 155" fill="none" xmlns="http://www.w3.org/2000/svg">
<path d="M150.84 104.374C151.488 105.787 151.684 107.448 151.533 109.214C151.096 114.331 149.639 115.915 144.65 114.677C138.885 113.244 133.816 114.421 128.585 116.585C125.462 117.877 122.364 119.273 118.74 119.341C112.228 119.462 107.552 116.295 103.325 111.932C100.684 109.205 98.2299 106.25 95.3254 103.838C92.3226 101.345 88.6875 100.213 84.6488 101.076C75.1613 103.105 68.1884 99.4904 62.5245 91.8709C57.8269 85.5535 51.2282 82.0954 43.1812 82.6488C37.5655 83.0343 33.0182 80.9174 29.2853 77.2856C22.1116 70.3068 14.527 63.684 8.67894 55.4379C7.04328 53.1316 4.1166 52.1646 2.87951 49.2687C1.25973 45.4782 1.95802 42.5372 5.06195 40.1458C8.12915 37.7839 11.3665 37.6698 14.4797 40.1638C21.0104 45.3979 26.3265 51.8452 31.8346 58.0533C37.0285 63.9092 42.7328 68.1905 50.9316 66.5632C60.5698 64.6521 66.7067 69.9486 71.7197 76.6853C76.1757 82.6753 81.511 85.4482 88.7789 84.2845C96.6528 83.0236 102.367 86.5428 107.165 92.2172C109.841 95.3826 113.021 98.0597 115.509 101.437C117.501 104.138 120.029 103.905 123.063 102.154C128.498 99.0157 134.183 96.3691 140.875 97.0346C145.959 97.5407 149.087 99.5131 150.84 104.374Z" fill="#E96F41"/>
</svg>
