<svg width="179" height="165" viewBox="0 0 179 165" fill="none" xmlns="http://www.w3.org/2000/svg">
<path d="M116.363 42.3391C114.684 40.7134 113.107 38.9589 111.301 37.4872C107.62 34.4917 105.302 30.9864 106.802 26.064C108.259 21.278 111.873 19.0625 116.63 18.4491C118.43 18.2165 120.238 18.0348 122.042 17.8293C135.24 23.742 148.124 30.1474 158.321 40.8045C161.33 43.9665 164.537 46.9657 167.304 50.3266C171.723 55.6983 171.748 62.7187 167.714 67.3045C163.941 71.5892 156.903 71.7083 150.935 67.612C145.4 63.8132 139.847 60.0395 134.304 56.2543C128.948 50.8072 122.903 46.2547 116.363 42.3391Z" fill="#FD9900"/>
<path d="M143.239 135.818C135.697 135.215 131.454 130.418 127.403 124.519C116.285 108.339 105.158 91.9866 90.0965 79.1541C78.5423 69.3074 65.1356 62.2522 50.5971 57.6208C46.8022 56.412 43.1626 55.0335 40.5216 51.9484C37.0659 47.9106 35.648 43.5326 38.1948 38.3073C40.6018 33.3658 45.2691 32.7774 49.4734 33.1115C71.1345 34.8299 91.5144 40.2657 108.192 55.359C109.097 56.1784 110.518 56.4275 111.7 56.9409C112.629 60.1896 115.244 61.831 117.883 63.4505C132.626 76.8567 144.321 92.4114 150.635 111.51C154.575 123.425 152.992 127.858 143.362 135.843L143.239 135.818Z" fill="#FD9900"/>
<path d="M106.993 155.103C101.338 153.181 98.714 148.234 95.9207 143.62C88.6616 131.635 81.0943 119.959 69.5916 111.462C59.6087 104.089 48.6067 99.2281 36.3512 97.0165C30.7242 96.0009 25.2468 94.1657 19.6738 92.8103C14.3613 91.5175 12.624 87.7409 13.0081 82.8598C13.3996 77.8564 16.4657 74.5338 21.3037 73.7776C37.1191 71.3075 52.665 72.8289 66.9121 80.2365C80.4949 87.3002 92.8518 96.2277 102.581 108.471C109.791 117.543 115.626 127.324 118.737 138.434C119.992 142.919 121.001 148.227 116.501 152.181C111.978 148.735 109.52 152.033 106.993 155.103Z" fill="#FD9900"/>
</svg>
