<?xml version="1.0" encoding="UTF-8" standalone="no"?>
<!DOCTYPE svg PUBLIC "-//W3C//DTD SVG 1.1//EN" "http://www.w3.org/Graphics/SVG/1.1/DTD/svg11.dtd">
<svg width="100%" height="100%" viewBox="0 0 1255 894" version="1.1" xmlns="http://www.w3.org/2000/svg" xmlns:xlink="http://www.w3.org/1999/xlink" xml:space="preserve" xmlns:serif="http://www.serif.com/" style="fill-rule:evenodd;clip-rule:evenodd;stroke-linejoin:round;stroke-miterlimit:2;">
    <g transform="matrix(1,0,0,1,-332.985,-93.4216)">
        <g transform="matrix(1,0,0,1,447.309,427.041)">
            <path d="M0,180.028C0,180.028 -20.326,164.057 7.259,79.851L65.333,-78.399C65.333,-78.399 104.987,-178.538 187.287,-139.376C187.287,-139.376 264.234,-192.388 301.982,-148.46C301.982,-148.46 412.699,-233.421 458.78,-195.998L495.076,-213.42C495.076,-213.42 566.217,-264.234 615.579,-232.294C615.579,-232.294 640.968,-298.528 708.496,-252.62C708.496,-252.62 758.995,-303.933 808.673,-268.822C808.673,-268.822 876.758,-333.892 934.983,-294.723C934.983,-294.723 1052.58,-400.707 1084.52,-262.783C1084.52,-262.783 1094.68,-230.842 1058.39,-123.406L1033.71,-42.678C1033.71,-42.678 1141.14,-29.033 1139.69,91.467C1139.69,91.467 1136.69,153.566 1081.62,201.805C1081.62,201.805 1128.08,255.523 1072.91,317.952C1017.74,380.382 982.894,331.018 982.894,331.018C982.894,331.018 945.347,383.535 876.909,349.545C876.909,349.545 805.77,421.033 720.111,374.574C720.111,374.574 644.615,477.101 519.758,390.267C519.758,390.267 496.814,484.809 410.87,447.166C410.87,447.166 376.026,501.174 316.5,456.021C316.5,456.021 287.464,521.21 217.775,493.625C217.775,493.625 109.944,563.928 82.755,519.757C82.755,519.757 -20.326,580.735 -62.429,551.698C-104.532,522.661 -124.858,497.98 -108.888,425.388L-68.236,296.174C-68.236,296.174 -123.406,209.064 0,180.028" style="fill:rgb(0,62,124);fill-rule:nonzero;"/>
        </g>
        <g transform="matrix(1,0,0,1,585.366,386.8)">
            <path d="M0,160.574C-0.94,143.535 0.886,99.858 4.777,56.887C-14.463,106.953 -35.866,166.668 -45.998,216.324C-47.107,221.924 -52.371,224.192 -58.148,220.44C-63.037,217.265 -66.928,211.579 -68.642,203.515C-70.123,196.551 -70.003,188.097 -68.419,179.335C-61.183,139.482 -24.047,31.218 3.455,-28.646C6.605,-35.445 12.003,-38.89 20.136,-34.872C31.824,-28.546 38.982,-20.107 41.476,-8.376C42.878,-1.78 42.994,7.776 41.952,19.105C37.602,54.509 35.025,78.426 32.269,130.349C58.367,63.886 89.953,19.629 116.926,-53.528C120.054,-62.239 124.743,-63.618 133.108,-58.503C142.076,-52.363 147.246,-44.266 149.115,-35.471C151.218,-25.573 149.366,-14.453 146.707,-3.545C131.464,49.116 110.604,129.406 103.551,184.536C102.543,192.414 99.244,193.115 92.289,189.229C87.033,186.134 81.678,180.761 79.418,170.129C78.171,164.263 77.424,157.145 77.909,148.613L77.987,148.979C78.723,130.817 88.503,88.512 98.672,48.04C75.222,96.315 50.184,153.358 36.895,197.173C34.421,205.36 31.122,206.061 24.768,203.198C13.233,197.605 4.9,189.034 1.628,173.639C0.771,169.607 0.279,165.496 0,160.574" style="fill:white;fill-rule:nonzero;"/>
        </g>
        <g transform="matrix(1,0,0,1,893.265,516.579)">
            <path d="M0,-175.247C-42.425,-127.92 -97.178,-48.472 -129.18,10.048C-112.808,2.357 -91.384,-6.798 -75.935,-11.612C-57.186,-17.131 -43.898,-12.29 -36.432,-2.388C-33.585,1.988 -33.984,5.52 -42.047,7.234C-64.04,11.909 -98.979,27.767 -127.611,42.663C-137.616,47.856 -143.761,44.177 -158.441,27.378C-163.588,21.194 -164.756,15.696 -160.762,5.65C-141.998,-41.244 -75.777,-138.837 -30.099,-190.686C-44.215,-185.005 -62.263,-176.186 -74.047,-172.151C-99.813,-163.61 -113.281,-171.092 -120.406,-182.983C-123.33,-187.723 -123.665,-191.103 -116.7,-192.582C-82.821,-199.018 -47.405,-218.037 -31.278,-221.466C-23.58,-223.103 -16.593,-222.672 -11.393,-218.03C-5.226,-212.446 1.122,-204.219 5.845,-196.412C10.046,-189.258 7.474,-183.349 0,-175.247" style="fill:white;fill-rule:nonzero;"/>
        </g>
        <g transform="matrix(1,0,0,1,999.041,465.862)">
            <path d="M0,-147.781C-17.459,-114.567 -36.37,-73.772 -51.828,-32.943C-44.652,-35.233 -37.479,-37.525 -30.747,-40.106C-18.596,-44.219 -10.844,-47.399 -1.025,-49.87C-3.093,-81.228 -3.32,-118.341 0,-147.781M5.116,2.46C3.714,-4.139 1.923,-12.569 0.998,-22.336L-24.115,-14.313C-38.465,-9.732 -52.449,-5.227 -62.79,-3.414C-69.026,15.919 -73.193,35.958 -78.429,52.781C-81.192,61.41 -87.735,61.271 -91.392,56.687C-94.525,52.753 -97.426,49.92 -98.672,44.057C-99.918,38.192 -100.244,29.45 -98.106,17.887C-97.075,11.92 -95.834,5.143 -93.439,-3.412C-101.049,-6.773 -105.439,-11.204 -107.005,-13.167C-111.418,-19.51 -110.419,-22.021 -100.576,-22.58C-95.291,-22.936 -92.28,-23.195 -87.07,-23.917C-69.786,-77.78 -34.239,-159.274 -2.688,-200.076C3.976,-208.385 9.551,-209.191 16.605,-203.028C21.285,-199.042 24.342,-195.476 28.23,-189.79C30.998,-185.781 32.954,-181.985 33.89,-177.587C34.825,-173.187 35.183,-167.899 34.151,-161.934C31.331,-133.752 29.17,-93.449 30.388,-53.483C41.219,-51.186 46.364,-45.002 50.566,-37.849C53.646,-32.375 51.392,-30.364 44.561,-30.062L31.264,-29.535C32.959,-10.738 35.101,8.344 38.185,26.462C39.587,33.058 35.135,35.539 27.914,34.009C18.992,31.691 10.002,23.638 5.116,2.46" style="fill:white;fill-rule:nonzero;"/>
        </g>
        <g transform="matrix(1,0,0,1,1128.9,295.236)">
            <path d="M0,120.133C-4.518,98.876 -9.518,68.14 -12.842,36.285C-29.363,86.533 -44.635,142.646 -51.18,191.161C-52.188,199.034 -57.606,200.571 -63.907,196.162C-68.586,192.179 -73.442,185.548 -75.234,177.118C-76.403,171.62 -76.438,162.431 -75.144,154.111C-66.523,100.944 -38.516,3.814 -20.476,-48.291C-17.423,-57.368 -13.024,-58.302 -6.593,-55.074C6.117,-49.346 12.886,-42.74 15.69,-29.547C16.78,-24.415 17.295,-18.394 17.597,-11.562C18.775,19.22 23.58,58.041 29.974,100.739C43.758,43.023 65.678,-28.678 81.846,-71.572C85.706,-80.438 90.494,-79.543 96.007,-73.433C99.141,-69.504 101.253,-64.969 102.344,-59.839C104.214,-51.041 104.742,-37.746 97.274,-17.006C83.916,21.081 57.141,116.802 45.3,171.036C44.034,175.902 40.47,178.958 33.537,176.985C20.117,173.323 12.227,165.043 6.788,146.657C3.796,136.184 1.87,128.931 0,120.133" style="fill:white;fill-rule:nonzero;"/>
        </g>
        <g transform="matrix(1,0,0,1,1209.67,239.415)">
            <path d="M0,163.003C2.777,161.645 6.73,160.42 11.13,159.485C21.759,157.226 32.646,157.976 41.667,162.572C58.455,171.263 86.543,184.449 107.802,179.93C115.867,178.215 122.808,174.826 125.982,169.935C130.312,163.268 127.077,157.061 122.344,154.62C91.589,139.703 36.433,130.739 28.486,93.352C17.892,43.502 65.8,-12.269 95.829,-33.212C106.833,-40.913 114.297,-43.65 122.727,-45.443C131.524,-47.311 139.4,-46.301 146.721,-42.497C159.012,-35.145 168.18,-24.454 172.85,-15.104C179.709,-0.853 173.662,15.755 169.877,24.988C163.572,38.587 156.994,59.909 153.733,69.795C151.681,76.361 148.272,80.151 139.751,74.298C133.526,70.259 128.538,64.806 126.747,56.376C125.033,48.312 126.836,33.369 135.503,14.672C141.785,-0.837 148.254,-19.071 142.343,-21.644C126.678,-28.658 57.857,42.286 64.984,84.826C69.026,109.254 123.685,119.473 140.16,126.698C148.216,130.346 153.649,136.087 155.13,143.052C156.923,151.482 154.182,162.027 147.068,175.416C139.875,188.437 123.55,199.95 101.558,204.626C74.801,210.314 36.053,202.843 0.006,175.644C-6.451,170.503 -4.741,165.924 0,163.003" style="fill:white;fill-rule:nonzero;"/>
        </g>
        <g transform="matrix(1,0,0,1,1442.1,415.493)">
            <path d="M0,-242.536C4.074,-252.212 9.804,-252.284 15.473,-245.441C18.085,-242.168 20.643,-237.346 21.889,-231.481C23.992,-221.586 22.864,-205.255 16.997,-186.003C3.053,-141.662 -22.44,-61.541 -35.734,0.284C-37.188,7.873 -40.619,9.748 -47.886,4.398C-52.329,1.514 -56.664,-4.463 -58.612,-13.627C-59.703,-18.758 -60.105,-27.866 -59.045,-37.286C-50.579,-91.186 -20.152,-194.962 0,-242.536" style="fill:white;fill-rule:nonzero;"/>
        </g>
        <g transform="matrix(1,0,0,1,408.938,693.686)">
            <path d="M0,181.682C4.007,148.265 26.226,70.752 47.497,12.217C38.053,9.245 32.462,2.769 29.594,-3.517C27.482,-8.048 29.215,-10.715 36.178,-12.194C57.438,-16.714 72.732,-22.261 89.702,-28.935C102.063,-33.862 113.847,-37.896 122.645,-39.766C140.238,-43.505 152.06,-38.36 159.84,-26.986C162.531,-23.342 161.555,-18.923 153.856,-17.289C135.085,-13.68 117.982,-5.831 84.118,7.879C76.307,30.612 67.388,58.943 56.861,94.125C63.591,91.546 68.646,90.086 74.066,88.553C94.647,82.646 106.18,88.239 111.972,99.268C114.529,104.087 114.497,107.542 106.588,109.99C90.039,115.04 64.715,123.869 45.647,133.287C37.694,162.561 31.896,187.544 24.91,217.763C23.724,222.995 18.824,225.187 12.992,222.976C7.159,220.768 2.226,213.773 0.355,204.973C-0.814,199.476 -0.984,191.47 0,181.682" style="fill:white;fill-rule:nonzero;"/>
        </g>
        <g transform="matrix(1,0,0,1,576.822,669.237)">
            <path d="M0,183.089C17.026,174.874 34.074,168.566 47.036,164.664C66.883,158.911 79.151,164.35 86.331,174.699C89.099,178.708 89.144,182.53 80.714,184.321C63.409,187.615 26.136,205.117 6.412,215.057C-3.672,219.881 -8.437,220.892 -15.128,214.656C-19.884,210.3 -26.05,204.717 -28.375,200.997C-32.341,194.943 -33.589,189.078 -32.027,178.402C-23.938,129.945 13.167,7.128 29.35,-28.492C33.501,-37.803 38.444,-36.17 43.512,-30.353C46.124,-27.078 48.758,-21.89 50.006,-16.025C51.953,-6.864 51.38,6.666 45.644,24.744C26.144,89.805 11.044,135.918 0,183.089" style="fill:white;fill-rule:nonzero;"/>
        </g>
        <g transform="matrix(1,0,0,1,782.112,799.778)">
            <path d="M0,-147.775C-17.459,-114.564 -36.371,-73.768 -51.83,-32.937C-44.652,-35.227 -37.479,-37.519 -30.747,-40.102C-18.596,-44.216 -10.844,-47.396 -1.026,-49.867C-3.093,-81.222 -3.321,-118.336 0,-147.775M5.116,2.463C3.713,-4.135 1.921,-12.565 0.996,-22.333L-24.117,-14.31C-38.466,-9.726 -52.449,-5.223 -62.791,-3.409C-69.026,15.922 -73.194,35.961 -78.43,52.784C-81.193,61.413 -87.735,61.274 -91.392,56.69C-94.527,52.758 -97.427,49.923 -98.674,44.06C-99.92,38.195 -100.246,29.454 -98.106,17.89C-97.076,11.923 -95.834,5.147 -93.439,-3.409C-101.049,-6.767 -105.44,-11.198 -107.007,-13.164C-111.419,-19.504 -110.42,-22.015 -100.578,-22.577C-95.292,-22.933 -92.281,-23.192 -87.071,-23.914C-69.787,-77.777 -34.24,-159.268 -2.688,-200.071C3.975,-208.382 9.549,-209.188 16.605,-203.024C21.284,-199.039 24.34,-195.473 28.23,-189.787C30.997,-185.778 32.954,-181.979 33.889,-177.582C34.824,-173.181 35.182,-167.898 34.151,-161.93C31.331,-133.749 29.17,-93.446 30.386,-53.48C41.218,-51.183 46.364,-44.999 50.566,-37.845C53.646,-32.369 51.391,-30.359 44.56,-30.056L31.263,-29.532C32.958,-10.735 35.101,8.347 38.185,26.464C39.587,33.061 35.134,35.542 27.913,34.012C18.992,31.694 10.001,23.642 5.116,2.463" style="fill:white;fill-rule:nonzero;"/>
        </g>
        <g transform="matrix(1,0,0,1,881.222,613.303)">
            <path d="M0,151.719C25.366,85.414 72.536,-13.491 96.968,-53.546C100.719,-59.325 104.83,-59.814 108.487,-55.23C116.688,-45.477 116.076,-23.13 86.819,37.491C65.733,80.665 36.256,147.458 13.318,201.757C10.532,208.477 6.968,211.533 -1.898,207.671C-15.942,201.077 -24.511,191.407 -28.327,173.447C-29.106,169.782 -29.597,165.674 -30.166,161.195C-35.777,104.156 -35.735,16.035 -30.02,-21.958C-28.014,-32.344 -23.404,-34.089 -15.982,-28.007C-10.858,-23.733 -4.957,-15.792 -2.696,-5.161C-1.061,2.535 -0.213,11.932 -0.364,23.839C-1.003,62.289 -1.332,102.199 0,151.719" style="fill:white;fill-rule:nonzero;"/>
        </g>
        <g transform="matrix(1,0,0,1,1127.04,640.041)">
            <path d="M0,30.592C10.659,-5.771 11.445,-38.119 6.692,-60.48C2.953,-78.073 -3.205,-89.021 -11.526,-90.319C-28.9,-92.755 -67.01,-59.369 -89.535,-1.332C-102.075,31.6 -103.438,64.835 -98.374,88.661C-92.92,114.319 -80.718,126.667 -66.789,123.706C-44.064,118.875 -15.897,83.775 0,30.592M-4.355,-105.25C21.729,-99.685 36.012,-79.354 41.544,-53.327C47.308,-26.204 44.479,7.345 36.004,35.963C20.739,86.709 -8.257,132.334 -50.408,141.292C-59.206,143.163 -67.215,143.333 -75.902,142.114C-109.918,137.088 -127.858,112.167 -134.324,81.743C-150.763,4.404 -96.266,-78.054 -57.597,-101.597C-50.812,-105.72 -44.08,-108.299 -36.384,-109.936C-23.187,-112.741 -11.989,-110.523 -4.355,-105.25" style="fill:white;fill-rule:nonzero;"/>
        </g>
        <g transform="matrix(1,0,0,1,1220.06,479.77)">
            <path d="M0,268.014C-16.719,265.056 -33.896,254.53 -39.351,228.872C-40.83,221.908 -41.577,214.789 -41.459,206.333C-40.054,164.278 -13.205,86.935 9.033,29.338C12.605,20.915 18.704,20.771 24.505,26.431C28.449,30.575 31.374,35.315 32.776,41.914C34.568,50.344 34.128,62.696 29.049,80.25C18.389,116.613 -5.19,178.705 -6.984,218.928C-7.05,225.839 -6.902,231.938 -5.89,236.701C-3.318,248.797 3.271,252.759 11.335,251.047C30.028,247.074 48.065,212.975 60.654,165.86C72.267,123.167 97.026,43.198 110.12,7.468C113.248,-1.241 119.425,-1.023 125.227,4.64C128.283,8.204 130.918,13.391 132.087,18.891C133.8,26.952 133.937,38.418 130.722,52.126C124.18,82.63 96.86,175.786 79.757,214.285C66.019,245.168 44.477,262.776 22.117,267.527C14.053,269.242 6.777,269.255 0,268.014" style="fill:white;fill-rule:nonzero;"/>
        </g>
        <g transform="matrix(1,0,0,1,1424.98,664.62)">
            <path d="M0,-160.371C1.816,-150.031 0.143,-136.265 -5.358,-117.09C-11.358,-96.659 -17.251,-79.317 -21.433,-66.553C47.901,-100.826 73.538,-156.847 58.867,-179.01C55.421,-184.41 50.998,-185.388 45.501,-184.219C37.07,-182.427 24.156,-174.699 13.282,-168.176L0,-160.371ZM37.215,30.932C8.101,5.707 -14.479,-14.013 -32.646,-27.39C-37.994,-7.481 -43.083,15.435 -48.313,44.896C-49.398,52.405 -53.274,53.994 -59.941,49.666C-64.909,46.126 -69.087,40.885 -71.036,31.721C-72.126,26.59 -72.794,19.837 -72.366,12.849C-69.979,-20.989 -51.904,-94.554 -30.322,-151.626C-42.886,-151.256 -49.107,-155.295 -55.143,-162.059C-59.165,-166.567 -57.955,-169.889 -50.492,-172.625C-36.299,-177.941 -23.227,-184.933 -10.966,-192.136C2.028,-199.496 14.079,-205.886 27.484,-209.501C46.755,-214.365 66.429,-210.121 80.502,-188.975C95.618,-166.52 92.361,-143.991 82.772,-122.412C69.455,-93.149 36.453,-62.766 -1.318,-44.012C15.229,-31.054 31.431,-16.109 41.277,-4.027C45.9,1.5 49.213,8.076 50.459,13.94C51.395,18.339 50.864,23.049 49.443,27.184C46.736,34.272 42.86,35.862 37.215,30.932" style="fill:white;fill-rule:nonzero;"/>
        </g>
        <g transform="matrix(1,0,0,1,417.576,937.551)">
            <path d="M0,-173.144C0.062,-168.689 -0.995,-166.937 -5.249,-165.788C-9.412,-164.663 -13.354,-162.965 -17.426,-161.614C-20.577,-160.568 -20.875,-159.477 -19.166,-156.457C-18.407,-155.117 -17.549,-153.832 -16.762,-152.505C-13.03,-146.222 -14.168,-140.764 -20.203,-136.556C-22.603,-134.882 -25.177,-133.46 -27.638,-131.872C-29.932,-130.39 -32.446,-129.204 -34.571,-127.171C-33.707,-124.911 -32.272,-123.381 -30.651,-121.961C-26.156,-118.023 -25.619,-109.518 -31.531,-104.59C-35.431,-101.339 -39.183,-97.911 -43.264,-94.876C-44.261,-94.135 -45.241,-93.399 -45.426,-91.735C-42.193,-88.465 -38.729,-85.24 -36.114,-81.22C-34.052,-78.05 -33.894,-75.186 -35.533,-71.781C-37.339,-68.029 -39.589,-64.607 -42.058,-61.308C-42.659,-60.504 -43.035,-59.785 -42.858,-58.548C-41.271,-56.925 -38.991,-55.972 -36.965,-54.663C-32.5,-51.775 -31.073,-48.561 -34.06,-43.069C-36.499,-38.583 -40.217,-35.057 -42.798,-30.329C-40.661,-28.586 -38.01,-27.461 -35.843,-25.582C-31.247,-21.599 -29.678,-18.111 -31.957,-12.749C-34.534,-6.687 -37.764,-0.954 -43.449,2.979C-45.854,4.642 -48.369,4.524 -50.32,3.114C-52.464,1.565 -54.395,-0.617 -53.94,-3.852C-53.361,-7.968 -51.104,-11.504 -49.789,-15.489C-53.4,-17.405 -56.52,-19.609 -59.534,-21.962C-64.183,-25.593 -64.924,-29.69 -62.072,-34.863C-60.44,-37.821 -58.449,-40.516 -56.494,-43.246C-55.957,-43.997 -55.331,-44.701 -55.378,-45.9C-56.717,-47.138 -58.145,-48.487 -59.602,-49.802C-65.74,-55.344 -64.139,-60.959 -60.192,-65.654C-57.159,-69.262 -54.359,-73.171 -50.443,-76.034C-52.203,-78.267 -54.613,-79.494 -56.677,-80.965C-67.32,-88.551 -65.045,-97.556 -56.042,-105.208C-52.542,-108.183 -48.881,-110.968 -45.242,-113.882C-46.03,-117.53 -49.309,-119.348 -50.708,-122.421C-53.5,-128.554 -52.368,-133.662 -46.958,-137.753C-42.495,-141.128 -37.465,-143.443 -32.375,-145.656C-31.695,-145.952 -31.069,-146.372 -30.272,-146.815C-31.783,-150.962 -33.841,-154.751 -34.632,-159.016C-35.677,-164.645 -33.607,-168.469 -28.361,-170.737C-21.576,-173.669 -14.539,-175.673 -7.339,-177.247C-5.58,-177.631 -4.031,-177.786 -2.497,-176.774C-1.665,-175.564 -0.833,-174.354 0,-173.144" style="fill:rgb(255,70,0);fill-rule:nonzero;"/>
        </g>
        <g transform="matrix(1,0,0,1,626.638,299.696)">
            <path d="M0,21.252C-1.881,23.536 -3.367,26.244 -6.168,26.121C-9.178,25.988 -11.497,24.188 -12.524,20.96C-14.417,15.01 -15.497,8.919 -15.766,2.716C-15.907,-0.534 -13.808,-2.807 -10.948,-3.904C-8.111,-4.992 -6.066,-3.542 -4.496,-1.01C-0.869,4.835 1.196,11.063 0.681,17.999C0.591,19.205 0.187,20.388 0,21.252" style="fill:rgb(253,153,0);fill-rule:nonzero;"/>
        </g>
        <g transform="matrix(1,0,0,1,595.826,299.712)">
            <path d="M0,26.248C-2.593,25.229 -3.511,22.648 -4.165,20.201C-5.381,15.643 -6.316,10.996 -7.105,6.341C-7.626,3.27 -5.529,-0.444 -3.188,-1.363C-0.528,-2.407 2.853,-1.357 4.888,1.491C9.293,7.657 11.345,14.468 9.617,22.036C8.518,26.856 4.364,28.655 0,26.248" style="fill:rgb(253,153,0);fill-rule:nonzero;"/>
        </g>
        <g transform="matrix(1,0,0,1,569.753,310.175)">
            <path d="M0,23.931C-3.259,22.675 -4.117,19.384 -5.987,17.038C-8.053,14.447 -9.589,11.405 -11.165,8.458C-14.023,3.113 -11.407,-0.907 -5.412,-1.04C-1.854,-1.118 0.64,-0.245 2.332,3.139C4.03,6.534 6.418,9.579 8.19,12.943C10.493,17.312 8.646,22.84 4.71,24.281C3.024,24.898 1.433,25.049 0,23.931" style="fill:rgb(253,153,0);fill-rule:nonzero;"/>
        </g>
        <g transform="matrix(1,0,0,1,547.051,345.529)">
            <path d="M0,-16.365C1.992,-19.315 4.647,-19.268 7.617,-18.132C12.986,-16.079 16.185,-12 18.06,-6.803C20.165,-0.97 14.92,2.95 10.5,1.497C6.886,0.309 4.019,-1.551 2.194,-4.914C2.753,-5.976 5.159,-5.621 4.231,-8.068C2.709,-8.47 0.485,-7.284 -0.789,-9.27C-0.971,-9.804 -1.153,-10.338 -1.335,-10.872C-0.224,-12.541 0.375,-14.335 0,-16.365" style="fill:rgb(253,153,0);fill-rule:nonzero;"/>
        </g>
        <g transform="matrix(1,0,0,1,1411.18,188.174)">
            <path d="M0,-0.432C2.799,4.863 -0.685,10.858 -6.652,10.819C-13.238,10.776 -18.833,8.14 -23.855,3.99C-26.765,1.587 -26.987,-1.367 -26.068,-4.615C-25.144,-7.884 -22.66,-9.497 -19.487,-10.05C-12.377,-11.29 -3.365,-6.799 0,-0.432" style="fill:rgb(255,70,0);fill-rule:nonzero;"/>
        </g>
        <g transform="matrix(1,0,0,1,1454.68,118.366)">
            <path d="M0,23.762C-4.699,25.93 -9.667,23.348 -10.537,18.187C-11.256,13.92 -11.292,9.692 -10.173,5.409C-8.906,0.56 -7.143,-1.266 -2.214,-1.781C1.486,-2.168 5.201,0.208 6.793,3.98C9.262,9.831 5.321,21.307 0,23.762" style="fill:rgb(255,70,0);fill-rule:nonzero;"/>
        </g>
        <g transform="matrix(1,0,0,1,1484.98,131.932)">
            <path d="M0,20.658C-3.142,22.375 -6.323,22.778 -9.468,20.734C-12.611,18.689 -13.51,15.602 -13.231,12.049C-12.703,5.323 -8.763,0.504 -2.739,-0.808C3.285,-2.12 8.588,2.597 8.006,8.753C7.551,13.568 4.324,18.364 0,20.658" style="fill:rgb(255,70,0);fill-rule:nonzero;"/>
        </g>
        <g transform="matrix(1,0,0,1,1417.11,132.059)">
            <path d="M0,6.525C-1.977,3.691 -2.623,0.629 -1.606,-2.517C0.54,-9.159 6.183,-10.678 12.201,-6.96C18.008,-3.372 20.229,7.697 16.107,12.955C13.637,16.108 9.137,17.203 6.529,14.476C4.153,11.992 1.064,9.971 0,6.525" style="fill:rgb(255,70,0);fill-rule:nonzero;"/>
        </g>
        <g transform="matrix(1,0,0,1,1418.01,160.403)">
            <path d="M0,-4.366C2.341,-0.164 2.196,3.251 -0.446,6.221C-2.836,8.907 -6.212,9.397 -10.546,7.978C-13.655,6.961 -16.151,5.031 -18.395,2.857C-21.83,-0.474 -22.086,-4.993 -19.437,-8.849C-16.843,-12.628 -12.374,-13.763 -7.919,-11.776C-4.803,-10.386 -1.774,-7.553 0,-4.366" style="fill:rgb(255,70,0);fill-rule:nonzero;"/>
        </g>
        <g transform="matrix(1,0,0,1,1492.82,208.859)">
            <path d="M0,-15.002C6.985,-18.684 12.209,-17.881 15.137,-13.139C18.202,-8.174 17.596,-4.389 13.104,-0.443C9.597,2.637 2.888,3.682 -0.865,1.407C-3.549,-0.22 -6.161,-2.095 -6.083,-5.889C-5.985,-10.641 -3.516,-13.591 0,-15.002" style="fill:rgb(255,70,0);fill-rule:nonzero;"/>
        </g>
        <g transform="matrix(1,0,0,1,1492.88,179.167)">
            <path d="M0,-15.911C3.395,-18.232 7.498,-18.34 10.895,-15.78C13.346,-13.931 14.908,-10.788 14.182,-7.285C13.232,-2.705 8.309,1.495 3.514,1.925C-2.107,2.429 -5.609,0.069 -6.976,-5.144C-7.967,-8.922 -5.372,-13.063 0,-15.911" style="fill:rgb(255,70,0);fill-rule:nonzero;"/>
        </g>
        <g transform="matrix(-0.847516,0.530771,0.530771,0.847516,1498.48,239.197)">
            <path d="M4.92,-17.631C-1.034,-17.221 -5.512,-12.411 -5.131,-6.836C-4.801,-2.002 -0.318,1.65 4.92,1.352C11.012,1.007 15.358,-3.719 14.885,-9.484C14.452,-14.748 10.458,-18.013 4.92,-17.631" style="fill:rgb(255,70,0);fill-rule:nonzero;"/>
        </g>
        <g transform="matrix(-0.417541,-0.908658,-0.908658,0.417541,1473.14,263.478)">
            <path d="M-9.212,-14.489C-13.435,-14.665 -18.481,-9.825 -18.816,-5.278C-19.183,-0.318 -13.998,5.657 -9.212,5.789C-4.701,5.914 0.211,1.2 0.401,-3.433C0.604,-8.437 -4.486,-14.292 -9.212,-14.489" style="fill:rgb(255,70,0);fill-rule:nonzero;"/>
        </g>
        <g transform="matrix(0.484032,0.87505,0.87505,-0.484032,1462.2,297.785)">
            <path d="M8.417,-5.268C3.03,-5.226 -1.323,-0.648 -0.926,4.913C-0.583,9.717 3.3,14.861 8.417,14.718C13.71,14.572 17.686,10.589 17.685,4.938C17.684,-1.164 13.006,-6.022 8.417,-5.268" style="fill:rgb(255,70,0);fill-rule:nonzero;"/>
        </g>
        <g transform="matrix(0.558745,-0.829339,-0.829339,-0.558745,506.821,497.141)">
            <path d="M-11.141,-5.345C-18.181,-5.187 -25.161,1.961 -24.893,8.737C-24.642,15.035 -17.901,20.976 -11.141,20.857C-3.312,20.718 3.963,13.651 3.675,6.464C3.417,-0.017 -3.484,-5.516 -11.141,-5.345" style="fill:rgb(255,70,0);fill-rule:nonzero;"/>
        </g>
        <g transform="matrix(0.551797,-0.833979,-0.833979,-0.551797,497.874,537.433)">
            <path d="M-11.208,-5.383C-18.304,-5.275 -25.083,1.15 -24.969,7.662C-24.846,14.731 -19.115,19.637 -11.208,19.445C-3.094,19.247 4.815,12.876 4.731,6.604C4.657,1.106 -4.116,-5.492 -11.208,-5.383" style="fill:rgb(255,70,0);fill-rule:nonzero;"/>
        </g>
        <g transform="matrix(1,0,0,1,495.766,470.519)">
            <path d="M0,-18.43C3.171,-22.507 7.345,-24.21 12.495,-24.254C17.377,-24.296 21.833,-23.911 23.921,-18.592C26.05,-13.168 24.389,-5.666 20.453,-2.15C11.481,5.866 -0.997,0.465 -1.771,-9.028C-1.816,-9.572 -2.517,-10.062 -2.913,-10.577C-1.941,-13.195 -0.971,-15.812 0,-18.43" style="fill:rgb(255,70,0);fill-rule:nonzero;"/>
        </g>
        <g transform="matrix(0.532878,-0.846192,-0.846192,-0.532878,531.298,417.843)">
            <path d="M-10.674,-5.91C-17.808,-5.626 -23.661,0.835 -23.29,8.123C-22.897,15.826 -17.424,19.292 -10.674,19.818C-4.482,20.301 2.539,12.18 2.316,5.572C2.116,-0.379 -4.424,-6.16 -10.674,-5.91" style="fill:rgb(255,70,0);fill-rule:nonzero;"/>
        </g>
        <g transform="matrix(-0.804425,-0.594054,-0.594054,0.804425,523.31,392.425)">
            <path d="M-6.001,-18.664C-12.997,-18.887 -17.173,-15.316 -17.406,-8.911C-17.632,-2.694 -12.391,2.794 -6.001,3.031C0.396,3.268 4.956,-1.275 5.064,-7.99C5.176,-15.052 1.687,-18.418 -6.001,-18.664" style="fill:rgb(255,70,0);fill-rule:nonzero;"/>
        </g>
        <g transform="matrix(1,0,0,1,415.697,625.282)">
            <path d="M0,31.248C-5.793,30.657 -9.976,27.365 -13.18,22.865C-15.421,19.719 -18.099,16.977 -20.504,13.991C-21.867,12.299 -23.018,10.502 -24.146,8.665C-25.753,6.046 -25.513,3.388 -23.222,1.659C-21.028,0.005 -18.386,0 -16.181,2.365C-13.046,5.727 -9.543,8.777 -6.68,12.348C-4.946,14.509 -3.197,16.758 -1.19,18.513C2.515,21.754 2.594,25.128 0.69,29.123C0.366,29.802 0.217,30.563 0,31.248" style="fill:rgb(253,153,0);fill-rule:nonzero;"/>
        </g>
        <g transform="matrix(1,0,0,1,421.75,626.4)">
            <path d="M0,10.992C-2.693,6.463 -4.665,1.635 -5.581,-3.553C-6.031,-6.107 -6.139,-8.833 -3.232,-10.252C-0.748,-11.464 2.82,-10.098 4.584,-7.217C6.839,-3.534 8.473,0.464 10.124,4.445C11.301,7.283 12.481,10.12 13.685,12.947C15.144,16.377 14.394,19.635 11.809,20.981C8.979,22.456 5.654,21.245 3.71,17.907C2.395,15.648 1.231,13.301 0,10.992" style="fill:rgb(253,153,0);fill-rule:nonzero;"/>
        </g>
        <g transform="matrix(1,0,0,1,455.307,640.454)">
            <path d="M0,-23.035C2.104,-16.036 3.967,-8.947 4.821,-1.678C5.075,0.485 4.16,2.934 1.451,3.702C-1.188,4.451 -5.071,2.694 -6.212,-0.013C-8.946,-6.497 -10.565,-13.276 -10.777,-20.329C-10.859,-23.064 -8.326,-27.199 -6.47,-27.306C-3.389,-27.486 -1.262,-25.883 0,-23.035" style="fill:rgb(253,153,0);fill-rule:nonzero;"/>
        </g>
        <g transform="matrix(1,0,0,1,396.971,658.459)">
            <path d="M0,12.034C-0.132,12.113 -0.264,12.261 -0.396,12.262C-7.524,12.337 -14.731,12.777 -21.523,10.086C-24.327,8.974 -24.981,6.036 -24.425,3.448C-23.929,1.142 -22.063,-0.167 -19.322,-0.346C-13.207,-0.743 -7.166,-0.302 -1.204,0.875C1.366,1.382 4.187,2.753 4.186,5.787C4.185,8.401 2.388,10.606 0,12.034" style="fill:rgb(253,153,0);fill-rule:nonzero;"/>
        </g>
        <g transform="matrix(1,0,0,1,400.038,683.248)">
            <path d="M0,6.712C-3.047,8.095 -7.05,10.026 -11.148,11.727C-13.564,12.729 -17.155,10.844 -18.702,8.068C-20.028,5.689 -19.384,2.405 -16.92,0.832C-11.428,-2.675 -5.247,-4.573 1.09,-5.637C3.355,-6.017 6.135,-4.934 7.037,-2.291C7.923,0.304 6.73,2.448 4.417,3.912C3.253,4.649 2.09,5.387 0,6.712" style="fill:rgb(253,153,0);fill-rule:nonzero;"/>
        </g>
        <g transform="matrix(1,0,0,1,399.806,712.583)">
            <path d="M0,-9.426C2.914,-10.794 5.697,-12.409 9.042,-12.665C11.617,-12.862 13.629,-12.136 14.67,-9.733C15.573,-7.65 15.238,-5.756 13.688,-3.853C10.241,0.38 5.505,1.948 0.493,2.944C-1.987,3.436 -5.753,0.939 -6.396,-1.459C-7.182,-4.388 -6.033,-6.468 -3.257,-7.705C-2.138,-8.203 -1.083,-8.848 0,-9.426" style="fill:rgb(253,153,0);fill-rule:nonzero;"/>
        </g>
        <g transform="matrix(1,0,0,1,1520.26,724.56)">
            <path d="M0,-42.992C-0.706,-46.4 -1.243,-49.854 -2.158,-53.206C-3.348,-57.562 -5.673,-58.536 -12.391,-57.936C-13.697,-55.787 -14.603,-53.498 -14.811,-50.967C-14.452,-49.955 -14.505,-49.013 -15.283,-48.193C-13.145,-46.045 -15.215,-43.23 -14.134,-40.915C-11.726,-37.414 -13.506,-34.129 -14.654,-30.81C-14.45,-28.758 -14.438,-26.726 -15.366,-24.807C-16.783,-12.752 -23.562,-2.626 -35.507,0.1C-42.066,1.596 -48.606,-0.013 -54.957,-1.972C-55.382,-2.104 -55.723,-2.488 -56.141,-2.666C-59.716,-4.179 -63.224,-3.769 -64.643,-1.692C-66.258,0.671 -65.359,3.293 -62.194,6.618C-55.381,13.778 -46.863,15.544 -37.431,14.98C-25.012,14.236 -15.541,8.453 -8.487,-1.555C-4.381,-7.382 -2.292,-14.104 -0.26,-20.835C0.05,-21.861 0.4,-22.876 0.732,-23.895C0.833,-26.779 0.934,-29.664 1.034,-32.549C0.456,-33.701 0.538,-34.837 1.12,-35.96C1.711,-38.458 -0.285,-40.543 0,-42.992" style="fill:rgb(255,70,0);fill-rule:nonzero;"/>
        </g>
        <g transform="matrix(1,0,0,1,1540.6,760.937)">
            <path d="M0,-49.138C-2.211,-49.104 -3.848,-50.755 -5.911,-51.155C-6.967,-50.137 -8.478,-50.366 -9.854,-49.762C-10.392,-48.306 -10.781,-46.651 -12.193,-45.61C-13.13,-41.367 -14.326,-37.272 -16.16,-33.253C-18.149,-28.894 -20.315,-24.864 -23.887,-21.626C-30.634,-15.508 -38.673,-12.965 -47.632,-12.259C-55.099,-11.67 -62.368,-12.743 -69.691,-13.653C-70.607,-13.766 -71.529,-13.856 -72.451,-13.907C-75.234,-14.062 -77.263,-12.789 -78.193,-10.247C-79.106,-7.749 -77.818,-5.797 -75.925,-4.222C-72.213,-1.134 -67.593,-0.237 -63.095,0.466C-53.159,2.017 -43.164,1.735 -33.375,-0.609C-22.305,-3.259 -14.052,-10.09 -7.542,-19.21C-5.915,-23.715 -1.715,-26.793 -0.666,-31.617C-0.375,-35.199 -0.176,-38.794 0.957,-42.247C1.036,-44.6 1.229,-46.967 0,-49.138" style="fill:rgb(255,70,0);fill-rule:nonzero;"/>
        </g>
        <g transform="matrix(0.508851,0.860855,0.860855,-0.508851,1521.39,429.119)">
            <path d="M10.171,-6.451C2.771,-6.566 -2.344,-2.071 -2.335,4.541C-2.326,11.67 3.281,17.684 10.171,17.955C18.154,18.268 23.256,13.562 23.269,5.872C23.281,-1.179 17.803,-6.332 10.171,-6.451" style="fill:rgb(253,153,0);fill-rule:nonzero;"/>
        </g>
        <g transform="matrix(0.483666,0.875253,0.875253,-0.483666,1532.05,475.904)">
            <path d="M10.799,-6.626C4.113,-6.759 -1.284,-1.48 -1.337,5.244C-1.383,11.052 5.37,18.648 10.799,18.896C16.614,19.159 22.587,12.953 22.757,6.47C22.932,-0.245 17.222,-6.498 10.799,-6.626" style="fill:rgb(253,153,0);fill-rule:nonzero;"/>
        </g>
        <g transform="matrix(0.476275,0.879296,0.879296,-0.476275,1482.5,410.937)">
            <path d="M10.075,-6.059C2.492,-6.374 -0.48,-3.597 -0.847,4.146C-1.168,10.928 4.196,17.755 10.075,18.049C15.723,18.332 21.572,12.593 21.894,6.617C22.18,1.34 16.625,-7.457 10.075,-6.059" style="fill:rgb(253,153,0);fill-rule:nonzero;"/>
        </g>
        <g transform="matrix(0.84811,-0.52982,-0.52982,-0.84811,1468.65,426.342)">
            <path d="M-6.099,-1.832C-12.89,-1.793 -17.792,2.829 -17.638,9.387C-17.474,16.456 -13.757,20.59 -6.099,20.733C0.998,20.864 5.993,15.426 5.369,9.426C4.643,2.439 0.831,-1.87 -6.099,-1.832" style="fill:rgb(253,153,0);fill-rule:nonzero;"/>
        </g>
        <g transform="matrix(1,0,0,1,1037.7,188.474)">
            <path d="M0,3.741C-1.191,3.048 -2.342,2.267 -3.584,1.68C-6.115,0.486 -7.937,-1.192 -7.773,-4.219C-7.614,-7.162 -5.857,-8.939 -3.219,-9.961C-2.22,-10.348 -1.211,-10.707 -0.207,-11.079C8.186,-9.559 16.469,-7.713 23.813,-3.056C25.983,-1.672 28.243,-0.409 30.302,1.123C33.591,3.572 34.596,7.584 32.933,10.776C31.377,13.759 27.363,14.82 23.367,13.319C19.661,11.927 15.948,10.552 12.239,9.169C8.403,6.81 4.298,5.058 0,3.741" style="fill:rgb(253,153,0);fill-rule:nonzero;"/>
        </g>
        <g transform="matrix(1,0,0,1,1066.28,195.021)">
            <path d="M0,46.871C-4.404,47.59 -7.511,45.445 -10.664,42.642C-19.315,34.956 -27.996,27.173 -38.433,21.958C-46.44,17.956 -55.113,15.812 -64.094,15.214C-66.438,15.058 -68.717,14.783 -70.665,13.391C-73.214,11.569 -74.644,9.265 -73.923,5.917C-73.241,2.751 -70.652,1.756 -68.197,1.354C-55.549,-0.719 -43.11,-0.485 -31.428,5.795C-30.794,6.136 -29.944,6.078 -29.195,6.205C-28.205,7.932 -26.476,8.502 -24.736,9.056C-14.4,14.645 -5.507,21.891 0.805,31.924C4.743,38.183 4.462,40.942 0.074,46.868L0,46.871Z" style="fill:rgb(253,153,0);fill-rule:nonzero;"/>
        </g>
        <g transform="matrix(1,0,0,1,1048.32,218.642)">
            <path d="M0,39.394C-3.51,39.092 -5.711,36.633 -7.962,34.388C-13.811,28.557 -19.793,22.946 -27.58,19.709C-34.338,16.9 -41.325,15.673 -48.656,16.136C-52.022,16.349 -55.418,16.073 -58.801,16.083C-62.025,16.093 -63.553,14.178 -64.023,11.332C-64.505,8.415 -63.217,6.082 -60.554,4.967C-51.845,1.323 -42.727,0 -33.521,2.227C-24.746,4.351 -16.409,7.714 -9.109,13.344C-3.698,17.516 1.023,22.287 4.373,28.203C5.726,30.591 7.052,33.485 5.033,36.381C1.956,35.048 1.015,37.281 0,39.394" style="fill:rgb(253,153,0);fill-rule:nonzero;"/>
        </g>
        <g transform="matrix(1,0,0,1,746.001,891.6)">
            <path d="M0,-22.426C0.807,-25.812 1.786,-29.168 2.378,-32.591C3.149,-37.04 1.456,-38.908 -4.881,-41.215C-6.977,-39.822 -8.767,-38.134 -10.029,-35.931C-10.133,-34.862 -10.582,-34.03 -11.633,-33.619C-10.608,-30.766 -13.677,-29.096 -13.68,-26.54C-12.985,-22.348 -15.99,-20.128 -18.437,-17.612C-19.123,-15.665 -19.974,-13.821 -21.629,-12.477C-28.025,-2.16 -38.458,4.134 -50.432,1.535C-57.007,0.108 -62.247,-4.124 -67.167,-8.592C-67.497,-8.891 -67.642,-9.384 -67.945,-9.721C-70.541,-12.609 -73.891,-13.725 -76.058,-12.447C-78.522,-10.991 -78.821,-8.235 -77.365,-3.881C-74.232,5.492 -67.269,10.705 -58.486,14.194C-46.924,18.789 -35.896,17.569 -25.262,11.498C-19.073,7.964 -14.329,2.761 -9.634,-2.472C-8.918,-3.27 -8.17,-4.039 -7.437,-4.822C-6.123,-7.391 -4.808,-9.96 -3.493,-12.53C-3.527,-13.819 -2.972,-14.813 -1.969,-15.583C-0.374,-17.594 -1.296,-20.329 0,-22.426" style="fill:rgb(255,70,0);fill-rule:nonzero;"/>
        </g>
        <g transform="matrix(1,0,0,1,751.604,932.522)">
            <path d="M0,-27.341C-2.017,-28.248 -2.798,-30.438 -4.498,-31.675C-5.885,-31.201 -7.156,-32.049 -8.659,-32.086C-9.763,-30.995 -10.819,-29.662 -12.539,-29.318C-15.187,-25.874 -18.007,-22.673 -21.372,-19.812C-25.023,-16.707 -28.694,-13.977 -33.301,-12.56C-42.006,-9.881 -50.365,-10.988 -58.778,-14.149C-65.79,-16.783 -71.917,-20.839 -78.163,-24.768C-78.945,-25.26 -79.741,-25.732 -80.554,-26.169C-83.009,-27.49 -85.386,-27.198 -87.307,-25.29C-89.194,-23.416 -88.854,-21.102 -87.808,-18.872C-85.757,-14.501 -81.954,-11.729 -78.178,-9.185C-69.839,-3.566 -60.668,0.419 -50.809,2.449C-39.659,4.745 -29.289,2.058 -19.524,-3.439C-16.141,-6.827 -11.032,-7.834 -8.035,-11.758C-6.252,-14.877 -4.547,-18.049 -2.056,-20.695C-0.986,-22.792 0.191,-24.855 0,-27.341" style="fill:rgb(255,70,0);fill-rule:nonzero;"/>
        </g>
        <g transform="matrix(1,0,0,1,929.429,912.318)">
            <path d="M0,-21.122C1.346,-21.419 2.722,-21.622 4.033,-22.032C6.704,-22.866 9.181,-22.865 11.11,-20.526C12.986,-18.252 12.895,-15.755 11.645,-13.217C11.172,-12.256 10.673,-11.309 10.186,-10.355C2.98,-5.792 -4.367,-1.543 -12.925,0.002C-15.458,0.452 -17.977,1.053 -20.529,1.319C-24.607,1.744 -28.063,-0.528 -29,-4.004C-29.875,-7.253 -27.639,-10.751 -23.682,-12.351C-20.012,-13.836 -16.349,-15.337 -12.683,-16.831C-8.262,-17.691 -4.055,-19.182 0,-21.122" style="fill:rgb(253,153,0);fill-rule:nonzero;"/>
        </g>
        <g transform="matrix(1,0,0,1,874.765,865.054)">
            <path d="M0,8.929C2.755,5.418 6.493,4.894 10.711,4.822C22.283,4.621 33.94,4.473 45.152,1.245C53.755,-1.23 61.589,-5.525 68.604,-11.165C70.435,-12.636 72.298,-13.976 74.675,-14.271C77.784,-14.656 80.396,-13.927 82.132,-10.976C83.774,-8.185 82.542,-5.7 81.007,-3.742C73.101,6.347 63.789,14.597 50.939,17.883C50.242,18.062 49.656,18.679 49.018,19.092C47.121,18.492 45.462,19.243 43.807,20.014C32.416,22.898 20.964,23.585 9.527,20.475C2.391,18.533 0.73,16.314 -0.052,8.982L0,8.929Z" style="fill:rgb(253,153,0);fill-rule:nonzero;"/>
        </g>
        <g transform="matrix(1,0,0,1,877.05,838.699)">
            <path d="M0,11.246C2.788,9.092 6.073,9.412 9.25,9.54C17.501,9.871 25.703,9.951 33.625,7.061C40.5,4.554 46.474,0.726 51.556,-4.577C53.89,-7.013 56.576,-9.108 59.058,-11.406C61.425,-13.597 63.846,-13.222 66.118,-11.445C68.447,-9.625 69.079,-7.036 67.874,-4.412C63.931,4.166 58.116,11.312 49.834,15.905C41.938,20.283 33.524,23.453 24.341,24.252C17.534,24.843 10.829,24.529 4.358,22.442C1.746,21.6 -1.189,20.369 -1.664,16.87C1.503,15.768 0.684,13.487 0,11.246" style="fill:rgb(253,153,0);fill-rule:nonzero;"/>
        </g>
        <g transform="matrix(-0.793683,-0.608332,-0.608332,0.793683,566.035,928.844)">
            <path d="M-5.673,-17.872C-12.032,-16.951 -17.164,-10.834 -16.259,-5.256C-15.489,-0.512 -10.91,2.168 -5.673,1.945C0.213,1.692 5.219,-6.225 4.29,-10.99C3.365,-15.735 -0.545,-18.615 -5.673,-17.872" style="fill:rgb(253,153,0);fill-rule:nonzero;"/>
        </g>
        <g transform="matrix(-0.626961,-0.77905,-0.77905,0.626961,625.694,903.038)">
            <path d="M-7.649,-14.657C-13.888,-15.17 -17.431,-12.506 -17.966,-6.902C-18.512,-1.166 -13.97,3.703 -7.649,4.155C-1.497,4.595 3.077,1.26 3.389,-4.022C3.625,-8.027 0.047,-14.547 -7.649,-14.657" style="fill:rgb(253,153,0);fill-rule:nonzero;"/>
        </g>
        <g transform="matrix(0.692997,0.720941,0.720941,-0.692997,593.837,920.153)">
            <path d="M6.599,-2.954C1.382,-2.815 -3.023,1.752 -2.959,6.952C-2.9,11.625 1.366,15.254 6.599,15.083C12.484,14.89 16.797,10.894 16.614,5.805C16.439,0.922 11.847,-3.093 6.599,-2.954" style="fill:rgb(253,153,0);fill-rule:nonzero;"/>
        </g>
        <g transform="matrix(1,0,0,1,727.781,609.92)">
            <path d="M0,21.601C-4.948,25.034 -9.437,25.351 -14.21,21.813C-23.97,14.58 -35.43,12.866 -47.144,12.373C-57.436,11.942 -67.661,10.756 -77.922,9.985C-79.163,9.892 -80.282,9.513 -81.406,8.916C-85.036,6.989 -85.704,3.023 -82.604,0.368C-80.368,-1.549 -77.749,-2.693 -74.711,-3C-67.31,-3.75 -59.937,-3.179 -52.58,-2.607C-42.813,-1.848 -33.065,-0.867 -23.748,2.559C-16.507,5.22 -10.102,9.381 -3.962,13.855C-1.806,15.426 -0.264,18.29 0,21.601" style="fill:rgb(255,70,0);fill-rule:nonzero;"/>
        </g>
        <g transform="matrix(1,0,0,1,665.731,659.004)">
            <path d="M0,-29.115C19.057,-28.216 36.51,-24.886 50.418,-11.561C54.006,-8.125 54.937,-4.842 53.052,-2.397C51.191,0.017 46.184,-0.241 42.69,-3.043C34.511,-9.603 24.963,-12.838 14.816,-14.644C9.395,-15.609 3.952,-16.465 -1.454,-17.512C-6.541,-18.499 -7.695,-19.798 -7.507,-23.779C-7.36,-26.892 -5.096,-28.638 -0.624,-29.078C-0.165,-29.123 0.298,-29.132 0,-29.115" style="fill:rgb(255,70,0);fill-rule:nonzero;"/>
        </g>
        <g transform="matrix(1,0,0,1,665.807,685.857)">
            <path d="M0,-30.603C5.031,-30.872 9.011,-28.635 13.213,-27.37C22.372,-24.612 30.839,-20.629 37.347,-13.232C38.595,-11.813 39.38,-10.209 40.31,-8.665C41.862,-6.082 41.335,-3.36 39.242,-1.554C37.128,0.269 34.331,0.136 31.996,-1.546C30.29,-2.776 28.824,-4.341 27.258,-5.764C21.705,-10.812 14.742,-13.217 7.994,-16.011C4.775,-17.344 1.442,-18.411 -1.732,-19.837C-5.635,-21.592 -6.797,-23.547 -6.094,-26.794C-5.321,-30.367 -2.072,-29.904 0,-30.603" style="fill:rgb(255,70,0);fill-rule:nonzero;"/>
        </g>
        <g transform="matrix(0.999894,-0.0145882,-0.0145882,-0.999894,1091.82,831.427)">
            <path d="M-0.182,-0.007C-5.377,-0.925 -12.646,4.086 -13.599,9.241C-14.833,15.924 -8.054,23.858 -0.182,24.945C6.047,25.804 11.746,22.012 12.7,16.372C13.772,10.023 6.863,1.24 -0.182,-0.007" style="fill:rgb(255,70,0);fill-rule:nonzero;"/>
        </g>
        <g transform="matrix(0.341264,0.939967,0.939967,-0.341264,1141.13,760.662)">
            <path d="M9.481,-7.377C1.132,-6.323 -2.319,-2.346 -1.434,5.204C-0.712,11.366 3.943,15.367 9.481,14.585C15.344,13.756 21.796,6.052 21.261,0.518C20.701,-5.263 16.27,-8.233 9.481,-7.377" style="fill:rgb(255,70,0);fill-rule:nonzero;"/>
        </g>
        <g transform="matrix(-0.960837,0.277114,0.277114,0.960837,1028.64,826.801)">
            <path d="M1.893,-22.401C-4.475,-21.993 -8.781,-16.617 -8.356,-9.606C-7.95,-2.947 -3.995,1.013 1.893,0.659C8.049,0.288 13.632,-6.198 13.341,-12.635C13.051,-19.043 8.61,-22.83 1.893,-22.401" style="fill:rgb(255,70,0);fill-rule:nonzero;"/>
        </g>
        <g transform="matrix(-0.239728,-0.97084,-0.97084,0.239728,1052.09,819.499)">
            <path d="M-8.913,-11.756C-15.526,-11.601 -18.91,-8.4 -18.892,-2.319C-18.875,3.604 -14.782,7.539 -8.913,7.274C-3.403,7.025 0.989,2.507 0.936,-2.855C0.885,-7.86 -3.564,-11.882 -8.913,-11.756" style="fill:rgb(255,70,0);fill-rule:nonzero;"/>
        </g>
        <g transform="matrix(1,0,0,1,1286.51,759.721)">
            <path d="M0,20.631C-5.601,26.081 -8.971,23.272 -12.598,18.351C-16.042,13.677 -19.06,8.685 -22.186,3.782C-24.293,0.476 -24.227,-2.503 -22.187,-4.133C-20.57,-5.424 -14.997,-5.45 -13.41,-3.869C-8.534,0.987 -4.214,6.343 -0.571,12.169C1.008,14.695 0.554,17.754 0,20.631" style="fill:rgb(253,153,0);fill-rule:nonzero;"/>
        </g>
        <g transform="matrix(1,0,0,1,1260.81,772.574)">
            <path d="M0,27.608C-5.117,28.787 -6.804,24.467 -8.939,21.394C-11.829,17.236 -12.795,12.144 -14.403,7.404C-15.299,4.767 -13.854,2.392 -11.725,0.652C-9.484,-1.179 -7.335,-0.237 -5.479,1.257C1.036,6.502 4.251,13.668 5.62,21.667C6.189,24.99 3.761,27.219 0,27.608" style="fill:rgb(253,153,0);fill-rule:nonzero;"/>
        </g>
        <g transform="matrix(1,0,0,1,1195.9,776.481)">
            <path d="M0,17.247C-0.975,13.393 2.01,10.869 3.534,8.074C5.704,4.097 8.591,0.453 11.341,-3.225C13.349,-5.911 15.791,-5.491 18.292,-5.589C19.465,-5.634 20.266,-4.756 20.498,-3.577C21.007,-1.002 21.539,1.579 20.037,4.05C17.016,9.022 14.079,14.048 10.973,18.966C9.88,20.697 7.992,21.68 6.076,22.25C3.025,23.158 0.364,20.871 0,17.247" style="fill:rgb(253,153,0);fill-rule:nonzero;"/>
        </g>
        <g transform="matrix(1,0,0,1,1231.88,804.134)">
            <path d="M0,-28.339C6.167,-26.62 6.876,-25.348 7.181,-19.651C7.437,-14.872 6.977,-10.208 6.629,-5.482C6.428,-2.739 5.025,-1.601 2.992,-0.843C0.729,0 -1.661,-0.085 -3.389,-2.029C-4.823,-3.643 -5.827,-5.712 -5.793,-7.866C-5.726,-12.126 -5.486,-16.404 -4.962,-20.631C-4.575,-23.75 -2.829,-26.293 0,-28.339" style="fill:rgb(253,153,0);fill-rule:nonzero;"/>
        </g>
        <g transform="matrix(0.771442,0.6363,0.6363,-0.771442,851.927,261.541)">
            <path d="M6.383,-2.234C0.025,-1.313 -5.108,4.803 -4.202,10.383C-3.433,15.127 1.147,17.806 6.383,17.582C12.27,17.33 17.275,9.412 16.346,4.648C15.421,-0.097 11.51,-2.976 6.383,-2.234" style="fill:rgb(253,153,0);fill-rule:nonzero;"/>
        </g>
        <g transform="matrix(0.598698,0.800975,0.800975,-0.598698,793.053,275.295)">
            <path d="M7.291,-3.874C1.052,-4.388 -2.491,-1.724 -3.026,3.88C-3.573,9.616 0.971,14.485 7.291,14.937C13.443,15.377 18.017,12.042 18.329,6.761C18.566,2.757 14.987,-3.765 7.291,-3.874" style="fill:rgb(253,153,0);fill-rule:nonzero;"/>
        </g>
        <g transform="matrix(-0.66679,-0.745246,-0.745246,0.66679,824.855,262.836)">
            <path d="M-7.049,-15.201C-12.266,-15.062 -16.673,-10.496 -16.607,-5.296C-16.548,-0.623 -12.282,3.006 -7.049,2.835C-1.165,2.642 3.15,-1.354 2.967,-6.443C2.792,-11.326 -1.801,-15.341 -7.049,-15.201" style="fill:rgb(253,153,0);fill-rule:nonzero;"/>
        </g>
        <g transform="matrix(-0.991524,0.129923,0.129923,0.991524,1302.57,169.108)">
            <path d="M2.265,-23.236C-2.568,-24.09 -9.331,-19.428 -10.217,-14.632C-11.365,-8.414 -5.058,-1.033 2.265,-0.022C8.06,0.778 13.363,-2.751 14.249,-7.998C15.247,-13.904 8.819,-22.076 2.265,-23.236" style="fill:rgb(253,153,0);fill-rule:nonzero;"/>
        </g>
        <g transform="matrix(-0.447546,-0.894261,-0.894261,0.447546,1245.25,203.997)">
            <path d="M-9.111,-13.456C-16.879,-12.475 -20.088,-8.775 -19.265,-1.751C-18.592,3.983 -14.262,7.704 -9.111,6.976C-3.655,6.204 2.347,-0.962 1.849,-6.111C1.328,-11.49 -2.795,-14.253 -9.111,-13.456" style="fill:rgb(253,153,0);fill-rule:nonzero;"/>
        </g>
        <g transform="matrix(0.922454,-0.386108,-0.386108,-0.922454,1369.23,160.295)">
            <path d="M-4.086,-0.599C-10.01,-0.22 -14.017,4.78 -13.621,11.304C-13.245,17.499 -9.565,21.184 -4.086,20.853C1.639,20.509 6.835,14.476 6.563,8.487C6.294,2.526 2.164,-0.998 -4.086,-0.599" style="fill:rgb(253,153,0);fill-rule:nonzero;"/>
        </g>
        <g transform="matrix(0.350201,0.936675,0.936675,-0.350201,1324.23,139.566)">
            <path d="M8.25,-5.475C2.098,-5.33 -1.051,-2.352 -1.034,3.305C-1.018,8.817 2.79,12.476 8.25,12.229C13.376,11.997 17.462,7.794 17.412,2.806C17.365,-1.851 13.226,-5.592 8.25,-5.475" style="fill:rgb(253,153,0);fill-rule:nonzero;"/>
        </g>
        <g transform="matrix(1,0,0,1,1207.35,209.887)">
            <path d="M0,-51.916C4.116,-52.834 8.184,-53.364 12.076,-51.013C14.546,-49.522 16.665,-46.132 15.687,-44.216C14.452,-41.798 12.348,-40.162 9.384,-40.536C-3.079,-42.111 -11.882,-35.332 -20.104,-27.487C-27.358,-20.565 -33.655,-12.755 -40.042,-5.041C-41.307,-3.514 -42.771,-2.129 -44.269,-0.824C-46.434,1.063 -48.677,1.448 -51.263,-0.364C-53.926,-2.229 -53.597,-4.405 -52.471,-6.814C-49.216,-13.774 -44.232,-19.574 -39.281,-25.27C-33.201,-32.261 -26.487,-38.698 -18.87,-44.095C-13.164,-48.138 -7.104,-51.289 0,-51.916" style="fill:rgb(255,70,0);fill-rule:nonzero;"/>
        </g>
        <g transform="matrix(1,0,0,1,1218.34,217.03)">
            <path d="M0,-38.343C3.825,-39.374 8.097,-39.566 12.081,-37.366C14.175,-36.211 16.51,-34.955 16.087,-31.862C15.693,-28.982 13.361,-26.791 10.011,-26.716C4.143,-26.584 -1.597,-26.246 -7.085,-23.729C-15.206,-20.004 -21.164,-13.753 -27.068,-7.379C-29.123,-5.159 -31.164,-2.921 -33.324,-0.806C-35.374,1.201 -37.793,1.223 -39.98,-0.447C-42.218,-2.155 -43.305,-4.291 -41.802,-7.256C-38.452,-13.863 -33.478,-19.128 -28.178,-24.117C-20.97,-30.902 -9.538,-37.325 0,-38.343" style="fill:rgb(255,70,0);fill-rule:nonzero;"/>
        </g>
        <g transform="matrix(1,0,0,1,956.952,300.707)">
            <path d="M0,-43.808C0.321,-39.509 -2.043,-36.199 -3.293,-32.678C-7.366,-21.207 -12.05,-9.953 -16.55,1.365C-17.979,4.957 -20.606,6.564 -23.508,5.833C-26.836,4.994 -27.951,3.053 -27.875,-1.131C-27.807,-4.927 -25.925,-8.185 -24.942,-11.698C-21.69,-23.32 -17.745,-34.704 -11.158,-44.962C-10.502,-45.984 -9.761,-47.045 -8.815,-47.767C-7.123,-49.06 -5.352,-50.372 -2.961,-49.089C-0.692,-47.87 0.576,-46.225 0,-43.808" style="fill:rgb(255,70,0);fill-rule:nonzero;"/>
        </g>
        <g transform="matrix(1,0,0,1,918.057,249.838)">
            <path d="M0,20.977C-1.128,17.366 1.944,14.717 3.303,11.625C5.688,6.197 8.75,1.067 11.479,-4.212C13.395,-7.92 16.412,-9.877 20.549,-10.042C24.111,-10.183 25.916,-8.123 25.5,-4.582C25.057,-0.802 22.708,2.16 21.116,5.422C18.037,11.735 14.601,17.873 11.392,24.123C8.833,29.108 6.494,31.16 3.981,30.38C1.776,29.695 -0.034,25.588 0,20.977" style="fill:rgb(255,70,0);fill-rule:nonzero;"/>
        </g>
        <g transform="matrix(1,0,0,1,678.397,233.977)">
            <path d="M0,20.305C-1.354,20.55 -2.733,20.7 -4.057,21.058C-6.756,21.786 -9.221,21.692 -11.032,19.298C-12.792,16.969 -12.585,14.493 -11.223,12.018C-10.707,11.082 -10.166,10.16 -9.636,9.231C-2.249,4.97 5.263,1.025 13.855,-0.189C16.398,-0.541 18.933,-1.043 21.487,-1.211C25.566,-1.481 28.9,0.906 29.67,4.392C30.389,7.651 28,11.041 23.985,12.482C20.263,13.819 16.545,15.173 12.826,16.519C8.385,17.208 4.127,18.53 0,20.305" style="fill:rgb(255,70,0);fill-rule:nonzero;"/>
        </g>
        <g transform="matrix(1,0,0,1,732.008,278.591)">
            <path d="M0,-5.168C-2.907,-1.785 -6.653,-1.404 -10.855,-1.49C-22.383,-1.725 -33.995,-2.014 -45.307,0.771C-53.987,2.908 -61.987,6.879 -69.234,12.217C-71.125,13.61 -73.043,14.871 -75.423,15.074C-78.536,15.34 -81.102,14.519 -82.692,11.523C-84.196,8.69 -82.853,6.268 -81.234,4.381C-72.891,-5.342 -63.235,-13.185 -50.29,-15.968C-49.586,-16.119 -48.975,-16.71 -48.32,-17.096C-46.459,-16.43 -44.773,-17.113 -43.089,-17.816C-31.615,-20.253 -20.183,-20.508 -8.943,-16.99C-1.93,-14.795 -0.381,-12.529 0.055,-5.218L0,-5.168Z" style="fill:rgb(255,70,0);fill-rule:nonzero;"/>
        </g>
        <g transform="matrix(1,0,0,1,728.607,305.419)">
            <path d="M0,-8.21C-2.876,-6.175 -6.131,-6.616 -9.288,-6.862C-17.486,-7.501 -25.646,-7.887 -33.669,-5.314C-40.63,-3.081 -46.756,0.496 -52.063,5.572C-54.5,7.904 -57.272,9.885 -59.851,12.073C-62.31,14.16 -64.702,13.697 -66.881,11.848C-69.115,9.953 -69.622,7.358 -68.299,4.798C-63.973,-3.574 -57.85,-10.453 -49.39,-14.703C-41.325,-18.755 -32.801,-21.588 -23.622,-22.037C-16.817,-22.37 -10.157,-21.807 -3.814,-19.492C-1.253,-18.558 1.612,-17.225 1.92,-13.733C-1.285,-12.758 -0.576,-10.461 0,-8.21" style="fill:rgb(255,70,0);fill-rule:nonzero;"/>
        </g>
        <g transform="matrix(1,0,0,1,911.994,508.502)">
            <path d="M0,110.229C-1.211,110.546 -2.557,110.472 -3.938,110.107C-7.938,109.05 -8.994,107.674 -7.318,103.887C-5.382,99.51 -5.613,95.324 -6.606,90.872C-7.199,88.214 -7.875,85.562 -7.426,82.676C-6.621,77.493 -3.458,74.219 0.591,71.47C3.122,69.752 5.807,68.214 8.124,66.244C10.52,64.207 11.922,61.478 11.797,58.153C11.502,50.342 15.338,45.309 22.17,41.872C27.837,39.02 31.496,34.262 32.173,27.799C32.646,23.289 34.956,19.973 38.357,17.514C44.891,12.789 51.199,7.687 58.554,4.19C60.611,3.212 61.784,1.022 64.255,0.442C67.487,-0.317 69.725,0.646 71.192,3.44C72.641,6.201 72.283,8.787 69.871,10.912C64.813,15.369 58.958,18.694 53.268,22.204C47.899,25.514 43.71,29.448 43.864,36.18C44.044,44.095 38.989,48.231 32.948,51.275C27.577,53.981 24.635,57.83 24.551,63.759C24.459,70.184 20.874,74.231 15.706,77.251C12.821,78.937 10.255,81.089 7.23,82.596C4.81,83.802 4.646,85.84 5.614,88.491C7.35,93.24 8.663,98.119 7.207,103.337C6.101,107.302 4.101,109.511 0,110.229" style="fill:rgb(253,153,0);fill-rule:nonzero;"/>
        </g>
        <g transform="matrix(1,0,0,1,523.733,965.709)">
            <path d="M0,-55.478C1.185,-55.074 2.265,-54.268 3.214,-53.201C5.964,-50.108 6.083,-48.378 2.593,-46.148C-1.44,-43.571 -3.562,-39.956 -5.196,-35.696C-6.17,-33.154 -7.073,-30.57 -9.042,-28.414C-12.579,-24.539 -17.023,-23.559 -21.917,-23.506C-24.976,-23.474 -28.064,-23.677 -31.084,-23.316C-34.207,-22.942 -36.884,-21.443 -38.617,-18.604C-42.689,-11.932 -48.668,-9.859 -56.262,-10.77C-62.561,-11.526 -68.239,-9.584 -72.376,-4.573C-75.264,-1.075 -79.022,0.411 -83.215,0.581C-91.272,0.906 -99.349,1.669 -107.411,0.518C-109.667,0.196 -111.854,1.372 -114.233,0.49C-117.347,-0.664 -118.679,-2.703 -118.357,-5.843C-118.039,-8.945 -116.311,-10.902 -113.126,-11.339C-106.447,-12.257 -99.73,-11.791 -93.048,-11.571C-86.744,-11.362 -81.079,-12.325 -77.486,-18.019C-73.261,-24.715 -66.763,-25.367 -60.045,-24.564C-54.073,-23.85 -49.494,-25.431 -46.146,-30.326C-42.519,-35.629 -37.293,-37.02 -31.317,-36.679C-27.982,-36.49 -24.654,-36.865 -21.3,-36.448C-18.617,-36.116 -17.353,-37.723 -16.695,-40.467C-15.517,-45.384 -13.913,-50.175 -9.815,-53.719C-6.702,-56.412 -3.814,-57.147 0,-55.478" style="fill:rgb(253,153,0);fill-rule:nonzero;"/>
        </g>
        <g transform="matrix(1,0,0,1,1180.78,522.619)">
            <path d="M0,29.345C-3.384,29.219 -6.877,29.751 -8.715,27.104C-10.689,24.259 -10.669,20.882 -8.453,17.691C-4.366,11.806 0.413,6.567 5.859,1.991C8.712,-0.406 12.238,-0.074 15.224,1.775C18.187,3.61 18.294,6.491 17.088,9.695C14.303,17.091 10.085,23.326 3.428,27.697C2.27,28.456 0.914,28.913 0,29.345" style="fill:rgb(255,70,0);fill-rule:nonzero;"/>
        </g>
        <g transform="matrix(1,0,0,1,1154.79,511.814)">
            <path d="M0,15.476C-0.879,12.394 0.825,9.753 2.593,7.447C5.886,3.153 9.455,-0.945 13.133,-4.916C15.559,-7.536 20.392,-8.212 22.855,-6.713C25.655,-5.009 27.055,-1.185 25.884,2.663C23.352,10.995 18.594,17.625 10.519,21.33C5.377,23.688 0.852,21.146 0,15.476" style="fill:rgb(255,70,0);fill-rule:nonzero;"/>
        </g>
        <g transform="matrix(1,0,0,1,1129.24,488.513)">
            <path d="M0,20.625C-1.128,16.769 1.263,13.687 2.092,10.339C3.007,6.642 4.7,3.114 6.28,-0.385C9.145,-6.729 14.616,-7.144 18.909,-1.754C21.457,1.444 22.399,4.334 20.505,8.243C18.604,12.166 17.499,16.475 15.679,20.443C13.313,25.599 7.008,27.769 2.96,25.176C1.226,24.065 -0.019,22.715 0,20.625" style="fill:rgb(255,70,0);fill-rule:nonzero;"/>
        </g>
        <g transform="matrix(1,0,0,1,1117.93,513.877)">
            <path d="M0,-28.945C4.064,-29.183 5.87,-26.722 6.905,-23.215C8.778,-16.872 7.301,-11.1 3.886,-5.758C0.054,0.238 -7.157,-1.82 -8.914,-6.876C-10.351,-11.009 -10.656,-14.93 -8.872,-18.945C-7.518,-19.176 -6.167,-16.729 -4.591,-19.284C-5.284,-20.957 -7.909,-22.163 -6.992,-24.714C-6.634,-25.253 -6.276,-25.793 -5.918,-26.332C-3.629,-26.48 -1.584,-27.186 0,-28.945" style="fill:rgb(255,70,0);fill-rule:nonzero;"/>
        </g>
    </g>
</svg>
