<?xml version="1.0" encoding="UTF-8" standalone="no"?>
<!DOCTYPE svg PUBLIC "-//W3C//DTD SVG 1.1//EN" "http://www.w3.org/Graphics/SVG/1.1/DTD/svg11.dtd">
<svg width="100%" height="100%" viewBox="0 0 120 120" version="1.1" xmlns="http://www.w3.org/2000/svg" xmlns:xlink="http://www.w3.org/1999/xlink" xml:space="preserve" xmlns:serif="http://www.serif.com/" style="fill-rule:evenodd;clip-rule:evenodd;stroke-linejoin:round;stroke-miterlimit:2;">
    <g transform="matrix(1.6248e-17,-0.26535,0.140001,8.57257e-18,-17.2878,83.3648)">
        <path d="M88.053,138.409L133.908,230.119C99.171,214.322 67.932,211.789 42.198,230.119L88.053,138.409Z" style="fill:rgb(0,62,124);"/>
    </g>
    <g transform="matrix(0.26535,0,0,0.26535,-7.81301,-7.92964)">
        <path d="M256,90.585C347.295,90.585 421.415,164.705 421.415,256C421.415,347.295 347.295,421.415 256,421.415C164.705,421.415 90.585,347.295 90.585,256C90.585,164.705 164.705,90.585 256,90.585ZM186.826,254.505L173.026,244.267C171.067,242.887 170.261,241.621 170.261,239.091L170.261,231.499C170.261,229.543 171.182,228.623 173.141,228.623L174.409,228.623C176.368,228.623 177.29,229.543 177.29,231.499L177.29,244.727L193.03,244.727L193.03,230.003C193.03,220.007 188.09,215.067 178.094,215.067L169.341,215.067C159.345,215.067 154.405,220.007 154.405,230.003L154.405,242.772C154.405,248.523 155.898,251.859 160.839,255.425L174.639,265.663C176.598,267.043 177.405,268.308 177.405,270.839L177.405,280.501C177.405,282.457 176.483,283.377 174.524,283.377L173.026,283.377C171.067,283.377 170.145,282.457 170.145,280.501L170.145,264.857L154.405,264.857L154.405,281.997C154.405,291.993 159.345,296.933 169.341,296.933L178.324,296.933C188.32,296.933 193.26,291.993 193.26,281.997L193.26,267.158C193.26,261.176 191.766,258.071 186.826,254.505ZM278.59,215.757L262.505,215.757L262.505,296.243L278.59,296.243L278.59,215.757ZM300.555,268.298L308.044,268.298C318.04,268.298 322.98,263.358 322.98,253.362L322.98,230.693C322.98,220.697 318.04,215.757 308.044,215.757L284.47,215.757L284.47,296.243L300.555,296.243L300.555,268.298ZM205.232,296.243L222.938,296.243L227.077,259.68L231.217,296.243L248.922,296.243L258.695,215.757L244.438,215.757L240.299,258.53L235.7,215.757L220.524,215.757L215.925,258.645L211.786,215.757L195.46,215.757L205.232,296.243ZM327.48,215.757L327.48,296.243L357.595,296.243L357.595,281.882L343.565,281.882L343.565,262.548L356.79,262.548L356.79,248.187L343.565,248.187L343.565,230.118L357.365,230.118L357.365,215.757L327.48,215.757ZM306.895,232.419L306.895,251.636C306.895,253.592 305.973,254.512 304.013,254.512L300.555,254.512L300.555,229.543L304.013,229.543C305.973,229.543 306.895,230.463 306.895,232.419Z" style="fill:rgb(0,62,124);"/>
    </g>
    <g transform="matrix(-1.6248e-17,-0.26535,-0.140001,8.57257e-18,137.288,83.3648)">
        <path d="M88.053,138.409L133.908,230.119C99.171,214.322 67.932,211.789 42.198,230.119L88.053,138.409Z" style="fill:rgb(0,62,124);"/>
    </g>
</svg>
