<?xml version="1.0" encoding="UTF-8" standalone="no"?>
<!DOCTYPE svg PUBLIC "-//W3C//DTD SVG 1.1//EN" "http://www.w3.org/Graphics/SVG/1.1/DTD/svg11.dtd">
<svg width="120px" height="120px" viewBox="0 0 120 120" version="1.1" xmlns="http://www.w3.org/2000/svg" xmlns:xlink="http://www.w3.org/1999/xlink" xml:space="preserve" xmlns:serif="http://www.serif.com/" style="fill-rule:evenodd;clip-rule:evenodd;stroke-linejoin:round;stroke-miterlimit:2;">
    <g transform="matrix(1.6248e-17,-0.26535,0.140001,8.57257e-18,-17.2878,83.3648)">
        <path d="M88.053,138.409L133.908,230.119C99.171,214.322 67.932,211.789 42.198,230.119L88.053,138.409Z" style="fill:rgb(225,91,41);"/>
    </g>
    <g transform="matrix(-1.6248e-17,-0.26535,-0.140001,8.57257e-18,137.288,83.3648)">
        <path d="M88.053,138.409L133.908,230.119C99.171,214.322 67.932,211.789 42.198,230.119L88.053,138.409Z" style="fill:rgb(225,91,41);"/>
    </g>
    <g transform="matrix(1.09133,0,0,1.05026,-6.08264,-5.22128)">
        <ellipse cx="60.659" cy="62.1" rx="40.22" ry="41.793" style="fill:rgb(225,91,41);"/>
        <g>
            <g transform="matrix(0.916314,0,0,0.952148,39.0032,70.7649)">
                <text x="0px" y="0px" style="font-family:'Tungsten-Bold', 'Tungsten';font-size:26px;fill:rgb(235,235,235);">S</text>
            </g>
            <g transform="matrix(0.916314,0,0,0.952148,47.842,70.7649)">
                <text x="0px" y="0px" style="font-family:'Tungsten-Bold', 'Tungsten';font-size:26px;fill:rgb(235,235,235);">WIPE</text>
            </g>
        </g>
    </g>
</svg>
