<?xml version="1.0" encoding="UTF-8" standalone="no"?>
<!DOCTYPE svg PUBLIC "-//W3C//DTD SVG 1.1//EN" "http://www.w3.org/Graphics/SVG/1.1/DTD/svg11.dtd">
<svg width="100%" height="100%" viewBox="0 0 1081 896" version="1.1" xmlns="http://www.w3.org/2000/svg" xmlns:xlink="http://www.w3.org/1999/xlink" xml:space="preserve" xmlns:serif="http://www.serif.com/" style="fill-rule:evenodd;clip-rule:evenodd;stroke-linejoin:round;stroke-miterlimit:2;">
    <g transform="matrix(1,0,0,1,-2579.71,-56.7091)">
        <g transform="matrix(1,0,0,1,2160,0)">
            <g transform="matrix(1,0,0,1,444.81,613.587)">
                <path d="M0,-188.855C0,-188.855 -51.066,-259.728 37.621,-308.498C37.621,-308.498 53.718,-374.69 111.791,-376.142C169.864,-377.594 185.835,-320.972 190.19,-319.521C194.546,-318.069 236.649,-352.913 280.204,-335.491C280.204,-335.491 303.434,-384.853 373.122,-370.335C373.122,-370.335 383.284,-448.734 458.78,-445.83C534.275,-442.927 528.469,-395.016 528.469,-395.016C528.469,-395.016 579.282,-413.89 625.741,-365.979C625.741,-365.979 675.104,-454.542 769.474,-432.764L798.51,-506.808C798.51,-506.808 827.314,-576.138 897.845,-551.635C897.845,-551.635 996.454,-514.945 934.379,-379.752C934.379,-379.752 1009.03,-344.202 968.375,-249.832C968.375,-249.832 1048.23,-248.079 1055.49,-154.586C1055.49,-154.586 1048.23,-95.938 1033.71,-61.093C1019.19,-26.25 998.08,66 998.08,66C998.08,66 994.508,174.104 895.783,152.327C895.783,152.327 818.824,200 749.147,163.941C749.147,163.941 728.822,206.044 633.001,206.044C633.001,206.044 618.482,222.015 580.734,220.563C580.734,220.563 537.18,242.34 499.432,214.755C499.432,214.755 457.328,272.829 396.352,245.244C396.352,245.244 352.796,253.956 326.663,272.829C326.663,272.829 272.945,306.221 249.716,284.444C249.716,284.444 216.323,313.48 175.672,303.318C175.672,303.318 116.146,339.574 101.628,305.475C101.628,305.475 19.34,387.283 -14.629,293.155C-38.198,227.845 -14.629,145.067 -14.629,145.067C-14.629,145.067 17.422,36.639 47.91,-16.583C47.91,-16.583 -50.211,-66.537 0,-188.855" style="fill-rule:nonzero;"/>
            </g>
        </g>
        <g transform="matrix(1,0,0,1,2160,0)">
            <g transform="matrix(1,0,0,1,631.902,325.487)">
                <path d="M0,-5.077C1.053,-5.51 1.197,-6.391 1.137,-7.374C3.101,-4.417 5.111,-1.493 7.428,1.207C5.936,0.944 4.711,1.763 3.313,2.297C1.414,0.848 0.45,-1.344 -0.984,-3.008C-1.138,-4.028 -0.206,-4.366 0,-5.077" style="fill:rgb(254,254,254);fill-rule:nonzero;"/>
            </g>
        </g>
        <g transform="matrix(1,0,0,1,2160,0)">
            <g transform="matrix(1,0,0,1,633.148,436.029)">
                <path d="M0,2.641C1.244,1.169 1.925,-0.306 3.802,-0.335C3.943,2.386 3.265,2.976 0,2.641" style="fill:rgb(0,62,124);fill-rule:nonzero;"/>
            </g>
        </g>
        <g transform="matrix(1,0,0,1,2160,0)">
            <g transform="matrix(1,0,0,1,683.145,403.858)">
                <path d="M0,0.254C-0.085,0.169 -0.169,0.084 -0.254,0C-0.2,0.013 -0.127,0.011 -0.098,0.046C-0.05,0.102 -0.031,0.183 0,0.254Z" style="fill:rgb(0,62,124);fill-rule:nonzero;"/>
            </g>
        </g>
        <g transform="matrix(1,0,0,1,2160,0)">
            <g transform="matrix(1,0,0,1,681.705,283.997)">
                <path d="M0,9.483C-0.19,9.293 -0.38,9.103 -0.57,8.914L-0.57,7.218C0.815,7.124 1.427,6.045 2.197,5.079C1.734,3.632 1.225,2.266 -0.57,2.042C-0.853,0.829 0.055,0.096 0.571,-0.795C2.555,-0.276 4.844,2.254 5.128,4.242C5.422,6.303 4.218,8.506 2.39,9.672C1.44,10.278 0.804,9.347 0,9.483" style="fill:rgb(254,254,254);fill-rule:nonzero;"/>
            </g>
        </g>
        <g transform="matrix(1,0,0,1,2160,0)">
            <g transform="matrix(1,0,0,1,687.991,286.369)">
                <path d="M0,0.254C-0.085,0.17 -0.17,0.085 -0.254,0C-0.2,0.014 -0.127,0.011 -0.098,0.046C-0.05,0.103 -0.03,0.184 0,0.254" style="fill:rgb(254,254,254);fill-rule:nonzero;"/>
            </g>
        </g>
        <g transform="matrix(1,0,0,1,2160,0)">
            <g transform="matrix(1,0,0,1,517.725,376.666)">
                <path d="M0,95.399C3.513,75.882 11.286,43.963 20.34,14.458C8.663,15.406 1.209,12.776 -2.657,9C-9.427,2.397 -6.538,-2.05 1.969,-3.476C10.476,-4.901 20.298,-7.373 28.204,-9.818C35.359,-32.026 40.486,-45.76 46.347,-59.647C50.13,-68.881 54.606,-69.449 60.118,-63.342C63.619,-59.487 66.409,-53.57 67.343,-49.17C68.748,-42.571 69.071,-33.829 66.856,-22.634C78.531,-23.582 86.008,-19.04 89.509,-15.187C94.578,-9.369 92.947,-4.424 83.916,-3.655C77.161,-2.987 67.788,-0.226 59.957,2.59C51.092,29.372 37.912,70.101 31.006,100.687C28.712,111.516 28.537,121.516 30.249,129.577C32.588,140.576 37.889,147.492 44.12,146.169C58.415,143.129 72.568,115.986 79.551,85.768C81.715,76.112 89.989,73.587 94.659,82.942C98.128,90.249 97.832,96.058 95.591,105.345C92.796,117.435 74.937,154.175 44.15,160.718C24.722,164.848 4.512,152.672 -0.864,127.381C-2.578,119.316 -2.562,108.586 0,95.399" style="fill:white;fill-rule:nonzero;"/>
            </g>
        </g>
        <g transform="matrix(1,0,0,1,2160,0)">
            <g transform="matrix(1,0,0,1,674.626,428.764)">
                <path d="M0,11.866C8.995,-16.1 11.776,-35.461 9.75,-44.99C8.816,-49.39 7.537,-51.799 3.871,-51.019C-3.459,-49.46 -23.844,-20.996 -36.146,13.035C-43.481,32.602 -45.583,53.351 -43.091,65.082C-41.688,71.679 -39.287,75.764 -35.62,74.986C-23.524,72.414 -11.419,46.473 0,11.866M-4.624,-72.966C8.571,-75.77 18.038,-70.887 23.362,-62.059L27.912,-74.901C30.754,-83.168 36.905,-84.857 42.394,-80.661C50.183,-74.654 56.909,-59.227 51.431,-38.142C46.188,-15.958 23.889,30.538 29.109,55.098C30.278,60.595 32.444,63.584 36.111,62.804C49.307,59.999 62.335,31.178 69.367,4.783C71.841,-3.405 75.062,-4.472 80.363,2.447C82.529,5.432 86.834,14.862 83.96,26.58C78.717,48.767 59.388,73.183 37.028,77.935C18.702,81.829 6.044,74.557 0.23,61.62C-8.216,74.143 -22.297,89.011 -36.96,92.128C-58.585,96.723 -73.663,83.458 -78.261,61.83C-81.61,46.07 -79.377,24.139 -70.075,3.008C-49.71,-45.377 -23.317,-68.991 -4.624,-72.966" style="fill:white;fill-rule:nonzero;"/>
            </g>
        </g>
        <g transform="matrix(1,0,0,1,2160,0)">
            <g transform="matrix(1,0,0,1,797.115,375.894)">
                <path d="M0,49.808C-2.492,38.08 -5.353,26.429 -8.19,16.69C-14.025,32.49 -20.938,50.43 -28.586,68.529C-20.523,84.82 -10.1,96.015 -2.036,94.301C5.66,92.665 5.063,73.635 0,49.808M-54.08,38.704C-48.075,30.913 -42.187,31.577 -39.217,40.141C-30.782,20.342 -22.005,-1.446 -15.825,-19.231C-17.162,-32.74 -14.559,-42.105 -7.605,-50.86C-2.833,-57.24 3.219,-61.207 8.716,-62.377C18.613,-64.48 22.526,-56.881 15.138,-35.774C15.706,-31.296 16.664,-24.988 17.677,-20.225C23.209,5.8 33.039,28.614 36.512,48.562C38.094,57.805 38.443,68.457 36.125,77.378C48.972,63.919 56.663,49.641 59.444,30.279C60.949,21.146 66.993,22.543 70.807,27.864C73.418,31.139 76.697,41.171 72.517,53.936C64.04,82.554 41.343,101.933 14.088,108.88C-7.75,114.288 -30.987,113.096 -48.359,92.654C-53.87,86.546 -57.939,78.217 -59.73,69.785C-62.069,58.79 -60.662,47.381 -54.08,38.704" style="fill:white;fill-rule:nonzero;"/>
            </g>
        </g>
        <g transform="matrix(1,0,0,1,2160,0)">
            <g transform="matrix(1,0,0,1,856.045,304.756)">
                <path d="M0,95.395C3.513,75.88 11.285,43.959 20.337,14.456C8.662,15.402 1.209,12.774 -2.66,8.999C-9.425,2.393 -6.541,-2.052 1.968,-3.478C10.477,-4.905 20.295,-7.375 28.203,-9.822C35.358,-32.03 40.485,-45.762 46.344,-59.649C50.129,-68.882 54.604,-69.451 60.117,-63.343C63.618,-59.488 66.408,-53.572 67.343,-49.172C68.747,-42.573 69.071,-33.831 66.854,-22.636C78.528,-23.584 86.008,-19.042 89.506,-15.189C94.575,-9.371 92.944,-4.425 83.913,-3.657C77.161,-2.988 67.785,-0.228 59.956,2.586C51.091,29.368 37.912,70.099 31.003,100.685C28.709,111.514 28.536,121.514 30.248,129.576C32.587,140.575 37.889,147.49 44.119,146.167C58.414,143.127 72.567,115.984 79.551,85.766C81.715,76.111 89.988,73.586 94.658,82.94C98.127,90.248 97.829,96.057 95.59,105.344C92.795,117.433 74.937,154.171 44.147,160.716C24.721,164.846 4.509,152.668 -0.867,127.377C-2.581,119.312 -2.563,108.584 0,95.395" style="fill:white;fill-rule:nonzero;"/>
            </g>
        </g>
        <g transform="matrix(1,0,0,1,2160,0)">
            <g transform="matrix(1,0,0,1,970.256,369.525)">
                <path d="M0,0.222C3.324,1.431 6.045,1.619 8.611,1.075C17.407,-0.796 26.799,-14.285 32.025,-25.738C39.617,-42.293 43.653,-61.158 38.921,-63.599C32.487,-66.83 10.114,-38.706 0,0.222M25.569,17.773C16.771,19.644 7.431,18.95 -2.171,15.242C-2.812,23.04 -2.275,30.971 -0.874,37.568C2.556,53.696 11.567,63.656 22.564,61.318C50.423,55.396 69.216,23.054 79.411,-2.864C82.197,-9.587 86.807,-11.334 91.298,-4.626C93.099,-1.56 95.724,8.992 91.23,20.291C80.588,45.923 54.928,69.382 26.414,75.827C-7.596,83.437 -31.043,65.054 -37.276,35.73C-40.081,22.534 -39.452,7.459 -34.872,-8.839C-24.069,-51.743 1.49,-77.48 22.75,-81.999C27.882,-83.091 32.07,-83.215 36.202,-81.794C47.711,-78.111 56.29,-73.804 62.978,-67.566C65.878,-64.734 68.515,-59.546 69.525,-54.78C74.2,-32.789 57.823,10.918 25.569,17.773" style="fill:white;fill-rule:nonzero;"/>
            </g>
        </g>
        <g transform="matrix(1,0,0,1,2160,0)">
            <g transform="matrix(1,0,0,1,1214.94,378.542)">
                <path d="M0,-104.861C-1.169,-110.358 -4.567,-111.933 -7.132,-111.388C-9.333,-110.922 -12.01,-107.288 -10.764,-101.423C-9.361,-94.824 -5.502,-85.686 -0.456,-81.78C1.416,-90.987 1.014,-100.095 0,-104.861M-39.421,8.87C-29.89,6.846 -18.11,-9.832 -9.846,-37.639C-6.375,-48.338 -3.923,-58.438 -3.361,-66.6C-16.649,-71.44 -26.37,-79.334 -32.03,-91.537C-38.171,-82.574 -43.186,-71.929 -47.08,-59.61C-52.871,-39.989 -54.373,-18.217 -51.489,-4.653C-49.153,6.343 -44.919,10.04 -39.421,8.87M28.963,-67.727C27.733,-35.669 11.907,5.241 -13.92,20.689C-16.987,22.49 -21.152,24.526 -26.649,25.695C-38.746,28.264 -53.397,26.019 -66.544,14.636C-75.456,6.953 -81.093,-3.342 -83.585,-15.073C-87.014,-31.198 -84.967,-50.406 -79.099,-69.658C-68.836,-102.487 -49.64,-125.722 -25.447,-130.865C-14.819,-133.125 -7.363,-130.495 1.626,-122.445C14.461,-112.531 25.269,-112.145 28.593,-80.289C38.122,-82.316 39.557,-79.174 37.404,-74.885C35.459,-71.405 32.839,-69.316 28.963,-67.727" style="fill:white;fill-rule:nonzero;"/>
            </g>
        </g>
        <g transform="matrix(1,0,0,1,2160,0)">
            <g transform="matrix(1,0,0,1,1301.81,286.863)">
                <path d="M0,53.02C-2.882,39.458 -5.595,33.906 -7.927,35.552C-10.261,37.197 -9.42,51.958 -7.629,60.388C-6.227,66.984 -4.193,71.151 1.407,72.26C1.838,65.272 1.638,60.721 0,53.02M-19.329,187.384C-11.631,185.747 -2.176,134.7 -0.641,91.468C-7.55,91.402 -14.404,89.795 -19.371,86.255C-25.975,123.67 -28.937,158.396 -25.275,175.624C-23.797,182.588 -21.527,187.85 -19.329,187.384M-3.158,16.529C15.76,19.023 22.478,39.815 24.854,59.996C34.267,48.417 41.126,32.019 45.394,14.258C47.714,5.336 54.888,3.044 60.213,11.873C63.734,17.635 63.25,26.167 61.743,35.301C59.947,44.876 46.717,69.141 26.883,82.171C29.098,119.624 21.852,164.839 9.01,190.937C3.627,201.656 -2.77,207.615 -12.299,209.641C-26.229,212.602 -48.129,194.27 -54.129,166.048C-70.021,91.274 -10.643,-79.954 17.745,-151.879C19.24,-155.645 21.783,-158.1 24.351,-158.646C28.748,-159.582 36.382,-154.308 39.109,-141.478C41.289,-131.218 39.617,-117.454 32.962,-96.499C23.333,-66.104 7.111,-21.663 -3.158,16.529" style="fill:white;fill-rule:nonzero;"/>
            </g>
        </g>
        <g transform="matrix(1,0,0,1,2160,0)">
            <g transform="matrix(1,0,0,1,558.779,656.046)">
                <path d="M0,160.581C-0.943,143.54 0.885,99.86 4.777,56.893C-14.465,106.953 -35.867,166.67 -46,216.329C-47.108,221.929 -52.372,224.197 -58.151,220.442C-63.038,217.269 -66.929,211.581 -68.643,203.519C-70.124,196.555 -70.006,188.102 -68.419,179.337C-61.185,139.489 -24.051,31.225 3.452,-28.637C6.605,-35.439 12.003,-38.886 20.135,-34.867C31.823,-28.541 38.979,-20.102 41.474,-8.374C42.876,-1.774 42.992,7.777 41.951,19.107C37.603,54.513 35.021,78.429 32.268,130.352C58.365,63.891 89.951,19.634 116.925,-53.523C120.053,-62.237 124.739,-63.616 133.106,-58.496C142.074,-52.356 147.243,-44.262 149.111,-35.464C151.215,-25.569 149.365,-14.446 146.703,-3.538C131.464,49.118 110.601,129.408 103.55,184.543C102.541,192.418 99.243,193.119 92.287,189.234C87.032,186.139 81.673,180.763 79.413,170.131C78.167,164.269 77.422,157.147 77.906,148.617L77.983,148.983C78.722,130.819 88.5,88.517 98.672,48.045C75.221,96.322 50.183,153.36 36.894,197.18C34.42,205.364 31.119,206.068 24.766,203.203C13.232,197.607 4.898,189.036 1.626,173.644C0.769,169.611 0.279,165.498 0,160.581" style="fill:white;fill-rule:nonzero;"/>
            </g>
        </g>
        <g transform="matrix(1,0,0,1,2160,0)">
            <g transform="matrix(1,0,0,1,866.676,785.828)">
                <path d="M0,-175.246C-42.427,-127.919 -97.177,-48.473 -129.177,10.049C-112.81,2.356 -91.384,-6.794 -75.934,-11.611C-57.185,-17.129 -43.898,-12.291 -36.429,-2.385C-33.584,1.987 -33.982,5.524 -42.047,7.237C-64.038,11.91 -98.979,27.764 -127.609,42.662C-137.616,47.855 -143.761,44.181 -158.442,27.382C-163.586,21.195 -164.755,15.695 -160.761,5.653C-141.995,-41.245 -75.777,-138.834 -30.1,-190.684C-44.215,-185.003 -62.263,-176.186 -74.047,-172.15C-99.813,-163.606 -113.279,-171.088 -120.405,-182.981C-123.328,-187.726 -123.664,-191.1 -116.699,-192.581C-82.821,-199.017 -47.404,-218.038 -31.276,-221.467C-23.58,-223.101 -16.592,-222.671 -11.393,-218.028C-5.225,-212.445 1.123,-204.216 5.847,-196.41C10.049,-189.257 7.473,-183.348 0,-175.246" style="fill:white;fill-rule:nonzero;"/>
            </g>
        </g>
        <g transform="matrix(1,0,0,1,2160,0)">
            <g transform="matrix(1,0,0,1,972.455,735.114)">
                <path d="M0,-147.781C-17.461,-114.574 -36.373,-73.776 -51.83,-32.945C-44.656,-35.235 -37.479,-37.524 -30.747,-40.108C-18.598,-44.221 -10.846,-47.403 -1.027,-49.873C-3.094,-81.229 -3.322,-118.343 0,-147.781M5.115,2.458C3.713,-4.14 1.919,-12.571 0.994,-22.335L-24.118,-14.318C-38.467,-9.733 -52.452,-5.231 -62.792,-3.414C-69.025,15.919 -73.197,35.958 -78.431,52.779C-81.193,61.41 -87.736,61.269 -91.394,56.682C-94.529,52.75 -97.429,49.918 -98.675,44.053C-99.921,38.19 -100.247,29.448 -98.106,17.883C-97.077,11.92 -95.836,5.142 -93.438,-3.41C-101.051,-6.775 -105.439,-11.203 -107.007,-13.17C-111.421,-19.512 -110.422,-22.02 -100.58,-22.585C-95.293,-22.941 -92.281,-23.197 -87.072,-23.922C-69.789,-77.782 -34.241,-159.276 -2.688,-200.078C3.974,-208.387 9.548,-209.191 16.603,-203.028C21.282,-199.044 24.339,-195.481 28.229,-189.793C30.996,-185.786 32.955,-181.984 33.889,-177.585C34.823,-173.189 35.182,-167.901 34.149,-161.938C31.329,-133.754 29.17,-93.452 30.386,-53.483C41.217,-51.191 46.362,-45.004 50.564,-37.85C53.644,-32.375 51.389,-30.367 44.56,-30.061L31.262,-29.538C32.957,-10.742 35.098,8.342 38.182,26.459C39.584,33.056 35.133,35.534 27.912,34.006C18.99,31.687 9.999,23.639 5.115,2.458" style="fill:white;fill-rule:nonzero;"/>
            </g>
        </g>
        <g transform="matrix(1,0,0,1,2160,0)">
            <g transform="matrix(1,0,0,1,1102.32,564.483)">
                <path d="M0,120.137C-4.519,98.879 -9.52,68.144 -12.842,36.288C-29.361,86.536 -44.637,142.652 -51.18,191.162C-52.188,199.04 -57.606,200.573 -63.907,196.168C-68.587,192.183 -73.443,185.551 -75.234,177.121C-76.404,171.624 -76.441,162.437 -75.144,154.116C-66.525,100.948 -38.515,3.818 -20.475,-48.287C-17.423,-57.367 -13.025,-58.301 -6.594,-55.07C6.117,-49.345 12.886,-42.734 15.69,-29.541C16.78,-24.409 17.293,-18.39 17.596,-11.558C18.776,19.224 23.58,58.044 29.974,100.742C43.759,43.03 65.678,-28.675 81.846,-71.569C85.705,-80.436 90.494,-79.537 96.008,-73.43C99.141,-69.5 101.253,-64.967 102.344,-59.836C104.214,-51.038 104.743,-37.742 97.272,-17.002C83.914,21.082 57.141,116.801 45.299,171.041C44.033,175.903 40.47,178.959 33.538,176.986C20.118,173.329 12.227,165.043 6.785,146.66C3.795,136.188 1.871,128.935 0,120.137" style="fill:white;fill-rule:nonzero;"/>
            </g>
        </g>
        <g transform="matrix(1,0,0,1,2160,0)">
            <g transform="matrix(1,0,0,1,1183.09,508.669)">
                <path d="M0,162.997C2.776,161.64 6.731,160.417 11.129,159.482C21.758,157.223 32.646,157.976 41.667,162.568C58.454,171.262 86.543,184.445 107.801,179.927C115.867,178.213 122.809,174.821 125.983,169.932C130.312,163.268 127.076,157.058 122.343,154.616C91.589,139.699 36.433,130.734 28.487,93.349C17.892,43.499 65.799,-12.273 95.828,-33.215C106.832,-40.916 114.297,-43.65 122.727,-45.442C131.522,-47.312 139.4,-46.306 146.722,-42.498C159.011,-35.149 168.179,-24.455 172.85,-15.105C179.707,-0.857 173.66,15.754 169.877,24.985C163.574,38.584 156.996,59.904 153.735,69.792C151.681,76.358 148.272,80.148 139.75,74.297C133.528,70.256 128.539,64.803 126.747,56.373C125.033,48.309 126.836,33.371 135.503,14.668C141.785,-0.84 148.254,-19.071 142.342,-21.648C126.678,-28.661 57.857,42.28 64.985,84.825C69.027,109.251 123.685,119.472 140.162,126.692C148.215,130.345 153.651,136.087 155.13,143.052C156.922,151.481 154.183,162.026 147.068,175.413C139.875,188.434 123.552,199.947 101.559,204.622C74.799,210.309 36.051,202.841 0.005,175.639C-6.45,170.498 -4.743,165.921 0,162.997" style="fill:white;fill-rule:nonzero;"/>
            </g>
        </g>
        <g transform="matrix(1,0,0,1,2160,0)">
            <g transform="matrix(1,0,0,1,1415.51,684.748)">
                <path d="M0,-242.541C4.072,-252.217 9.805,-252.287 15.472,-245.446C18.083,-242.173 20.641,-237.349 21.887,-231.484C23.99,-221.589 22.865,-205.26 16.997,-186.006C3.052,-141.667 -22.442,-61.543 -35.734,0.277C-37.188,7.866 -40.618,9.746 -47.886,4.395C-52.33,1.506 -56.663,-4.466 -58.612,-13.632C-59.702,-18.761 -60.108,-27.871 -59.043,-37.293C-50.579,-91.191 -20.153,-194.967 0,-242.541" style="fill:white;fill-rule:nonzero;"/>
            </g>
        </g>
        <g transform="matrix(1,0,0,1,2160,0)">
            <g transform="matrix(1,0,0,1,1453.05,356.54)">
                <path d="M0,3.741C-1.191,3.048 -2.342,2.267 -3.584,1.68C-6.115,0.486 -7.937,-1.192 -7.773,-4.219C-7.614,-7.162 -5.857,-8.939 -3.219,-9.961C-2.221,-10.348 -1.211,-10.707 -0.207,-11.079C8.186,-9.559 16.469,-7.713 23.813,-3.056C25.983,-1.672 28.243,-0.409 30.302,1.123C33.591,3.572 34.596,7.584 32.933,10.776C31.377,13.759 27.363,14.82 23.367,13.319C19.661,11.927 15.948,10.552 12.239,9.169C8.403,6.809 4.298,5.058 0,3.741" style="fill:rgb(253,153,0);fill-rule:nonzero;"/>
            </g>
        </g>
        <g transform="matrix(1,0,0,1,2160,0)">
            <g transform="matrix(1,0,0,1,518.98,840.042)">
                <path d="M0,-165.679C-0.485,-161.25 -1.749,-159.64 -6.111,-159.022C-10.381,-158.416 -14.502,-157.215 -18.709,-156.373C-21.965,-155.722 -22.395,-154.676 -21.068,-151.47C-20.479,-150.045 -19.786,-148.665 -19.167,-147.252C-16.234,-140.559 -18.033,-135.282 -24.539,-131.846C-27.126,-130.48 -29.855,-129.384 -32.492,-128.109C-34.951,-126.919 -37.592,-126.05 -39.949,-124.294C-39.369,-121.945 -38.134,-120.251 -36.698,-118.643C-32.721,-114.183 -33.231,-105.676 -39.703,-101.511C-43.973,-98.763 -48.117,-95.821 -52.539,-93.311C-53.62,-92.698 -54.683,-92.086 -55.07,-90.457C-52.264,-86.816 -49.221,-83.19 -47.119,-78.88C-45.461,-75.481 -45.655,-72.619 -47.7,-69.441C-49.953,-65.939 -52.605,-62.819 -55.461,-59.847C-56.156,-59.123 -56.617,-58.455 -56.593,-57.206C-55.218,-55.402 -53.071,-54.176 -51.222,-52.627C-47.145,-49.214 -46.122,-45.849 -49.761,-40.765C-52.731,-36.613 -56.854,-33.57 -59.996,-29.193C-58.089,-27.201 -55.596,-25.759 -53.676,-23.629C-49.603,-19.113 -48.475,-15.458 -51.394,-10.416C-54.694,-4.716 -58.604,0.578 -64.729,3.783C-67.318,5.138 -69.801,4.713 -71.564,3.074C-73.502,1.274 -75.15,-1.128 -74.302,-4.283C-73.223,-8.298 -70.549,-11.531 -68.754,-15.323C-72.104,-17.667 -74.93,-20.237 -77.632,-22.943C-81.801,-27.117 -82.033,-31.273 -78.567,-36.058C-76.586,-38.793 -74.279,-41.224 -72.004,-43.693C-71.378,-44.371 -70.67,-44.994 -70.571,-46.19C-71.747,-47.582 -72.999,-49.096 -74.283,-50.581C-79.695,-56.834 -77.418,-62.211 -72.925,-66.385C-69.472,-69.594 -66.214,-73.13 -61.977,-75.491C-63.448,-77.923 -65.689,-79.436 -67.558,-81.15C-77.189,-89.984 -73.826,-98.642 -63.953,-105.131C-60.115,-107.655 -56.14,-109.97 -52.17,-112.415C-52.506,-116.132 -55.536,-118.339 -56.548,-121.561C-58.566,-127.99 -56.816,-132.919 -50.945,-136.316C-46.102,-139.118 -40.826,-140.798 -35.503,-142.37C-34.792,-142.58 -34.119,-142.92 -33.273,-143.262C-34.265,-147.565 -35.842,-151.577 -36.104,-155.906C-36.45,-161.62 -33.927,-165.162 -28.442,-166.769C-21.349,-168.847 -14.118,-169.973 -6.779,-170.651C-4.987,-170.817 -3.431,-170.78 -2.032,-169.588C-1.355,-168.284 -0.678,-166.982 0,-165.679" style="fill:rgb(255,70,0);fill-rule:nonzero;"/>
            </g>
        </g>
        <g transform="matrix(1,0,0,1,2160,0)">
            <g transform="matrix(1,0,0,1,794.189,856.478)">
                <path d="M0,-3.731C-1.962,-1.707 -3.256,0.708 -5.187,2.627C-10.184,7.593 -14.515,8.149 -20.628,3.989C-20.98,3.748 -21.375,3.57 -21.888,3.287C-24.362,5.182 -25.895,7.866 -27.945,10.066C-30.754,13.081 -33.266,16.372 -37.792,17.086C-40.655,17.539 -43.254,16.659 -45.868,15.996C-49.652,15.035 -49.762,14.99 -52.107,18.074C-54.73,21.525 -56.88,25.296 -59.979,28.436C-65.384,33.912 -69.903,33.071 -74.851,29.764C-75.672,29.216 -76.453,28.579 -77.703,28.682C-78.759,29.069 -79.271,30.262 -80.123,31.07C-82.387,33.215 -84.588,32.966 -86.33,30.396C-88.585,27.07 -86.696,21.706 -83.13,18.738C-79.62,15.815 -75.904,16.01 -72.155,18.924C-70.95,19.861 -70.123,21.268 -68.369,21.831C-64.741,18.95 -62.492,14.798 -59.742,11.057C-58.582,9.478 -57.49,7.825 -56.163,6.396C-52.949,2.937 -48.688,2.504 -43.481,4.948C-42.396,5.457 -41.332,6.011 -40.229,6.56C-36.786,3.815 -34.188,0.453 -31.455,-2.783C-30.891,-3.452 -30.285,-4.085 -29.677,-4.716C-26.323,-8.194 -22.444,-8.896 -17.98,-7.077C-13.54,-5.268 -13.518,-5.33 -10.627,-8.897C-9.873,-9.827 -9.14,-10.777 -8.334,-11.66C-2.598,-17.948 -0.878,-17.387 5.039,-15.032C7.356,-14.109 8.464,-14.578 10.034,-16.294C12.34,-18.814 14.259,-21.905 17.968,-22.848C19.518,-23.243 21.006,-23.495 22.473,-22.869C25.32,-21.654 27.355,-22.955 29.089,-24.967C31.791,-28.104 34.365,-31.351 37.039,-34.513C39.262,-37.143 41.158,-37.643 43.19,-36.249C45.497,-34.668 46.052,-31.685 44.352,-29.019C41.366,-24.336 38.281,-19.727 34.827,-15.356C31.938,-11.702 28.391,-9.821 23.788,-10.579C21.229,-11.001 19.776,-9.994 18.328,-8.089C15.211,-3.99 11.627,-0.595 5.808,-1.431C3.72,-1.732 2.12,-3.264 0,-3.731" style="fill:rgb(0,62,124);fill-rule:nonzero;"/>
            </g>
        </g>
        <g transform="matrix(1,0,0,1,2160,0)">
            <g transform="matrix(1,0,0,1,786.154,513.309)">
                <path d="M0,15.212C0.513,12.601 0.865,10.045 1.533,7.574C2.821,2.81 6.755,-0.753 13.078,1.244C17.389,2.606 21.329,4.651 25.099,6.843C28.933,9.074 32.936,10.999 36.91,13.532C37.511,11.195 38.02,8.978 38.65,6.796C40.686,-0.242 45.755,-3.029 52.794,-1.185C59.182,0.488 64.905,3.868 71.189,5.815C72.959,6.363 74.684,6.662 76.378,6.984C78.329,4.508 78.018,1.726 78.387,-0.726C80.356,-13.815 88.134,-16.306 99.197,-12.689C102.808,-11.509 106.231,-9.761 109.744,-8.281C111.551,-7.52 112.932,-6.279 113.387,-4.365C113.877,-2.306 114.708,-0.026 112.981,1.785C111.164,3.693 108.989,3.156 106.593,2.555C102.862,1.62 99.789,-0.934 95.842,-1.294C91.706,-1.672 91.448,-1.566 90.762,2.422C90.27,5.283 89.648,8.131 88.907,10.938C87.218,17.333 83.519,20.105 76.862,19.93C69.505,19.737 62.878,16.795 56.249,14.051C52.497,12.498 51.579,12.531 50.036,15.712C44.563,26.995 37.756,29.154 26.28,22.82C23.33,21.191 20.053,20.224 17.335,18.114C15.438,16.64 13.955,17.434 12.931,19.503C12.183,21.013 11.685,22.634 10.592,23.998C5.58,30.246 -0.028,31.518 -7.74,27.778C-14.079,24.703 -20.312,21.409 -26.571,18.169C-29.292,16.76 -30.376,14.086 -29.532,11.184C-28.729,8.423 -26.213,6.733 -23.019,7.377C-17.323,8.525 -12.024,10.92 -6.707,13.191C-4.613,14.086 -2.624,15.277 0,15.212" style="fill:rgb(255,70,0);fill-rule:nonzero;"/>
            </g>
        </g>
        <g transform="matrix(1,0,0,1,2160,0)">
            <g transform="matrix(1,0,0,1,968.789,570.656)">
                <path d="M0,-96.46C1.249,-96.554 2.559,-96.238 3.851,-95.63C7.595,-93.869 8.385,-92.325 6.054,-88.902C3.359,-84.946 2.831,-80.787 3.004,-76.229C3.107,-73.508 3.295,-70.777 2.333,-68.02C0.604,-63.066 -3.097,-60.418 -7.575,-58.444C-10.374,-57.211 -13.293,-56.183 -15.928,-54.663C-18.651,-53.091 -20.523,-50.661 -21,-47.368C-22.12,-39.632 -26.801,-35.374 -34.142,-33.225C-40.229,-31.442 -44.687,-27.423 -46.519,-21.188C-47.798,-16.837 -50.669,-13.993 -54.457,-12.188C-61.736,-8.719 -68.861,-4.84 -76.727,-2.727C-78.927,-2.136 -80.476,-0.195 -83.01,-0.07C-86.327,0.094 -88.354,-1.256 -89.293,-4.27C-90.22,-7.248 -89.401,-9.726 -86.646,-11.381C-80.865,-14.852 -74.507,-17.066 -68.276,-19.492C-62.399,-21.779 -57.569,-24.892 -56.506,-31.542C-55.255,-39.359 -49.537,-42.515 -43.045,-44.419C-37.273,-46.111 -33.686,-49.367 -32.533,-55.184C-31.284,-61.486 -27.027,-64.82 -21.398,-66.858C-18.258,-67.995 -15.346,-69.649 -12.098,-70.585C-9.5,-71.335 -8.97,-73.31 -9.444,-76.092C-10.296,-81.076 -10.706,-86.112 -8.332,-90.982C-6.528,-94.682 -4.163,-96.494 0,-96.46" style="fill:rgb(0,62,124);fill-rule:nonzero;"/>
            </g>
        </g>
        <g transform="matrix(1,0,0,1,2160,0)">
            <g transform="matrix(1,0,0,1,748.754,273.637)">
                <path d="M0,24.987C-0.637,28.409 -1.447,31.81 -1.868,35.258C-2.415,39.74 -0.631,41.522 5.813,43.508C7.837,42.013 9.541,40.237 10.691,37.973C10.742,36.901 11.147,36.049 12.178,35.585C11.012,32.786 13.992,30.965 13.868,28.412C12.964,24.26 15.854,21.893 18.173,19.257C18.761,17.279 19.519,15.395 21.104,13.969C26.978,3.346 37.083,-3.462 49.172,-1.464C55.81,-0.367 61.254,3.597 66.392,7.814C66.735,8.096 66.905,8.581 67.226,8.903C69.961,11.657 73.363,12.605 75.464,11.219C77.853,9.643 78.013,6.875 76.342,2.6C72.744,-6.605 65.528,-11.463 56.583,-14.51C44.806,-18.521 33.852,-16.752 23.535,-10.157C17.53,-6.318 13.052,-0.886 8.624,4.576C7.949,5.409 7.241,6.215 6.548,7.033C5.363,9.665 4.179,12.297 2.994,14.928C3.093,16.214 2.587,17.235 1.624,18.054C0.131,20.142 1.189,22.828 0,24.987" style="fill:rgb(255,70,0);fill-rule:nonzero;"/>
            </g>
        </g>
        <g transform="matrix(1,0,0,1,2160,0)">
            <g transform="matrix(1,0,0,1,1481.63,363.086)">
                <path d="M0,46.871C-4.404,47.59 -7.511,45.445 -10.664,42.642C-19.315,34.956 -27.996,27.173 -38.433,21.958C-46.44,17.956 -55.114,15.812 -64.094,15.214C-66.438,15.058 -68.717,14.783 -70.665,13.391C-73.214,11.569 -74.644,9.265 -73.923,5.917C-73.242,2.751 -70.652,1.756 -68.197,1.354C-55.549,-0.719 -43.11,-0.485 -31.428,5.795C-30.794,6.136 -29.945,6.078 -29.196,6.205C-28.205,7.932 -26.476,8.502 -24.736,9.056C-14.4,14.644 -5.507,21.891 0.805,31.924C4.743,38.183 4.462,40.942 0.074,46.868L0,46.871Z" style="fill:rgb(253,153,0);fill-rule:nonzero;"/>
            </g>
        </g>
        <g transform="matrix(1,0,0,1,2160,0)">
            <g transform="matrix(1,0,0,1,741.358,233.258)">
                <path d="M0,29.683C2.06,30.489 2.949,32.637 4.709,33.787C6.07,33.245 7.383,34.027 8.886,33.99C9.934,32.845 10.922,31.46 12.622,31.031C15.095,27.459 17.751,24.121 20.97,21.095C24.461,17.812 27.991,14.902 32.521,13.256C41.082,10.146 49.485,10.834 58.045,13.57C65.18,15.851 71.503,19.596 77.938,23.208C78.742,23.66 79.562,24.091 80.396,24.488C82.913,25.684 85.272,25.274 87.096,23.273C88.887,21.306 88.432,19.012 87.275,16.837C85.009,12.574 81.071,9.996 77.174,7.643C68.564,2.448 59.205,-1.073 49.257,-2.609C38.007,-4.344 27.783,-1.143 18.306,4.835C15.096,8.389 10.043,9.649 7.247,13.718C5.621,16.923 4.077,20.176 1.722,22.943C0.759,25.09 -0.315,27.209 0,29.683" style="fill:rgb(255,70,0);fill-rule:nonzero;"/>
            </g>
        </g>
        <g transform="matrix(1,0,0,1,2160,0)">
            <g transform="matrix(1,0,0,1,1463.67,386.708)">
                <path d="M0,39.394C-3.51,39.092 -5.711,36.633 -7.962,34.388C-13.811,28.557 -19.793,22.946 -27.58,19.709C-34.338,16.9 -41.325,15.672 -48.656,16.136C-52.022,16.349 -55.418,16.072 -58.801,16.083C-62.026,16.093 -63.554,14.178 -64.023,11.332C-64.505,8.415 -63.218,6.082 -60.554,4.967C-51.845,1.323 -42.727,0 -33.522,2.227C-24.746,4.351 -16.409,7.714 -9.109,13.344C-3.699,17.516 1.023,22.287 4.373,28.203C5.725,30.591 7.052,33.485 5.033,36.381C1.956,35.048 1.014,37.281 0,39.394" style="fill:rgb(253,153,0);fill-rule:nonzero;"/>
            </g>
        </g>
        <g transform="matrix(1,0,0,1,2160,0)">
            <g transform="matrix(1,0,0,1,890.424,237.431)">
                <path d="M0,-51.916C4.116,-52.835 8.184,-53.364 12.076,-51.014C14.546,-49.522 16.665,-46.132 15.688,-44.216C14.452,-41.799 12.348,-40.162 9.384,-40.536C-3.079,-42.111 -11.882,-35.332 -20.104,-27.487C-27.358,-20.565 -33.655,-12.755 -40.042,-5.041C-41.307,-3.514 -42.771,-2.129 -44.269,-0.824C-46.434,1.063 -48.677,1.448 -51.263,-0.364C-53.925,-2.23 -53.597,-4.405 -52.471,-6.814C-49.216,-13.774 -44.232,-19.575 -39.28,-25.27C-33.201,-32.261 -26.487,-38.698 -18.87,-44.095C-13.164,-48.138 -7.103,-51.289 0,-51.916" style="fill:rgb(253,153,0);fill-rule:nonzero;"/>
            </g>
        </g>
        <g transform="matrix(1,0,0,1,2160,0)">
            <g transform="matrix(1,0,0,1,901.412,244.574)">
                <path d="M0,-38.343C3.825,-39.374 8.097,-39.566 12.081,-37.367C14.175,-36.211 16.51,-34.955 16.087,-31.862C15.693,-28.982 13.361,-26.791 10.011,-26.716C4.143,-26.584 -1.597,-26.246 -7.085,-23.729C-15.205,-20.004 -21.163,-13.754 -27.067,-7.379C-29.123,-5.16 -31.164,-2.921 -33.324,-0.806C-35.374,1.201 -37.792,1.223 -39.979,-0.447C-42.218,-2.155 -43.305,-4.292 -41.802,-7.256C-38.452,-13.864 -33.478,-19.129 -28.178,-24.117C-20.97,-30.903 -9.538,-37.325 0,-38.343" style="fill:rgb(253,153,0);fill-rule:nonzero;"/>
            </g>
        </g>
        <g transform="matrix(1,0,0,1,2160,0)">
            <g transform="matrix(1,0,0,1,1163.6,416.627)">
                <path d="M0,25.83C-5.132,28.982 -9.631,29.05 -14.201,25.252C-23.544,17.488 -34.891,15.14 -46.559,13.998C-56.811,12.995 -66.955,11.244 -77.157,9.904C-78.391,9.742 -79.487,9.301 -80.576,8.643C-84.094,6.517 -84.54,2.52 -81.298,0.04C-78.958,-1.749 -76.28,-2.745 -73.23,-2.883C-65.799,-3.22 -58.469,-2.241 -51.155,-1.262C-41.444,0.039 -31.767,1.56 -22.653,5.498C-15.572,8.558 -9.408,13.067 -3.526,17.876C-1.461,19.565 -0.08,22.51 0,25.83" style="fill:rgb(255,70,0);fill-rule:nonzero;"/>
            </g>
        </g>
        <g transform="matrix(1,0,0,1,2160,0)">
            <g transform="matrix(1,0,0,1,1101.73,469.294)">
                <path d="M0,-31.914C18.978,-29.957 36.219,-25.664 49.365,-11.587C52.757,-7.956 53.503,-4.626 51.486,-2.29C49.494,0.017 44.509,-0.519 41.176,-3.511C33.374,-10.516 24.021,-14.275 13.989,-16.642C8.63,-17.907 3.243,-19.063 -2.096,-20.41C-7.121,-21.677 -8.2,-23.039 -7.792,-27.003C-7.473,-30.104 -5.115,-31.721 -0.625,-31.911C-0.164,-31.931 0.298,-31.914 0,-31.914" style="fill:rgb(255,70,0);fill-rule:nonzero;"/>
            </g>
        </g>
        <g transform="matrix(1,0,0,1,2160,0)">
            <g transform="matrix(1,0,0,1,1100.4,495.538)">
                <path d="M0,-32.828C5.038,-32.816 8.888,-30.362 13.013,-28.866C22.005,-25.603 30.237,-21.157 36.325,-13.409C37.492,-11.923 38.187,-10.278 39.028,-8.683C40.436,-6.019 39.758,-3.33 37.568,-1.644C35.356,0.06 32.57,-0.229 30.333,-2.038C28.697,-3.361 27.32,-5.005 25.836,-6.514C20.572,-11.862 13.754,-14.65 7.172,-17.814C4.031,-19.324 0.763,-20.575 -2.327,-22.175C-6.127,-24.144 -7.178,-26.16 -6.297,-29.363C-5.326,-32.888 -2.107,-32.244 0,-32.828" style="fill:rgb(255,70,0);fill-rule:nonzero;"/>
            </g>
        </g>
        <g transform="matrix(1,0,0,1,2160,0)">
            <g transform="matrix(1,0,0,1,1057.75,562.738)">
                <path d="M0,-43.806C0.321,-39.507 -2.043,-36.197 -3.293,-32.676C-7.365,-21.205 -12.05,-9.951 -16.55,1.367C-17.979,4.959 -20.605,6.565 -23.508,5.835C-26.835,4.996 -27.95,3.055 -27.875,-1.129C-27.807,-4.925 -25.925,-8.184 -24.942,-11.696C-21.689,-23.319 -17.744,-34.702 -11.157,-44.96C-10.501,-45.982 -9.761,-47.043 -8.815,-47.765C-7.122,-49.058 -5.352,-50.371 -2.961,-49.087C-0.691,-47.868 0.576,-46.223 0,-43.806" style="fill:rgb(253,153,0);fill-rule:nonzero;"/>
            </g>
        </g>
        <g transform="matrix(1,0,0,1,2160,0)">
            <g transform="matrix(1,0,0,1,1018.85,511.871)">
                <path d="M0,20.977C-1.128,17.366 1.944,14.717 3.304,11.625C5.688,6.197 8.75,1.067 11.479,-4.212C13.395,-7.92 16.412,-9.877 20.55,-10.042C24.111,-10.183 25.916,-8.123 25.501,-4.582C25.058,-0.802 22.708,2.16 21.116,5.422C18.038,11.735 14.602,17.872 11.393,24.123C8.833,29.108 6.494,31.16 3.981,30.379C1.776,29.696 -0.033,25.588 0,20.977" style="fill:rgb(253,153,0);fill-rule:nonzero;"/>
            </g>
        </g>
        <g transform="matrix(1,0,0,1,2160,0)">
            <g transform="matrix(1,0,0,1,989.806,239.722)">
                <path d="M0,15.038C-0.468,17.127 -0.203,19.133 -2.066,20.644C-6.683,24.387 -11.271,23.225 -13.557,17.481C-16.103,11.085 -16.776,4.495 -15.41,-2.278C-14.464,-6.971 -11.353,-9.349 -6.91,-8.764C-2.78,-8.22 -0.594,-5.23 -0.415,-0.771C-0.202,4.564 0.658,9.876 0,15.038" style="fill:rgb(0,62,124);fill-rule:nonzero;"/>
            </g>
        </g>
        <g transform="matrix(1,0,0,1,2160,0)">
            <g transform="matrix(1,0,0,1,1015.76,250.139)">
                <path d="M0,-2.374C-1.679,0.839 -1.748,7.07 -6.209,11.317C-9.716,14.656 -13.746,14.064 -15.894,9.703C-18.659,4.086 -18.207,-1.713 -16.294,-7.582C-15.202,-10.931 -13.72,-13.72 -10.251,-14.942C-4.327,-17.03 2.873,-11.696 0,-2.374" style="fill:rgb(0,62,124);fill-rule:nonzero;"/>
            </g>
        </g>
        <g transform="matrix(1,0,0,1,2160,0)">
            <g transform="matrix(1,0,0,1,1036.03,272.167)">
                <path d="M0,-27.699C5.786,-26.647 8.017,-22.509 5.622,-17.238C3.273,-12.07 0.48,-7.189 -3.045,-2.697C-4.779,-0.487 -6.783,0.411 -9.413,0.007C-12.27,-0.432 -13.614,-2.836 -14.201,-5.084C-15.492,-10.035 -13.81,-14.858 -11.542,-19.099C-10.253,-21.509 -8.708,-24.076 -6.337,-26.012C-4.302,-27.673 -2.372,-28.11 0,-27.699" style="fill:rgb(0,62,124);fill-rule:nonzero;"/>
            </g>
        </g>
        <g transform="matrix(1,0,0,1,2160,0)">
            <g transform="matrix(1,0,0,1,1295.99,135.185)">
                <path d="M0,-0.55C2.623,4.3 -0.529,9.848 -6.023,9.866C-12.086,9.885 -17.259,7.508 -21.919,3.733C-24.617,1.546 -24.85,-1.171 -24.032,-4.168C-23.21,-7.186 -20.937,-8.693 -18.022,-9.23C-11.488,-10.435 -3.154,-6.381 0,-0.55" style="fill:rgb(255,70,0);fill-rule:nonzero;"/>
            </g>
        </g>
        <g transform="matrix(1,0,0,1,2160,0)">
            <g transform="matrix(1,0,0,1,1335.62,70.4222)">
                <path d="M0,21.842C-4.306,23.88 -8.901,21.546 -9.748,16.804C-10.448,12.883 -10.519,8.991 -9.526,5.04C-8.403,0.565 -6.796,-1.132 -2.264,-1.65C1.139,-2.038 4.579,0.115 6.077,3.573C8.401,8.937 4.876,19.535 0,21.842" style="fill:rgb(255,70,0);fill-rule:nonzero;"/>
            </g>
        </g>
        <g transform="matrix(1,0,0,1,2160,0)">
            <g transform="matrix(1,0,0,1,1363.61,82.637)">
                <path d="M0,18.989C-2.877,20.597 -5.802,20.996 -8.714,19.142C-11.626,17.288 -12.48,14.454 -12.255,11.181C-11.829,4.986 -8.245,0.515 -2.712,-0.746C2.822,-2.007 7.745,2.289 7.264,7.959C6.888,12.396 3.96,16.839 0,18.989" style="fill:rgb(255,70,0);fill-rule:nonzero;"/>
            </g>
        </g>
        <g transform="matrix(1,0,0,1,2160,0)">
            <g transform="matrix(1,0,0,1,1301.01,83.193)">
                <path d="M0,6.142C-1.846,3.55 -2.467,0.738 -1.559,-2.167C0.357,-8.299 5.538,-9.748 11.111,-6.379C16.487,-3.128 18.63,7.041 14.883,11.917C12.637,14.841 8.504,15.89 6.079,13.402C3.871,11.137 1.01,9.304 0,6.142" style="fill:rgb(255,70,0);fill-rule:nonzero;"/>
            </g>
        </g>
        <g transform="matrix(1,0,0,1,2160,0)">
            <g transform="matrix(1,0,0,1,1300.2,768.524)">
                <path d="M0,-29.796C6.652,-23.862 8.253,-15.756 4.236,-7.352C3.459,-5.725 3.22,-3.707 1.663,-2.523C-0.85,-0.612 -3.609,0 -6.556,-1.48C-9.939,-3.178 -9.232,-6.405 -8.972,-9.143C-8.521,-13.87 -6.593,-18.318 -5.958,-23.061C-5.503,-26.462 -3.635,-29.04 0,-29.796" style="fill:rgb(253,153,0);fill-rule:nonzero;"/>
            </g>
        </g>
        <g transform="matrix(1,0,0,1,2160,0)">
            <g transform="matrix(1,0,0,1,1302,109.574)">
                <path d="M0,-4.183C2.191,-0.336 2.09,2.809 -0.316,5.566C-2.493,8.06 -5.596,8.54 -9.598,7.274C-12.469,6.365 -14.783,4.61 -16.867,2.629C-20.06,-0.407 -20.335,-4.564 -17.932,-8.137C-15.576,-11.638 -11.473,-12.723 -7.354,-10.933C-4.474,-9.681 -1.661,-7.1 0,-4.183" style="fill:rgb(255,70,0);fill-rule:nonzero;"/>
            </g>
        </g>
        <g transform="matrix(1,0,0,1,2160,0)">
            <g transform="matrix(1,0,0,1,1276.86,745.822)">
                <path d="M0,24.544C-2.537,26.461 -4.941,25.585 -7.329,24.258C-9.697,22.941 -10.426,20.777 -9.838,18.359C-8.502,12.867 -7.984,7.175 -5.398,1.973C-4.243,-0.352 -3.232,-1.917 -0.309,-1.48C2.606,-1.045 4.461,0.248 4.881,3.285C5.473,7.557 4.582,11.748 3.957,15.91C3.738,17.37 3.561,18.916 3.171,20.395C2.676,22.276 1.982,23.893 0,24.544" style="fill:rgb(253,153,0);fill-rule:nonzero;"/>
            </g>
        </g>
        <g transform="matrix(1,0,0,1,2160,0)">
            <g transform="matrix(1,0,0,1,1254.96,748.981)">
                <path d="M0,23.887C-2.563,25.573 -4.874,24.289 -7.244,23.093C-9.551,21.93 -9.853,20.175 -9.575,17.76C-9.002,12.767 -8.514,7.758 -6.295,3.191C-5.099,0.727 -3.563,-1.686 -0.183,-1.59C2.199,-1.522 4.249,-0.602 4.709,1.75C6.074,8.735 5.742,15.587 2.034,21.946C1.558,22.763 0.948,23.432 0,23.887" style="fill:rgb(253,153,0);fill-rule:nonzero;"/>
            </g>
        </g>
        <g transform="matrix(1,0,0,1,2160,0)">
            <g transform="matrix(1,0,0,1,511.927,311.694)">
                <path d="M0,-17.352C4.73,-23.571 8.48,-21.292 12.796,-16.963C16.895,-12.851 20.618,-8.361 24.436,-3.976C27.011,-1.018 27.386,1.939 25.609,3.852C24.202,5.369 18.695,6.219 16.891,4.891C11.35,0.811 6.284,-3.846 1.818,-9.068C-0.117,-11.332 -0.122,-14.424 0,-17.352" style="fill:rgb(0,62,124);fill-rule:nonzero;"/>
            </g>
        </g>
        <g transform="matrix(1,0,0,1,2160,0)">
            <g transform="matrix(1,0,0,1,534.4,296.065)">
                <path d="M0,-25.14C4.886,-27.064 7.194,-23.043 9.762,-20.32C13.235,-16.635 14.944,-11.743 17.238,-7.293C18.514,-4.818 17.436,-2.255 15.588,-0.218C13.645,1.924 11.379,1.31 9.322,0.108C2.103,-4.114 -2.139,-10.723 -4.678,-18.432C-5.733,-21.635 -3.661,-24.199 0,-25.14" style="fill:rgb(0,62,124);fill-rule:nonzero;"/>
            </g>
        </g>
        <g transform="matrix(1,0,0,1,2160,0)">
            <g transform="matrix(1,0,0,1,599.556,287.807)">
                <path d="M0,-20.115C1.534,-16.449 -1.042,-13.51 -2.137,-10.52C-3.693,-6.265 -6.008,-2.234 -8.183,1.81C-9.771,4.764 -12.249,4.712 -14.708,5.178C-15.86,5.397 -16.782,4.647 -17.187,3.516C-18.071,1.044 -18.98,-1.43 -17.861,-4.096C-15.609,-9.461 -13.45,-14.865 -11.106,-20.19C-10.282,-22.064 -8.561,-23.316 -6.75,-24.163C-3.868,-25.512 -0.897,-23.646 0,-20.115" style="fill:rgb(0,62,124);fill-rule:nonzero;"/>
            </g>
        </g>
        <g transform="matrix(1,0,0,1,2160,0)">
            <g transform="matrix(1,0,0,1,566.629,262.568)">
                <path d="M0,28.188C-6.354,27.402 -7.244,26.249 -8.39,20.659C-9.351,15.971 -9.586,11.291 -9.942,6.565C-10.148,3.824 -8.932,2.489 -7.032,1.439C-4.92,0.271 -2.543,0 -0.546,1.667C1.111,3.05 2.41,4.948 2.696,7.083C3.26,11.307 3.657,15.573 3.765,19.83C3.844,22.972 2.494,25.746 0,28.188" style="fill:rgb(0,62,124);fill-rule:nonzero;"/>
            </g>
        </g>
        <g transform="matrix(1,0,0,1,2160,0)">
            <g transform="matrix(1,0,0,1,1371.19,153.262)">
                <path d="M0,-13.721C6.396,-17.172 11.213,-16.479 13.949,-12.14C16.814,-7.597 16.291,-4.108 12.191,-0.437C8.989,2.43 2.824,3.451 -0.65,1.39C-3.135,-0.083 -5.557,-1.786 -5.519,-5.279C-5.471,-9.654 -3.224,-12.391 0,-13.721" style="fill:rgb(255,70,0);fill-rule:nonzero;"/>
            </g>
        </g>
        <g transform="matrix(1,0,0,1,2160,0)">
            <g transform="matrix(1,0,0,1,504.129,329.139)">
                <path d="M0,10.417C-1.66,8.319 -2.589,5.89 -3.424,3.401C-4.595,-0.089 -3.732,-2.727 -0.669,-4.804C1.825,-6.495 5.845,-6.583 7.809,-4.426C11.507,-0.363 13.363,4.637 13.559,10.116C13.642,12.455 12.723,14.84 10.486,15.845C7.917,17 5.384,16.124 3.369,14.184C2.158,13.019 1.117,11.679 0,10.417" style="fill:rgb(255,70,0);fill-rule:nonzero;"/>
            </g>
        </g>
        <g transform="matrix(1,0,0,1,2160,0)">
            <g transform="matrix(1,0,0,1,601.942,576.028)">
                <path d="M0,21.251C-1.881,23.535 -3.366,26.243 -6.169,26.12C-9.178,25.987 -11.497,24.188 -12.524,20.96C-14.417,15.009 -15.497,8.918 -15.767,2.715C-15.907,-0.534 -13.808,-2.808 -10.948,-3.904C-8.11,-4.992 -6.066,-3.543 -4.495,-1.011C-0.869,4.835 1.196,11.063 0.681,17.998C0.591,19.204 0.187,20.388 0,21.251" style="fill:rgb(253,153,0);fill-rule:nonzero;"/>
            </g>
        </g>
        <g transform="matrix(1,0,0,1,2160,0)">
            <g transform="matrix(1,0,0,1,571.131,576.044)">
                <path d="M0,26.248C-2.593,25.228 -3.512,22.648 -4.165,20.201C-5.382,15.643 -6.316,10.996 -7.105,6.342C-7.627,3.27 -5.53,-0.444 -3.188,-1.363C-0.528,-2.407 2.853,-1.356 4.887,1.491C9.292,7.657 11.344,14.468 9.617,22.036C8.517,26.855 4.363,28.655 0,26.248" style="fill:rgb(253,153,0);fill-rule:nonzero;"/>
            </g>
        </g>
        <g transform="matrix(1,0,0,1,2160,0)">
            <g transform="matrix(1,0,0,1,545.059,586.505)">
                <path d="M0,23.932C-3.259,22.676 -4.117,19.385 -5.987,17.039C-8.054,14.448 -9.589,11.406 -11.166,8.458C-14.024,3.114 -11.407,-0.907 -5.413,-1.039C-1.854,-1.118 0.64,-0.244 2.331,3.139C4.029,6.535 6.417,9.58 8.19,12.944C10.492,17.313 8.646,22.841 4.71,24.282C3.023,24.9 1.433,25.05 0,23.932" style="fill:rgb(253,153,0);fill-rule:nonzero;"/>
            </g>
        </g>
        <g transform="matrix(1,0,0,1,2160,0)">
            <g transform="matrix(1,0,0,1,522.356,621.862)">
                <path d="M0,-16.367C1.991,-19.316 4.646,-19.269 7.616,-18.134C12.985,-16.08 16.185,-12.002 18.06,-6.804C20.164,-0.971 14.919,2.949 10.499,1.496C6.886,0.308 4.019,-1.553 2.193,-4.916C2.753,-5.978 5.158,-5.623 4.23,-8.069C2.709,-8.471 0.485,-7.286 -0.789,-9.271C-0.972,-9.805 -1.153,-10.34 -1.336,-10.874C-0.224,-12.543 0.374,-14.337 0,-16.367" style="fill:rgb(253,153,0);fill-rule:nonzero;"/>
            </g>
        </g>
        <g transform="matrix(1,0,0,1,2160,0)">
            <g transform="matrix(1,0,0,1,1370.97,125.97)">
                <path d="M0,-14.597C3.104,-16.764 6.88,-16.9 10.029,-14.573C12.302,-12.893 13.768,-10.014 13.13,-6.783C12.297,-2.559 7.802,1.351 3.392,1.789C-1.777,2.303 -5.021,0.162 -6.325,-4.624C-7.271,-8.094 -4.92,-11.928 0,-14.597" style="fill:rgb(255,70,0);fill-rule:nonzero;"/>
            </g>
        </g>
        <g transform="matrix(1,0,0,1,2160,0)">
            <g transform="matrix(-0.84237,0.538899,0.538899,0.84237,1376.83,181.149)">
                <path d="M4.595,-16.183C-0.884,-15.806 -5.007,-11.377 -4.655,-6.245C-4.352,-1.797 -0.226,1.565 4.595,1.291C10.203,0.973 14.203,-3.377 13.768,-8.684C13.37,-13.529 9.693,-16.535 4.595,-16.183" style="fill:rgb(255,70,0);fill-rule:nonzero;"/>
            </g>
        </g>
        <g transform="matrix(1,0,0,1,2160,0)">
            <g transform="matrix(1,0,0,1,476.781,335.38)">
                <path d="M0,8.434C-1.731,5.538 -3.43,2.724 -2.343,-1.006C-1.525,-3.812 -0.049,-5.782 2.784,-6.268C5.461,-6.726 7.907,-6.175 9.703,-3.678C12.619,0.378 15.34,4.446 13.5,9.764C12.109,13.785 8.277,15.16 4.715,12.829C2.939,11.667 1.167,10.348 0,8.434" style="fill:rgb(255,70,0);fill-rule:nonzero;"/>
            </g>
        </g>
        <g transform="matrix(1,0,0,1,2160,0)">
            <g transform="matrix(-0.426285,-0.904589,-0.904589,0.426285,1353.63,203.865)">
                <path d="M-8.445,-13.418C-12.331,-13.581 -16.976,-9.126 -17.285,-4.94C-17.622,-0.373 -12.85,5.125 -8.445,5.248C-4.293,5.363 0.23,1.024 0.404,-3.242C0.592,-7.848 -4.094,-13.236 -8.445,-13.418" style="fill:rgb(255,70,0);fill-rule:nonzero;"/>
            </g>
        </g>
        <g transform="matrix(1,0,0,1,2160,0)">
            <g transform="matrix(0.492435,0.870349,0.870349,-0.492435,1343.88,235.55)">
                <path d="M7.704,-4.771C2.744,-4.733 -1.263,-0.518 -0.897,4.601C-0.581,9.023 2.993,13.758 7.704,13.627C12.576,13.492 16.236,9.825 16.235,4.624C16.234,-0.993 11.928,-5.466 7.704,-4.771" style="fill:rgb(255,70,0);fill-rule:nonzero;"/>
            </g>
        </g>
        <g transform="matrix(1,0,0,1,2160,0)">
            <g transform="matrix(1,0,0,1,448.088,346.218)">
                <path d="M0,5.981C-1.86,3.314 -1.728,-0.899 0.507,-3.41C2.77,-5.951 5.382,-5.571 8.389,-4.476C11.808,-3.229 14.51,-1.032 17.08,1.248C20.652,4.416 19.063,9.5 14.394,10.698C9.587,11.932 2.541,9.623 0,5.981" style="fill:rgb(255,70,0);fill-rule:nonzero;"/>
            </g>
        </g>
        <g transform="matrix(1,0,0,1,2160,0)">
            <g transform="matrix(0.796946,-0.60405,-0.60405,-0.796946,467.213,407.698)">
                <path d="M-4.989,-1.627C-10.093,-1.518 -14.493,2.651 -14.28,7.175C-14.088,11.241 -9.619,14.992 -4.989,14.972C-0.028,14.952 4.369,10.698 4.224,6.057C4.09,1.748 -0.082,-1.733 -4.989,-1.627" style="fill:rgb(255,70,0);fill-rule:nonzero;"/>
            </g>
        </g>
        <g transform="matrix(1,0,0,1,2160,0)">
            <g transform="matrix(1,0,0,1,490.965,933.465)">
                <path d="M0,-31.377C1.024,-25.644 -0.99,-20.718 -4.437,-16.399C-6.846,-13.38 -8.745,-10.052 -10.955,-6.919C-12.208,-5.143 -13.619,-3.543 -15.075,-1.953C-17.151,0.312 -19.773,0.812 -22.064,-0.915C-24.259,-2.569 -24.989,-5.109 -23.321,-7.879C-20.951,-11.817 -18.981,-16.023 -16.336,-19.758C-14.734,-22.019 -13.053,-24.319 -11.917,-26.731C-9.819,-31.185 -6.597,-32.189 -2.233,-31.456C-1.491,-31.331 -0.717,-31.398 0,-31.377" style="fill:rgb(253,153,0);fill-rule:nonzero;"/>
            </g>
        </g>
        <g transform="matrix(1,0,0,1,2160,0)">
            <g transform="matrix(1,0,0,1,470.9,896.667)">
                <path d="M0,4.862C-3.615,8.697 -7.715,11.92 -12.451,14.226C-14.782,15.361 -17.375,16.215 -19.537,13.81C-21.386,11.755 -21.054,7.949 -18.769,5.461C-15.848,2.28 -12.452,-0.39 -9.079,-3.072C-6.674,-4.984 -4.271,-6.899 -1.883,-8.832C1.014,-11.178 4.352,-11.353 6.357,-9.238C8.554,-6.922 8.303,-3.393 5.628,-0.606C3.817,1.28 1.88,3.044 0,4.862" style="fill:rgb(253,153,0);fill-rule:nonzero;"/>
            </g>
        </g>
        <g transform="matrix(1,0,0,1,2160,0)">
            <g transform="matrix(1,0,0,1,442.472,873.86)">
                <path d="M0,0.896C6.151,-3.051 12.454,-6.791 19.209,-9.611C21.218,-10.449 23.825,-10.243 25.309,-7.849C26.754,-5.517 26.132,-1.301 23.843,0.54C18.359,4.952 12.287,8.372 5.564,10.514C2.957,11.345 -1.715,10.045 -2.328,8.292C-3.348,5.378 -2.391,2.892 0,0.896" style="fill:rgb(253,153,0);fill-rule:nonzero;"/>
            </g>
        </g>
        <g transform="matrix(1,0,0,1,2160,0)">
            <g transform="matrix(1,0,0,1,509.538,939.23)">
                <path d="M0,-22.976C0.112,-22.871 0.29,-22.785 0.328,-22.658C2.359,-15.825 4.764,-9.016 4.043,-1.747C3.746,1.254 1.101,2.691 -1.541,2.868C-3.894,3.025 -5.666,1.592 -6.592,-0.996C-8.655,-6.765 -9.892,-12.696 -10.399,-18.751C-10.618,-21.361 -10.075,-24.451 -7.158,-25.284C-4.644,-26.001 -2.029,-24.879 0,-22.976" style="fill:rgb(253,153,0);fill-rule:nonzero;"/>
            </g>
        </g>
        <g transform="matrix(1,0,0,1,2160,0)">
            <g transform="matrix(1,0,0,1,527.411,921.919)">
                <path d="M0,-13.965C2.167,-11.415 5.125,-8.099 7.887,-4.625C9.515,-2.577 8.688,1.393 6.445,3.643C4.522,5.573 1.187,5.856 -1.002,3.92C-5.883,-0.398 -9.408,-5.818 -12.172,-11.619C-13.16,-13.692 -12.884,-16.662 -10.59,-18.256C-8.339,-19.821 -5.949,-19.264 -3.906,-17.443C-2.878,-16.526 -1.849,-15.611 0,-13.965" style="fill:rgb(253,153,0);fill-rule:nonzero;"/>
            </g>
        </g>
        <g transform="matrix(1,0,0,1,2160,0)">
            <g transform="matrix(1,0,0,1,540.164,894.41)">
                <path d="M0,10.14C-2.116,7.714 -4.435,5.482 -5.6,2.336C-6.497,-0.085 -6.353,-2.219 -4.327,-3.881C-2.572,-5.322 -0.66,-5.52 1.596,-4.553C6.612,-2.402 9.423,1.72 11.758,6.265C12.913,8.514 11.547,12.823 9.418,14.1C6.818,15.66 4.503,15.126 2.55,12.798C1.763,11.859 0.854,11.023 0,10.14" style="fill:rgb(253,153,0);fill-rule:nonzero;"/>
            </g>
        </g>
        <g transform="matrix(1,0,0,1,2160,0)">
            <g transform="matrix(1,0,0,1,433.899,376.744)">
                <path d="M0,8.436C0.067,8.303 0.218,8.149 0.19,8.039C-0.935,3.496 1.091,0.392 4.741,-1.977C7.423,-3.53 10.646,-2.681 13.397,-3.929C16.657,-1.927 20.996,-0.875 20.648,4.304C19.89,5.614 19.13,6.924 18.371,8.234C16.242,9.751 13.967,10.961 11.394,11.54C7.089,12.365 3.271,11.405 0,8.436" style="fill:rgb(255,70,0);fill-rule:nonzero;"/>
            </g>
        </g>
        <g transform="matrix(1,0,0,1,2160,0)">
            <g transform="matrix(0.00647421,-0.999979,-0.999979,-0.00647421,462.694,499.547)">
                <path d="M-12.584,-11.937C-19.985,-12.052 -25.099,-7.557 -25.09,-0.946C-25.08,6.184 -19.475,12.198 -12.584,12.467C-4.6,12.781 0.501,8.075 0.514,0.385C0.526,-6.665 -4.951,-11.819 -12.584,-11.937" style="fill:rgb(0,62,124);fill-rule:nonzero;"/>
            </g>
        </g>
        <g transform="matrix(1,0,0,1,2160,0)">
            <g transform="matrix(0.630934,0.775836,0.775836,-0.630934,481.009,415.866)">
                <path d="M6.196,-3.239C2.253,-3.024 -1.78,1.902 -1.443,6.094C-1.152,9.728 2.702,13.307 6.196,13.186C10.467,13.04 14.826,8.098 14.48,3.795C14.182,0.09 10.017,-3.446 6.196,-3.239" style="fill:rgb(255,70,0);fill-rule:nonzero;"/>
            </g>
        </g>
        <g transform="matrix(1,0,0,1,2160,0)">
            <g transform="matrix(0.0355378,-0.999368,-0.999368,-0.0355378,477.978,453.174)">
                <path d="M-12.57,-12.441C-19.255,-12.575 -24.653,-7.295 -24.706,-0.571C-24.751,5.237 -17.999,12.834 -12.57,13.081C-6.756,13.345 -0.783,7.138 -0.612,0.656C-0.437,-6.059 -6.147,-12.314 -12.57,-12.441" style="fill:rgb(0,62,124);fill-rule:nonzero;"/>
            </g>
        </g>
        <g transform="matrix(1,0,0,1,2160,0)">
            <g transform="matrix(0.524674,-0.851303,-0.851303,-0.524674,1438.74,611.313)">
                <path d="M-11.445,-5.777C-18.485,-5.62 -25.466,1.528 -25.196,8.305C-24.946,14.603 -18.204,20.545 -11.445,20.424C-3.615,20.285 3.659,13.219 3.372,6.031C3.113,-0.45 -3.787,-5.948 -11.445,-5.777" style="fill:rgb(255,70,0);fill-rule:nonzero;"/>
            </g>
        </g>
        <g transform="matrix(1,0,0,1,2160,0)">
            <g transform="matrix(0.517608,-0.855618,-0.855618,-0.517608,1431.48,651.96)">
                <path d="M-11.519,-5.761C-18.616,-5.652 -25.394,0.772 -25.28,7.284C-25.158,14.353 -19.427,19.26 -11.519,19.067C-3.406,18.871 4.504,12.499 4.419,6.228C4.347,0.73 -4.425,-5.868 -11.519,-5.761" style="fill:rgb(255,70,0);fill-rule:nonzero;"/>
            </g>
        </g>
        <g transform="matrix(1,0,0,1,2160,0)">
            <g transform="matrix(1,0,0,1,1426.08,584.478)">
                <path d="M0,-17.246C3.003,-21.448 7.105,-23.319 12.249,-23.572C17.125,-23.811 21.593,-23.607 23.895,-18.377C26.242,-13.044 24.886,-5.481 21.096,-1.808C12.456,6.565 -0.23,1.674 -1.39,-7.78C-1.456,-8.322 -2.176,-8.783 -2.592,-9.282C-1.728,-11.937 -0.864,-14.592 0,-17.246" style="fill:rgb(255,70,0);fill-rule:nonzero;"/>
            </g>
        </g>
        <g transform="matrix(1,0,0,1,2160,0)">
            <g transform="matrix(0.498159,-0.867086,-0.867086,-0.498159,1459.96,531.132)">
                <path d="M-10.941,-6.335C-18.075,-6.05 -23.927,0.41 -23.556,7.699C-23.164,15.402 -17.691,18.868 -10.941,19.394C-4.75,19.876 2.272,11.756 2.049,5.147C1.847,-0.804 -4.692,-6.584 -10.941,-6.335" style="fill:rgb(255,70,0);fill-rule:nonzero;"/>
            </g>
        </g>
        <g transform="matrix(1,0,0,1,2160,0)">
            <g transform="matrix(-0.827807,-0.561013,-0.561013,0.827807,1451.32,506.959)">
                <path d="M-5.633,-18.968C-12.629,-19.192 -16.806,-15.621 -17.039,-9.216C-17.265,-2.999 -12.024,2.49 -5.633,2.727C0.763,2.964 5.324,-1.579 5.431,-8.295C5.544,-15.356 2.054,-18.722 -5.633,-18.968" style="fill:rgb(255,70,0);fill-rule:nonzero;"/>
            </g>
        </g>
        <g transform="matrix(1,0,0,1,2160,0)">
            <g transform="matrix(1,0,0,1,1237.81,766.115)">
                <path d="M0,-13.75C1.029,-11.896 0.847,-9.813 0.642,-7.903C0.335,-5.053 -0.358,-2.217 -1.152,0.548C-2.039,3.636 -4.868,4.301 -7.421,4.066C-9.86,3.843 -11.516,1.813 -11.416,-0.795C-11.228,-5.74 -9.828,-10.48 -7.484,-14.779C-5.701,-18.051 -1.955,-17.39 0,-13.75" style="fill:rgb(253,153,0);fill-rule:nonzero;"/>
            </g>
        </g>
        <g transform="matrix(1,0,0,1,2160,0)">
            <g transform="matrix(-0.742857,-0.66945,-0.66945,0.742857,1107.61,786.958)">
                <path d="M-5.359,-14.2C-10.503,-13.455 -14.657,-8.506 -13.924,-3.991C-13.301,-0.152 -9.596,2.016 -5.359,1.834C-0.595,1.63 3.455,-4.776 2.703,-8.631C1.954,-12.471 -1.209,-14.801 -5.359,-14.2" style="fill:rgb(255,70,0);fill-rule:nonzero;"/>
            </g>
        </g>
        <g transform="matrix(1,0,0,1,2160,0)">
            <g transform="matrix(-0.563041,-0.826429,-0.826429,0.563041,1157.88,770.461)">
                <path d="M-6.326,-11.66C-11.374,-12.076 -14.242,-9.921 -14.674,-5.385C-15.117,-0.744 -11.441,3.195 -6.326,3.561C-1.348,3.918 2.353,1.219 2.606,-3.054C2.797,-6.295 -0.099,-11.57 -6.326,-11.66" style="fill:rgb(255,70,0);fill-rule:nonzero;"/>
            </g>
        </g>
        <g transform="matrix(1,0,0,1,2160,0)">
            <g transform="matrix(0.633488,0.773753,0.773753,-0.633488,1131.07,781.906)">
                <path d="M5.703,-2.794C1.482,-2.682 -2.084,1.014 -2.031,5.22C-1.984,9.002 1.468,11.938 5.703,11.8C10.464,11.644 13.955,8.411 13.806,4.293C13.666,0.342 9.949,-2.906 5.703,-2.794" style="fill:rgb(255,70,0);fill-rule:nonzero;"/>
            </g>
        </g>
        <g transform="matrix(1,0,0,1,2160,0)">
            <g transform="matrix(0.0439682,-0.999033,-0.999033,-0.0439682,488.769,536.009)">
                <path d="M-11.689,-10.283C-19.271,-10.598 -22.244,-7.821 -22.611,-0.078C-22.933,6.703 -17.57,13.531 -11.689,13.826C-6.042,14.108 -0.193,8.37 0.13,2.394C0.416,-2.884 -5.14,-11.681 -11.689,-10.283" style="fill:rgb(0,62,124);fill-rule:nonzero;"/>
            </g>
        </g>
        <g transform="matrix(1,0,0,1,2160,0)">
            <g transform="matrix(-0.999838,0.0179935,0.0179935,0.999838,518.094,572.642)">
                <path d="M-0.21,-22.733C-7.001,-22.695 -11.902,-18.073 -11.75,-11.515C-11.585,-4.447 -7.868,-0.313 -0.21,-0.169C6.887,-0.038 11.882,-5.475 11.258,-11.475C10.531,-18.463 6.721,-22.773 -0.21,-22.733" style="fill:rgb(0,62,124);fill-rule:nonzero;"/>
            </g>
        </g>
        <g transform="matrix(1,0,0,1,2160,0)">
            <g transform="matrix(-0.93222,0.361891,0.361891,0.93222,1137.2,245.311)">
                <path d="M5.44,-24.599C0.245,-25.517 -7.025,-20.507 -7.977,-15.352C-9.212,-8.669 -2.433,-0.734 5.44,0.353C11.668,1.213 17.367,-2.58 18.32,-8.219C19.392,-14.568 12.484,-23.353 5.44,-24.599" style="fill:rgb(253,153,0);fill-rule:nonzero;"/>
            </g>
        </g>
        <g transform="matrix(1,0,0,1,2160,0)">
            <g transform="matrix(-0.647305,-0.762231,-0.762231,0.647305,1083.52,300.568)">
                <path d="M-7.758,-16.306C-16.107,-15.252 -19.557,-11.275 -18.671,-3.725C-17.949,2.438 -13.295,6.439 -7.758,5.656C-1.894,4.827 4.558,-2.877 4.023,-8.41C3.463,-14.193 -0.969,-17.162 -7.758,-16.306" style="fill:rgb(253,153,0);fill-rule:nonzero;"/>
            </g>
        </g>
        <g transform="matrix(1,0,0,1,2160,0)">
            <g transform="matrix(0.804206,-0.594351,-0.594351,-0.804206,1202.99,218.12)">
                <path d="M-6.706,-1.909C-13.074,-1.503 -17.38,3.873 -16.955,10.884C-16.55,17.543 -12.595,21.504 -6.706,21.149C-0.552,20.779 5.033,14.294 4.741,7.856C4.452,1.449 0.012,-2.338 -6.706,-1.909" style="fill:rgb(253,153,0);fill-rule:nonzero;"/>
            </g>
        </g>
        <g transform="matrix(1,0,0,1,2160,0)">
            <g transform="matrix(0.562859,0.826553,0.826553,-0.562859,1148.47,212.401)">
                <path d="M7.821,-3.814C1.208,-3.657 -2.176,-0.458 -2.158,5.623C-2.141,11.548 1.952,15.482 7.821,15.216C13.331,14.967 17.722,10.449 17.668,5.086C17.618,0.081 13.169,-3.94 7.821,-3.814" style="fill:rgb(253,153,0);fill-rule:nonzero;"/>
            </g>
        </g>
        <g transform="matrix(1,0,0,1,2160,0)">
            <g transform="matrix(-0.506586,-0.862189,-0.862189,0.506586,820.21,708.577)">
                <path d="M-6.136,-10.914C-9.745,-10.993 -13.268,-7.784 -13.492,-4.216C-13.718,-0.627 -10.081,2.983 -6.136,3.087C-1.968,3.197 0.947,0.525 1.086,-3.565C1.2,-7.007 -2.428,-11.502 -6.136,-10.914" style="fill:rgb(0,62,124);fill-rule:nonzero;"/>
            </g>
        </g>
        <g transform="matrix(1,0,0,1,2160,0)">
            <g transform="matrix(-0.504271,-0.863546,-0.863546,0.504271,835.957,692.464)">
                <path d="M-5.993,-10.031C-9.154,-10.14 -12.605,-7.022 -12.782,-3.896C-12.983,-0.349 -9.644,3.215 -5.993,3.349C-2.475,3.477 1.13,0.307 1.17,-2.955C1.213,-6.275 -2.465,-9.907 -5.993,-10.031" style="fill:rgb(0,62,124);fill-rule:nonzero;"/>
            </g>
        </g>
        <g transform="matrix(1,0,0,1,2160,0)">
            <g transform="matrix(0.473853,0.880604,0.880604,-0.473853,806.609,729.702)">
                <path d="M5.075,-2.723C1.101,-2.809 -1.123,-0.824 -1.305,2.968C-1.468,6.397 0.943,8.532 5.075,8.619C8.334,8.687 10.769,5.999 10.819,2.278C10.864,-1.062 9.055,-2.637 5.075,-2.723" style="fill:rgb(0,62,124);fill-rule:nonzero;"/>
            </g>
        </g>
        <g transform="matrix(1,0,0,1,2160,0)">
            <g transform="matrix(1,0,0,1,863.171,672.181)">
                <path d="M0,2.181C-0.603,3.276 -1.205,4.371 -1.808,5.466C-3.488,6.648 -5.229,7.271 -7.357,6.665C-10.488,5.776 -11.459,4.19 -10.518,0.958C-9.888,-1.202 -9.496,-3.507 -7.162,-5.09C-4.841,-2.632 -0.356,-2.384 0,2.181" style="fill:rgb(0,62,124);fill-rule:nonzero;"/>
            </g>
        </g>
        <g transform="matrix(1,0,0,1,2160,0)">
            <g transform="matrix(1,0,0,1,961.737,271.032)">
                <path d="M0,4.37C0.187,2.913 0.375,1.457 0.563,0C2.572,1.74 2.236,3.178 0,4.37" style="fill:rgb(0,62,124);fill-rule:nonzero;"/>
            </g>
        </g>
        <g transform="matrix(1,0,0,1,2160,0)">
            <g transform="matrix(1,0,0,1,889.631,898.447)">
                <path d="M0,1.045C-0.164,0.55 -0.434,-0.027 0.536,0.341C0.601,0.761 0.523,1.072 0,1.045" style="fill:rgb(253,153,0);fill-rule:nonzero;"/>
            </g>
        </g>
        <g transform="matrix(1,0,0,1,2160,0)">
            <g transform="matrix(1,0,0,1,532.536,633.255)">
                <path d="M0,1.372C-0.214,0.782 -0.167,0.285 0.483,0C1.057,0.716 0.939,1.188 0,1.372" style="fill:rgb(253,153,0);fill-rule:nonzero;"/>
            </g>
        </g>
        <g transform="matrix(1,0,0,1,2160,0)">
            <g transform="matrix(1,0,0,1,729.512,783.406)">
                <path d="M0,1.236C-0.188,1.046 -0.377,0.855 -0.566,0.665C-0.589,0.198 -0.661,-0.243 -1.146,-0.474C-1.401,-3.51 -0.634,-6.084 2.104,-7.792C3.077,-7.612 3.61,-7.035 3.862,-6.171C1.626,-2.992 1.708,-1.899 4.492,0.873C5.428,1.804 6.228,2.894 7.416,3.551C7.448,4.027 7.564,4.464 7.892,4.838C8.604,5.653 9.647,6.311 8.714,7.69C7.808,9.028 6.755,8.238 5.727,8.108C5.721,7.918 5.782,7.686 5.698,7.543C4.233,5.05 2.67,2.641 0,1.236" style="fill:rgb(254,254,254);fill-rule:nonzero;"/>
            </g>
        </g>
        <g transform="matrix(1,0,0,1,2160,0)">
            <g transform="matrix(0.475007,-0.879982,-0.879982,-0.475007,723.085,795.47)">
                <path d="M-5.581,-1.843C-6.057,-0.395 -7.38,0.285 -8.462,1.239C-8.371,3.86 -6.561,5.669 -5.581,8.01C-3.98,7.316 -2.505,6.45 -1.017,7.771C-2.688,4.638 -4.306,1.479 -5.581,-1.843" style="fill:rgb(254,254,254);fill-rule:nonzero;"/>
            </g>
        </g>
        <g transform="matrix(1,0,0,1,2160,0)">
            <g transform="matrix(1,0,0,1,724.785,793.484)">
                <path d="M0,1.986C1.372,0.863 2.524,-0.079 3.702,-1.043C4.036,0.785 3.724,1.789 2.621,2.524C1.864,3.029 1.463,2.97 0,1.986" style="fill:rgb(254,254,254);fill-rule:nonzero;"/>
            </g>
        </g>
        <g transform="matrix(1,0,0,1,2160,0)">
            <g transform="matrix(1,0,0,1,490.393,389.063)">
                <path d="M0,0.48C-0.683,1.388 -0.683,1.388 -1.673,0.188C-0.907,-0.908 -0.455,-0.205 0,0.48" style="fill:rgb(255,70,0);fill-rule:nonzero;"/>
            </g>
        </g>
        <g transform="matrix(1,0,0,1,2160,0)">
            <g transform="matrix(1,0,0,1,636.643,573.558)">
                <path d="M0,24.987C-0.637,28.409 -1.447,31.81 -1.868,35.258C-2.415,39.741 -0.631,41.522 5.813,43.508C7.837,42.013 9.541,40.238 10.691,37.973C10.742,36.901 11.147,36.049 12.178,35.586C11.012,32.787 13.992,30.966 13.868,28.413C12.964,24.26 15.854,21.893 18.173,19.258C18.761,17.279 19.519,15.395 21.104,13.969C26.978,3.346 37.083,-3.461 49.172,-1.464C55.81,-0.367 61.254,3.597 66.392,7.814C66.735,8.096 66.905,8.581 67.226,8.903C69.961,11.658 73.363,12.605 75.464,11.219C77.853,9.642 78.013,6.876 76.342,2.6C72.744,-6.605 65.528,-11.463 56.583,-14.51C44.806,-18.521 33.852,-16.752 23.535,-10.157C17.53,-6.318 13.052,-0.885 8.624,4.576C7.949,5.409 7.241,6.215 6.548,7.034C5.363,9.665 4.179,12.297 2.994,14.928C3.093,16.215 2.587,17.234 1.624,18.054C0.131,20.142 1.189,22.829 0,24.987" style="fill:rgb(0,62,124);fill-rule:nonzero;"/>
            </g>
        </g>
        <g transform="matrix(1,0,0,1,2160,0)">
            <g transform="matrix(1,0,0,1,629.247,533.18)">
                <path d="M0,29.683C2.06,30.489 2.949,32.636 4.709,33.787C6.07,33.245 7.383,34.027 8.886,33.99C9.934,32.845 10.922,31.46 12.622,31.031C15.095,27.459 17.751,24.121 20.97,21.095C24.461,17.812 27.991,14.902 32.521,13.255C41.082,10.146 49.485,10.834 58.045,13.57C65.18,15.851 71.503,19.595 77.938,23.207C78.742,23.66 79.562,24.091 80.396,24.488C82.913,25.684 85.272,25.274 87.096,23.273C88.887,21.306 88.432,19.012 87.275,16.837C85.009,12.574 81.071,9.996 77.174,7.643C68.564,2.448 59.205,-1.074 49.257,-2.609C38.007,-4.344 27.783,-1.144 18.306,4.835C15.096,8.389 10.043,9.649 7.247,13.717C5.621,16.922 4.077,20.175 1.722,22.943C0.759,25.09 -0.315,27.209 0,29.683" style="fill:rgb(0,62,124);fill-rule:nonzero;"/>
            </g>
        </g>
        <g transform="matrix(1,0,0,1,2160,0)">
            <g transform="matrix(1,0,0,1,697.486,304.763)">
                <path d="M0,21.252C-1.882,23.536 -3.367,26.244 -6.169,26.121C-9.179,25.988 -11.497,24.188 -12.524,20.961C-14.417,15.01 -15.497,8.919 -15.767,2.716C-15.907,-0.533 -13.808,-2.807 -10.948,-3.903C-8.111,-4.992 -6.066,-3.542 -4.496,-1.01C-0.869,4.836 1.196,11.063 0.681,17.999C0.591,19.205 0.187,20.388 0,21.252" style="fill:rgb(253,153,0);fill-rule:nonzero;"/>
            </g>
        </g>
        <g transform="matrix(1,0,0,1,2160,0)">
            <g transform="matrix(1,0,0,1,666.674,304.779)">
                <path d="M0,26.249C-2.593,25.229 -3.511,22.649 -4.164,20.202C-5.381,15.644 -6.315,10.997 -7.105,6.342C-7.626,3.271 -5.529,-0.443 -3.188,-1.362C-0.527,-2.407 2.853,-1.356 4.888,1.492C9.293,7.658 11.345,14.469 9.617,22.037C8.518,26.856 4.364,28.656 0,26.249" style="fill:rgb(253,153,0);fill-rule:nonzero;"/>
            </g>
        </g>
        <g transform="matrix(1,0,0,1,2160,0)">
            <g transform="matrix(1,0,0,1,640.602,315.242)">
                <path d="M0,23.931C-3.259,22.675 -4.117,19.384 -5.987,17.038C-8.053,14.447 -9.589,11.405 -11.165,8.458C-14.023,3.113 -11.407,-0.907 -5.412,-1.04C-1.854,-1.118 0.64,-0.244 2.332,3.139C4.03,6.534 6.418,9.579 8.19,12.943C10.493,17.313 8.646,22.84 4.711,24.281C3.024,24.899 1.433,25.049 0,23.931" style="fill:rgb(253,153,0);fill-rule:nonzero;"/>
            </g>
        </g>
        <g transform="matrix(1,0,0,1,2160,0)">
            <g transform="matrix(1,0,0,1,617.899,350.597)">
                <path d="M0,-16.366C1.992,-19.316 4.647,-19.269 7.617,-18.133C12.986,-16.079 16.186,-12.001 18.061,-6.803C20.165,-0.971 14.92,2.95 10.5,1.497C6.887,0.309 4.02,-1.552 2.194,-4.915C2.754,-5.977 5.159,-5.622 4.231,-8.069C2.71,-8.47 0.485,-7.285 -0.788,-9.271C-0.971,-9.805 -1.153,-10.339 -1.335,-10.873C-0.224,-12.542 0.375,-14.336 0,-16.366" style="fill:rgb(253,153,0);fill-rule:nonzero;"/>
            </g>
        </g>
        <g transform="matrix(1,0,0,1,2160,0)">
            <g transform="matrix(1,0,0,1,936.111,824.105)">
                <path d="M0,-22.427C0.807,-25.813 1.785,-29.168 2.378,-32.591C3.149,-37.041 1.456,-38.909 -4.882,-41.215C-6.977,-39.823 -8.768,-38.135 -10.029,-35.931C-10.134,-34.862 -10.582,-34.031 -11.633,-33.62C-10.608,-30.767 -13.677,-29.097 -13.68,-26.54C-12.984,-22.349 -15.99,-20.129 -18.437,-17.612C-19.123,-15.665 -19.975,-13.822 -21.629,-12.478C-28.025,-2.16 -38.459,4.134 -50.433,1.535C-57.007,0.107 -62.247,-4.124 -67.167,-8.592C-67.497,-8.891 -67.643,-9.384 -67.945,-9.722C-70.54,-12.61 -73.892,-13.726 -76.058,-12.447C-78.522,-10.991 -78.82,-8.236 -77.365,-3.882C-74.232,5.491 -67.269,10.704 -58.486,14.193C-46.925,18.788 -35.896,17.569 -25.263,11.498C-19.073,7.963 -14.329,2.761 -9.634,-2.472C-8.918,-3.27 -8.171,-4.039 -7.437,-4.823C-6.123,-7.392 -4.808,-9.961 -3.493,-12.531C-3.527,-13.819 -2.972,-14.813 -1.969,-15.583C-0.374,-17.595 -1.297,-20.33 0,-22.427" style="fill:rgb(255,70,0);fill-rule:nonzero;"/>
            </g>
        </g>
        <g transform="matrix(1,0,0,1,2160,0)">
            <g transform="matrix(1,0,0,1,941.714,865.026)">
                <path d="M0,-27.341C-2.017,-28.248 -2.798,-30.438 -4.497,-31.674C-5.885,-31.201 -7.156,-32.048 -8.659,-32.086C-9.763,-30.995 -10.818,-29.661 -12.539,-29.318C-15.187,-25.874 -18.007,-22.672 -21.372,-19.811C-25.023,-16.707 -28.694,-13.976 -33.301,-12.559C-42.007,-9.881 -50.365,-10.988 -58.777,-14.149C-65.79,-16.782 -71.917,-20.838 -78.163,-24.768C-78.945,-25.26 -79.741,-25.731 -80.555,-26.169C-83.01,-27.49 -85.386,-27.198 -87.307,-25.29C-89.193,-23.415 -88.854,-21.102 -87.809,-18.871C-85.757,-14.501 -81.954,-11.729 -78.178,-9.185C-69.839,-3.566 -60.668,0.419 -50.809,2.449C-39.659,4.745 -29.288,2.059 -19.524,-3.439C-16.141,-6.827 -11.031,-7.833 -8.035,-11.757C-6.252,-14.877 -4.547,-18.049 -2.057,-20.695C-0.986,-22.791 0.191,-24.854 0,-27.341" style="fill:rgb(255,70,0);fill-rule:nonzero;"/>
            </g>
        </g>
        <g transform="matrix(1,0,0,1,2160,0)">
            <g transform="matrix(1,0,0,1,1385.91,741.288)">
                <path d="M0,-16.484C0.639,-18.527 0.542,-20.548 2.524,-21.899C7.437,-25.246 11.911,-23.706 13.712,-17.793C15.718,-11.208 15.842,-4.584 13.918,2.053C12.585,6.651 9.286,8.762 4.908,7.81C0.837,6.924 -1.094,3.763 -0.9,-0.695C-0.669,-6.029 -1.085,-11.395 0,-16.484" style="fill:rgb(0,62,124);fill-rule:nonzero;"/>
            </g>
        </g>
        <g transform="matrix(1,0,0,1,2160,0)">
            <g transform="matrix(1,0,0,1,1359.47,728.419)">
                <path d="M0,1.199C1.939,-1.864 2.526,-8.068 7.325,-11.929C11.098,-14.965 15.064,-14.04 16.842,-9.516C19.131,-3.688 18.198,2.053 15.805,7.743C14.438,10.989 12.729,13.645 9.171,14.576C3.095,16.164 -3.638,10.25 0,1.199" style="fill:rgb(0,62,124);fill-rule:nonzero;"/>
            </g>
        </g>
        <g transform="matrix(1,0,0,1,2160,0)">
            <g transform="matrix(1,0,0,1,1338.99,704.376)">
                <path d="M0,26.843C-5.679,25.314 -7.558,21.005 -4.732,15.951C-1.963,10.996 1.226,6.364 5.112,2.18C7.024,0.122 9.096,-0.606 11.683,0.015C14.493,0.69 15.634,3.197 16.031,5.486C16.907,10.528 14.829,15.195 12.217,19.232C10.732,21.527 8.979,23.956 6.456,25.688C4.289,27.175 2.33,27.449 0,26.843" style="fill:rgb(0,62,124);fill-rule:nonzero;"/>
            </g>
        </g>
        <g transform="matrix(1,0,0,1,2160,0)">
            <g transform="matrix(1,0,0,1,1060.67,864.154)">
                <path d="M0,-21.122C1.346,-21.419 2.722,-21.622 4.032,-22.032C6.704,-22.866 9.181,-22.865 11.109,-20.526C12.985,-18.252 12.895,-15.755 11.645,-13.217C11.172,-12.256 10.673,-11.309 10.186,-10.355C2.979,-5.792 -4.367,-1.543 -12.925,0.002C-15.459,0.452 -17.977,1.053 -20.529,1.319C-24.607,1.744 -28.063,-0.528 -29,-4.004C-29.876,-7.253 -27.64,-10.751 -23.683,-12.351C-20.013,-13.836 -16.35,-15.337 -12.683,-16.831C-8.263,-17.691 -4.056,-19.182 0,-21.122" style="fill:rgb(253,153,0);fill-rule:nonzero;"/>
            </g>
        </g>
        <g transform="matrix(1,0,0,1,2160,0)">
            <g transform="matrix(1,0,0,1,1006.01,816.89)">
                <path d="M0,8.929C2.755,5.418 6.493,4.894 10.711,4.821C22.282,4.621 33.939,4.473 45.151,1.245C53.755,-1.231 61.589,-5.525 68.604,-11.165C70.435,-12.636 72.298,-13.976 74.675,-14.271C77.783,-14.656 80.396,-13.927 82.132,-10.976C83.773,-8.185 82.541,-5.7 81.007,-3.742C73.101,6.347 63.788,14.596 50.938,17.883C50.241,18.062 49.655,18.679 49.018,19.092C47.12,18.492 45.461,19.243 43.806,20.014C32.416,22.898 20.964,23.585 9.527,20.475C2.391,18.533 0.729,16.314 -0.053,8.982L0,8.929Z" style="fill:rgb(253,153,0);fill-rule:nonzero;"/>
            </g>
        </g>
        <g transform="matrix(1,0,0,1,2160,0)">
            <g transform="matrix(1,0,0,1,1008.29,790.535)">
                <path d="M0,11.246C2.788,9.092 6.072,9.412 9.249,9.539C17.501,9.871 25.702,9.951 33.625,7.061C40.5,4.554 46.474,0.726 51.556,-4.577C53.89,-7.013 56.575,-9.108 59.058,-11.406C61.425,-13.597 63.845,-13.222 66.118,-11.445C68.447,-9.625 69.079,-7.036 67.873,-4.412C63.931,4.166 58.116,11.312 49.834,15.905C41.938,20.283 33.524,23.453 24.341,24.251C17.533,24.843 10.828,24.529 4.357,22.442C1.746,21.6 -1.19,20.369 -1.665,16.87C1.503,15.768 0.684,13.487 0,11.246" style="fill:rgb(253,153,0);fill-rule:nonzero;"/>
            </g>
        </g>
        <g transform="matrix(1,0,0,1,2160,0)">
            <g transform="matrix(-0.742826,-0.669485,-0.669485,0.742826,621.85,889.088)">
                <path d="M-5.359,-14.201C-10.504,-13.456 -14.656,-8.507 -13.924,-3.993C-13.301,-0.153 -9.596,2.015 -5.359,1.833C-0.596,1.63 3.454,-4.777 2.703,-8.632C1.953,-12.471 -1.209,-14.801 -5.359,-14.201" style="fill:rgb(255,70,0);fill-rule:nonzero;"/>
            </g>
        </g>
        <g transform="matrix(1,0,0,1,2160,0)">
            <g transform="matrix(-0.563041,-0.826429,-0.826429,0.563041,672.116,872.592)">
                <path d="M-6.325,-11.659C-11.373,-12.076 -14.24,-9.92 -14.673,-5.385C-15.116,-0.744 -11.44,3.195 -6.325,3.562C-1.347,3.918 2.354,1.22 2.607,-3.054C2.798,-6.295 -0.098,-11.57 -6.325,-11.659" style="fill:rgb(255,70,0);fill-rule:nonzero;"/>
            </g>
        </g>
        <g transform="matrix(1,0,0,1,2160,0)">
            <g transform="matrix(0.633521,0.773725,0.773725,-0.633521,645.314,884.036)">
                <path d="M5.702,-2.794C1.48,-2.682 -2.085,1.014 -2.032,5.221C-1.983,9.002 1.468,11.938 5.702,11.799C10.464,11.644 13.953,8.41 13.806,4.293C13.665,0.342 9.948,-2.906 5.702,-2.794" style="fill:rgb(255,70,0);fill-rule:nonzero;"/>
            </g>
        </g>
        <g transform="matrix(1,0,0,1,2160,0)">
            <g transform="matrix(1,0,0,1,614.474,870.112)">
                <path d="M0,18.094C-4.65,20.867 -6.472,18.433 -8.125,14.532C-9.696,10.829 -10.929,6.98 -12.248,3.173C-13.138,0.606 -12.614,-1.392 -10.978,-2.163C-9.681,-2.773 -5.92,-1.895 -5.104,-0.575C-2.598,3.482 -0.546,7.785 0.974,12.298C1.633,14.254 0.835,16.243 0,18.094" style="fill:rgb(0,62,124);fill-rule:nonzero;"/>
            </g>
        </g>
        <g transform="matrix(1,0,0,1,2160,0)">
            <g transform="matrix(1,0,0,1,593.968,876.858)">
                <path d="M0,20.586C-3.639,20.559 -4.082,17.377 -5.027,14.962C-6.308,11.694 -6.141,8.107 -6.464,4.653C-6.644,2.732 -5.287,1.363 -3.572,0.532C-1.769,-0.342 -0.471,0.64 0.54,1.944C4.089,6.525 5.104,11.872 4.743,17.484C4.593,19.815 2.597,20.928 0,20.586" style="fill:rgb(0,62,124);fill-rule:nonzero;"/>
            </g>
        </g>
        <g transform="matrix(1,0,0,1,2160,0)">
            <g transform="matrix(1,0,0,1,551.248,873.67)">
                <path d="M0,8.996C-0.038,6.242 2.379,5.019 3.855,3.381C5.957,1.048 8.488,-0.944 10.933,-2.982C12.718,-4.47 14.297,-3.795 15.998,-3.458C16.796,-3.301 17.194,-2.58 17.162,-1.748C17.091,0.069 17.035,1.894 15.626,3.319C12.79,6.185 10.004,9.1 7.12,11.917C6.104,12.908 4.675,13.267 3.292,13.345C1.09,13.466 -0.337,11.498 0,8.996" style="fill:rgb(0,62,124);fill-rule:nonzero;"/>
            </g>
        </g>
        <g transform="matrix(1,0,0,1,2160,0)">
            <g transform="matrix(1,0,0,1,578.381,895.577)">
                <path d="M0,-19.219C3.882,-17.07 4.155,-16.098 3.445,-12.209C2.85,-8.947 1.791,-5.877 0.797,-2.747C0.221,-0.931 -0.907,-0.389 -2.399,-0.204C-4.06,0 -5.658,-0.441 -6.51,-2.03C-7.218,-3.347 -7.562,-4.904 -7.193,-6.35C-6.463,-9.21 -5.614,-12.056 -4.582,-14.821C-3.82,-16.861 -2.235,-18.295 0,-19.219" style="fill:rgb(0,62,124);fill-rule:nonzero;"/>
            </g>
        </g>
    </g>
</svg>
